# MagicaVoxel @ Ephtracy

# group
o 

# material
mtllib wall.mtl
usemtl palette

# normals
vn -1 0 0
vn 1 0 0
vn 0 0 1
vn 0 0 -1
vn 0 -1 0
vn 0 1 0

# texcoords
vt 0.369141 0.5
vt 0.373047 0.5
vt 0.994141 0.5

# verts
v -0.5 0 5
v -0.5 0 2.7
v -0.5 0 2.6
v -0.5 0 -1.3
v -0.5 0 -1.4
v -0.5 0 -5
v -0.5 0.9 -1.4
v -0.5 0.9 -2.8
v -0.5 1 -1.3
v -0.5 1 -2.7
v -0.5 1.2 2.6
v -0.5 1.2 1.8
v -0.5 1.3 2.7
v -0.5 1.3 1.9
v -0.5 2.3 5
v -0.5 2.3 3
v -0.5 2.4 5
v -0.5 2.4 3.1
v -0.5 2.4 -2.8
v -0.5 2.4 -5
v -0.5 2.5 -2.7
v -0.5 2.5 -5
v -0.5 2.9 1.8
v -0.5 2.9 0
v -0.5 3 1.9
v -0.5 3 0.0999999
v -0.5 5.5 0
v -0.5 5.5 -3.1
v -0.5 5.6 0.0999999
v -0.5 5.6 -3
v -0.5 6.5 5
v -0.5 6.5 3.1
v -0.5 6.6 5
v -0.5 6.6 3
v -0.5 6.6 -3.1
v -0.5 6.6 -5
v -0.5 6.7 -3
v -0.5 6.7 -5
v -0.5 7.1 2.8
v -0.5 7.1 0.3
v -0.5 7.2 2.7
v -0.5 7.2 0.4
v -0.5 7.9 0.3
v -0.5 7.9 -1.2
v -0.5 8 0.4
v -0.5 8 -1.1
v -0.5 10 5
v -0.5 10 2.8
v -0.5 10 2.7
v -0.5 10 -1.1
v -0.5 10 -1.2
v -0.5 10 -5
v 0.5 0 5
v 0.5 0 2.7
v 0.5 0 2.6
v 0.5 0 -1.3
v 0.5 0 -1.4
v 0.5 0 -5
v 0.5 0.9 -1.4
v 0.5 0.9 -2.8
v 0.5 1 -1.3
v 0.5 1 -2.7
v 0.5 1.2 2.6
v 0.5 1.2 1.8
v 0.5 1.3 2.7
v 0.5 1.3 1.9
v 0.5 2.3 5
v 0.5 2.3 3
v 0.5 2.4 5
v 0.5 2.4 3.1
v 0.5 2.4 -2.8
v 0.5 2.4 -5
v 0.5 2.5 -2.7
v 0.5 2.5 -5
v 0.5 2.9 1.8
v 0.5 2.9 0
v 0.5 3 1.9
v 0.5 3 0.0999999
v 0.5 5.5 0
v 0.5 5.5 -3.1
v 0.5 5.6 0.0999999
v 0.5 5.6 -3
v 0.5 6.5 5
v 0.5 6.5 3.1
v 0.5 6.6 5
v 0.5 6.6 3
v 0.5 6.6 -3.1
v 0.5 6.6 -5
v 0.5 6.7 -3
v 0.5 6.7 -5
v 0.5 7.1 2.8
v 0.5 7.1 0.3
v 0.5 7.2 2.7
v 0.5 7.2 0.4
v 0.5 7.9 0.3
v 0.5 7.9 -1.2
v 0.5 8 0.4
v 0.5 8 -1.1
v 0.5 10 5
v 0.5 10 2.8
v 0.5 10 2.7
v 0.5 10 -1.1
v 0.5 10 -1.2
v 0.5 10 -5
v -0.5 0 5
v -0.5 2.3 5
v -0.5 2.4 5
v -0.5 6.5 5
v -0.5 6.6 5
v -0.5 10 5
v 0.5 0 5
v 0.5 2.3 5
v 0.5 2.4 5
v 0.5 6.5 5
v 0.5 6.6 5
v 0.5 10 5
v -0.5 0 -5
v -0.5 2.4 -5
v -0.5 2.5 -5
v -0.5 6.6 -5
v -0.5 6.7 -5
v -0.5 10 -5
v 0.5 0 -5
v 0.5 2.4 -5
v 0.5 2.5 -5
v 0.5 6.6 -5
v 0.5 6.7 -5
v 0.5 10 -5
v -0.5 0 5
v 0.5 0 5
v -0.5 0 2.7
v 0.5 0 2.7
v -0.5 0 2.6
v 0.5 0 2.6
v -0.5 0 -1.3
v 0.5 0 -1.3
v -0.5 0 -1.4
v 0.5 0 -1.4
v -0.5 0 -5
v 0.5 0 -5
v -0.5 10 5
v 0.5 10 5
v -0.5 10 2.8
v 0.5 10 2.8
v -0.5 10 2.7
v 0.5 10 2.7
v -0.5 10 -1.1
v 0.5 10 -1.1
v -0.5 10 -1.2
v 0.5 10 -1.2
v -0.5 10 -5
v 0.5 10 -5

# faces
f 7/3/1 5/3/1 4/3/1
f 7/1/1 6/1/1 5/1/1
f 8/1/1 6/1/1 7/1/1
f 9/2/1 4/2/1 3/2/1
f 9/3/1 7/3/1 4/3/1
f 9/3/1 8/3/1 7/3/1
f 10/3/1 8/3/1 9/3/1
f 11/3/1 3/3/1 2/3/1
f 11/2/1 9/2/1 3/2/1
f 11/2/1 10/2/1 9/2/1
f 12/2/1 10/2/1 11/2/1
f 13/1/1 2/1/1 1/1/1
f 13/3/1 11/3/1 2/3/1
f 13/3/1 12/3/1 11/3/1
f 14/3/1 12/3/1 13/3/1
f 15/1/1 13/1/1 1/1/1
f 15/1/1 14/1/1 13/1/1
f 16/1/1 14/1/1 15/1/1
f 17/3/1 16/3/1 15/3/1
f 18/3/1 16/3/1 17/3/1
f 19/3/1 8/3/1 10/3/1
f 19/1/1 6/1/1 8/1/1
f 20/1/1 6/1/1 19/1/1
f 21/2/1 10/2/1 12/2/1
f 21/3/1 19/3/1 10/3/1
f 21/3/1 20/3/1 19/3/1
f 22/3/1 20/3/1 21/3/1
f 23/3/1 12/3/1 14/3/1
f 23/2/1 21/2/1 12/2/1
f 23/2/1 22/2/1 21/2/1
f 24/2/1 22/2/1 23/2/1
f 25/1/1 14/1/1 16/1/1
f 25/3/1 23/3/1 14/3/1
f 25/3/1 24/3/1 23/3/1
f 26/3/1 24/3/1 25/3/1
f 27/2/1 22/2/1 24/2/1
f 27/3/1 24/3/1 26/3/1
f 28/2/1 22/2/1 27/2/1
f 29/1/1 26/1/1 25/1/1
f 29/3/1 27/3/1 26/3/1
f 29/3/1 28/3/1 27/3/1
f 30/3/1 28/3/1 29/3/1
f 31/2/1 18/2/1 17/2/1
f 32/3/1 16/3/1 18/3/1
f 32/2/1 18/2/1 31/2/1
f 33/3/1 32/3/1 31/3/1
f 34/1/1 25/1/1 16/1/1
f 34/3/1 32/3/1 33/3/1
f 34/1/1 29/1/1 25/1/1
f 34/3/1 16/3/1 32/3/1
f 34/1/1 30/1/1 29/1/1
f 35/3/1 28/3/1 30/3/1
f 35/2/1 22/2/1 28/2/1
f 36/2/1 22/2/1 35/2/1
f 37/1/1 30/1/1 34/1/1
f 37/1/1 34/1/1 33/1/1
f 37/3/1 36/3/1 35/3/1
f 37/3/1 35/3/1 30/3/1
f 38/3/1 36/3/1 37/3/1
f 39/1/1 37/1/1 33/1/1
f 39/1/1 38/1/1 37/1/1
f 40/1/1 38/1/1 39/1/1
f 41/3/1 40/3/1 39/3/1
f 42/3/1 40/3/1 41/3/1
f 43/1/1 38/1/1 40/1/1
f 43/3/1 40/3/1 42/3/1
f 44/1/1 38/1/1 43/1/1
f 45/2/1 42/2/1 41/2/1
f 45/3/1 43/3/1 42/3/1
f 45/3/1 44/3/1 43/3/1
f 46/3/1 44/3/1 45/3/1
f 47/1/1 39/1/1 33/1/1
f 48/3/1 41/3/1 39/3/1
f 48/1/1 39/1/1 47/1/1
f 49/2/1 45/2/1 41/2/1
f 49/3/1 41/3/1 48/3/1
f 49/2/1 46/2/1 45/2/1
f 50/3/1 44/3/1 46/3/1
f 50/2/1 46/2/1 49/2/1
f 51/1/1 38/1/1 44/1/1
f 51/3/1 44/3/1 50/3/1
f 52/1/1 38/1/1 51/1/1
f 56/3/2 57/3/2 59/3/2
f 57/1/2 58/1/2 59/1/2
f 59/1/2 58/1/2 60/1/2
f 55/2/2 56/2/2 61/2/2
f 56/3/2 59/3/2 61/3/2
f 59/3/2 60/3/2 61/3/2
f 61/3/2 60/3/2 62/3/2
f 54/3/2 55/3/2 63/3/2
f 55/2/2 61/2/2 63/2/2
f 61/2/2 62/2/2 63/2/2
f 63/2/2 62/2/2 64/2/2
f 53/1/2 54/1/2 65/1/2
f 54/3/2 63/3/2 65/3/2
f 63/3/2 64/3/2 65/3/2
f 65/3/2 64/3/2 66/3/2
f 53/1/2 65/1/2 67/1/2
f 65/1/2 66/1/2 67/1/2
f 67/1/2 66/1/2 68/1/2
f 67/3/2 68/3/2 69/3/2
f 69/3/2 68/3/2 70/3/2
f 62/3/2 60/3/2 71/3/2
f 60/1/2 58/1/2 71/1/2
f 71/1/2 58/1/2 72/1/2
f 64/2/2 62/2/2 73/2/2
f 62/3/2 71/3/2 73/3/2
f 71/3/2 72/3/2 73/3/2
f 73/3/2 72/3/2 74/3/2
f 66/3/2 64/3/2 75/3/2
f 64/2/2 73/2/2 75/2/2
f 73/2/2 74/2/2 75/2/2
f 75/2/2 74/2/2 76/2/2
f 68/1/2 66/1/2 77/1/2
f 66/3/2 75/3/2 77/3/2
f 75/3/2 76/3/2 77/3/2
f 77/3/2 76/3/2 78/3/2
f 76/2/2 74/2/2 79/2/2
f 78/3/2 76/3/2 79/3/2
f 79/2/2 74/2/2 80/2/2
f 77/1/2 78/1/2 81/1/2
f 78/3/2 79/3/2 81/3/2
f 79/3/2 80/3/2 81/3/2
f 81/3/2 80/3/2 82/3/2
f 69/2/2 70/2/2 83/2/2
f 70/3/2 68/3/2 84/3/2
f 83/2/2 70/2/2 84/2/2
f 83/3/2 84/3/2 85/3/2
f 68/1/2 77/1/2 86/1/2
f 85/3/2 84/3/2 86/3/2
f 77/1/2 81/1/2 86/1/2
f 84/3/2 68/3/2 86/3/2
f 81/1/2 82/1/2 86/1/2
f 82/3/2 80/3/2 87/3/2
f 80/2/2 74/2/2 87/2/2
f 87/2/2 74/2/2 88/2/2
f 86/1/2 82/1/2 89/1/2
f 85/1/2 86/1/2 89/1/2
f 87/3/2 88/3/2 89/3/2
f 82/3/2 87/3/2 89/3/2
f 89/3/2 88/3/2 90/3/2
f 85/1/2 89/1/2 91/1/2
f 89/1/2 90/1/2 91/1/2
f 91/1/2 90/1/2 92/1/2
f 91/3/2 92/3/2 93/3/2
f 93/3/2 92/3/2 94/3/2
f 92/1/2 90/1/2 95/1/2
f 94/3/2 92/3/2 95/3/2
f 95/1/2 90/1/2 96/1/2
f 93/2/2 94/2/2 97/2/2
f 94/3/2 95/3/2 97/3/2
f 95/3/2 96/3/2 97/3/2
f 97/3/2 96/3/2 98/3/2
f 85/1/2 91/1/2 99/1/2
f 91/3/2 93/3/2 100/3/2
f 99/1/2 91/1/2 100/1/2
f 93/2/2 97/2/2 101/2/2
f 100/3/2 93/3/2 101/3/2
f 97/2/2 98/2/2 101/2/2
f 98/3/2 96/3/2 102/3/2
f 101/2/2 98/2/2 102/2/2
f 96/1/2 90/1/2 103/1/2
f 102/3/2 96/3/2 103/3/2
f 103/1/2 90/1/2 104/1/2
f 111/1/3 106/1/3 105/1/3
f 112/3/3 107/3/3 106/3/3
f 112/1/3 106/1/3 111/1/3
f 113/2/3 108/2/3 107/2/3
f 113/3/3 107/3/3 112/3/3
f 114/3/3 109/3/3 108/3/3
f 114/2/3 108/2/3 113/2/3
f 115/1/3 110/1/3 109/1/3
f 115/3/3 109/3/3 114/3/3
f 116/1/3 110/1/3 115/1/3
f 117/1/4 118/1/4 123/1/4
f 118/3/4 119/3/4 124/3/4
f 123/1/4 118/1/4 124/1/4
f 119/2/4 120/2/4 125/2/4
f 124/3/4 119/3/4 125/3/4
f 120/3/4 121/3/4 126/3/4
f 125/2/4 120/2/4 126/2/4
f 121/1/4 122/1/4 127/1/4
f 126/3/4 121/3/4 127/3/4
f 127/1/4 122/1/4 128/1/4
f 131/1/5 130/1/5 129/1/5
f 132/1/5 130/1/5 131/1/5
f 133/3/5 132/3/5 131/3/5
f 134/3/5 132/3/5 133/3/5
f 135/2/5 134/2/5 133/2/5
f 136/2/5 134/2/5 135/2/5
f 137/3/5 136/3/5 135/3/5
f 138/3/5 136/3/5 137/3/5
f 139/1/5 138/1/5 137/1/5
f 140/1/5 138/1/5 139/1/5
f 141/1/6 142/1/6 143/1/6
f 143/1/6 142/1/6 144/1/6
f 143/3/6 144/3/6 145/3/6
f 145/3/6 144/3/6 146/3/6
f 145/2/6 146/2/6 147/2/6
f 147/2/6 146/2/6 148/2/6
f 147/3/6 148/3/6 149/3/6
f 149/3/6 148/3/6 150/3/6
f 149/1/6 150/1/6 151/1/6
f 151/1/6 150/1/6 152/1/6
