# MagicaVoxel @ Ephtracy

# group
o 

# material
mtllib boss1.mtl
usemtl palette

# normals
vn -1 0 0
vn 1 0 0
vn 0 0 1
vn 0 0 -1
vn 0 -1 0
vn 0 1 0

# texcoords
vt 0.0683594 0.5
vt 0.841797 0.5
vt 0.970703 0.5
vt 0.974609 0.5
vt 0.978516 0.5
vt 0.982422 0.5
vt 0.986328 0.5
vt 0.994141 0.5

# verts
v -4 3.2 0.8
v -4 3.2 -4
v -4 3.6 1.2
v -4 3.6 0.8
v -4 3.9 1.2
v -4 3.9 -3.5
v -4 4 1.6
v -4 4 1.2
v -4 4.4 1.6
v -4 4.4 -3.5
v -4 4.7 1.6
v -4 4.7 -3.6
v -4 5.6 1.6
v -4 5.6 1.2
v -4 6 1.2
v -4 6 0.8
v -4 6.4 0.8
v -4 6.4 -3.6
v -4 6.4 -4
v -3.6 2.4 0.8
v -3.6 2.4 -4
v -3.6 2.8 1.6
v -3.6 2.8 1.2
v -3.6 2.8 1.1
v -3.6 2.8 0.8
v -3.6 3.2 2
v -3.6 3.2 1.6
v -3.6 3.2 0.8
v -3.6 3.2 -4
v -3.6 3.6 1.2
v -3.6 3.6 1.1
v -3.6 3.6 0.8
v -3.6 3.9 2
v -3.6 3.9 1.2
v -3.6 4 2.4
v -3.6 4 2
v -3.6 4 1.6
v -3.6 4 1.2
v -3.6 4.4 2.4
v -3.6 4.4 1.6
v -3.6 4.7 2.4
v -3.6 4.7 1.6
v -3.6 5.6 2.4
v -3.6 5.6 2
v -3.6 5.6 1.6
v -3.6 5.6 1.2
v -3.6 6 1.2
v -3.6 6 0.8
v -3.6 6.4 2
v -3.6 6.4 1.6
v -3.6 6.4 0.8
v -3.6 6.4 -3.6
v -3.6 6.4 -4
v -3.6 6.8 1.6
v -3.6 6.8 0.8
v -3.6 7.2 0.8
v -3.6 7.2 -4
v -3.2 2 1.2
v -3.2 2 1.1
v -3.2 2 -4
v -3.2 2.4 2
v -3.2 2.4 1.2
v -3.2 2.4 0.8
v -3.2 2.4 -4
v -3.2 2.8 2.4
v -3.2 2.8 2
v -3.2 2.8 1.6
v -3.2 2.8 1.2
v -3.2 2.8 1.1
v -3.2 2.8 0.8
v -3.2 3 2.4
v -3.2 3 2.3
v -3.2 3.2 2
v -3.2 3.2 1.6
v -3.2 3.3 2.4
v -3.2 3.3 2.3
v -3.2 3.6 2.8
v -3.2 3.6 2.4
v -3.2 3.7 2.8
v -3.2 3.7 2.7
v -3.2 3.9 2.7
v -3.2 3.9 2
v -3.2 4 2.4
v -3.2 4 2
v -3.2 4.4 2.8
v -3.2 4.4 2.4
v -3.2 4.8 2.8
v -3.2 4.8 2.4
v -3.2 5.1 2.8
v -3.2 5.1 2.4
v -3.2 5.6 2.4
v -3.2 5.6 2.3
v -3.2 5.6 2
v -3.2 6 2.8
v -3.2 6 2.4
v -3.2 6.1 2.3
v -3.2 6.1 2
v -3.2 6.4 2
v -3.2 6.4 1.9
v -3.2 6.4 1.6
v -3.2 6.5 2.4
v -3.2 6.5 2.3
v -3.2 6.6 2.4
v -3.2 6.6 1.9
v -3.2 6.8 2.4
v -3.2 6.8 2
v -3.2 6.8 1.6
v -3.2 6.8 0.8
v -3.2 7.2 2
v -3.2 7.2 1.2
v -3.2 7.2 0.8
v -3.2 7.2 -2
v -3.2 7.2 -3.8
v -3.2 7.2 -4
v -3.2 7.4 -2
v -3.2 7.4 -3.8
v -3.2 7.5 -2
v -3.2 7.5 -2.9
v -3.2 7.6 1.2
v -3.2 7.6 -2.9
v -3.2 7.6 -4
v -2.8 1.6 1.2
v -2.8 1.6 1.1
v -2.8 1.6 -4
v -2.8 2 2
v -2.8 2 1.2
v -2.8 2 1.1
v -2.8 2 -4
v -2.8 2.4 2.4
v -2.8 2.4 2
v -2.8 2.4 1.2
v -2.8 2.8 2.8
v -2.8 2.8 2.4
v -2.8 2.8 2
v -2.8 3 2.8
v -2.8 3 2.4
v -2.8 3.3 2.8
v -2.8 3.3 2.4
v -2.8 3.6 3.2
v -2.8 3.6 3.1
v -2.8 3.6 2.8
v -2.8 3.6 2.4
v -2.8 3.7 3.2
v -2.8 3.7 3.1
v -2.8 3.7 2.8
v -2.8 4.4 3.2
v -2.8 4.4 3.1
v -2.8 4.4 2.8
v -2.8 4.5 3.1
v -2.8 4.5 2.8
v -2.8 4.6 3.2
v -2.8 4.6 3.1
v -2.8 4.8 3.2
v -2.8 4.8 2.8
v -2.8 5.1 3.2
v -2.8 5.1 2.8
v -2.8 6 3.2
v -2.8 6 2.8
v -2.8 6 2.4
v -2.8 6.5 2.8
v -2.8 6.5 2.4
v -2.8 6.8 2.8
v -2.8 6.8 2.4
v -2.8 6.8 2
v -2.8 7.2 2.4
v -2.8 7.2 2
v -2.8 7.2 1.2
v -2.8 7.6 2
v -2.8 7.6 1.2
v -2.8 7.6 -0.7
v -2.8 7.6 -2.9
v -2.8 7.6 -4
v -2.8 8 1.2
v -2.8 8 -2.9
v -2.8 8 -4
v -2.4 1.2 0.8
v -2.4 1.2 -4
v -2.4 1.6 2
v -2.4 1.6 1.9
v -2.4 1.6 1.2
v -2.4 1.6 0.8
v -2.4 1.6 -4
v -2.4 2 2.4
v -2.4 2 2
v -2.4 2 1.9
v -2.4 2 1.2
v -2.4 2.4 2.8
v -2.4 2.4 2.4
v -2.4 2.4 2
v -2.4 2.8 3.2
v -2.4 2.8 2.8
v -2.4 2.8 2.4
v -2.4 3.6 3.2
v -2.4 3.6 2.8
v -2.4 4 3.6
v -2.4 4 3.2
v -2.4 4.4 3.6
v -2.4 4.4 3.2
v -2.4 4.6 3.6
v -2.4 4.6 3.2
v -2.4 4.8 3.6
v -2.4 4.8 3.2
v -2.4 5.1 3.2
v -2.4 5.6 3.6
v -2.4 5.6 3.2
v -2.4 6 3.2
v -2.4 6 2.8
v -2.4 6.5 3.2
v -2.4 6.5 2.8
v -2.4 6.8 3.2
v -2.4 6.8 2.8
v -2.4 6.8 2.4
v -2.4 7.2 2.8
v -2.4 7.2 2.4
v -2.4 7.2 2
v -2.4 7.6 2.4
v -2.4 7.6 2
v -2.4 7.6 1.2
v -2.4 8 2
v -2.4 8 1.2
v -2.4 8 0.8
v -2.4 8 -2.9
v -2.4 8 -4
v -2.4 8.4 0.8
v -2.4 8.4 -2.9
v -2.4 8.4 -4
v -2 1.2 1.6
v -2 1.2 1.2
v -2 1.2 1.1
v -2 1.2 0.8
v -2 1.6 2.4
v -2 1.6 2
v -2 1.6 1.6
v -2 1.6 1.2
v -2 1.6 1.1
v -2 1.6 0.8
v -2 2 2.8
v -2 2 2.4
v -2 2 2
v -2 2.4 3.2
v -2 2.4 2.8
v -2 2.4 2.4
v -2 2.8 3.2
v -2 2.8 2.8
v -2 3.2 3.6
v -2 3.2 3.2
v -2 3.7 3.6
v -2 3.7 3.2
v -2 4 3.6
v -2 4 3.2
v -2 5.6 3.6
v -2 5.6 3.2
v -2 6.3 3.4
v -2 6.3 3.2
v -2 6.4 3.6
v -2 6.4 3.4
v -2 6.4 3.2
v -2 6.8 3.2
v -2 6.8 2.8
v -2 7.2 3.2
v -2 7.2 2.8
v -2 7.2 2.4
v -2 7.3 2.8
v -2 7.3 2.4
v -2 7.6 2.8
v -2 7.6 2.4
v -2 7.6 2
v -2 8 2.4
v -2 8 2
v -2 8 1.6
v -2 8 0.8
v -2 8.4 1.6
v -2 8.4 0.8
v -1.6 0.8 0.8
v -1.6 0.8 -4
v -1.6 1.2 2
v -1.6 1.2 1.6
v -1.6 1.2 0.8
v -1.6 1.2 -4
v -1.6 1.3 2
v -1.6 1.3 1.9
v -1.6 1.6 2
v -1.6 1.6 1.9
v -1.6 1.6 1.6
v -1.6 2.8 3.6
v -1.6 2.8 3.2
v -1.6 3.2 3.6
v -1.6 3.2 3.2
v -1.6 4 4
v -1.6 4 3.6
v -1.6 4.4 4
v -1.6 4.4 3.6
v -1.6 4.6 3.6
v -1.6 5 4
v -1.6 5 3.6
v -1.6 5.2 4
v -1.6 5.2 3.6
v -1.6 5.4 4
v -1.6 5.4 3.6
v -1.6 5.6 4
v -1.6 5.6 3.6
v -1.6 6.4 3.6
v -1.6 6.4 3.4
v -1.6 6.4 3.2
v -1.6 6.8 3.6
v -1.6 6.8 3.4
v -1.6 6.8 3.2
v -1.6 8 2
v -1.6 8 1.9
v -1.6 8 1.6
v -1.6 8.4 2
v -1.6 8.4 1.9
v -1.6 8.4 1.6
v -1.6 8.4 0.8
v -1.6 8.4 0
v -1.6 8.4 -4
v -1.6 8.8 0.8
v -1.6 8.8 -4
v -1.5 5.7 4
v -1.5 5.7 3.6
v -1.5 5.8 3.6
v -1.5 6.8 4
v -1.5 6.8 3.6
v -1.4 5.6 4
v -1.4 5.6 3.6
v -1.4 5.7 4
v -1.4 5.7 3.6
v -1.4 6.8 4
v -1.4 6.8 3.4
v -1.4 6.8 3.2
v -1.4 6.9 4
v -1.4 6.9 3.4
v -1.4 6.9 3.2
v -1.2 0.8 1.2
v -1.2 0.8 0.8
v -1.2 0.9 1.2
v -1.2 0.9 1.1
v -1.2 1.2 1.2
v -1.2 1.2 1.1
v -1.2 1.2 0.8
v -1.2 1.6 2.8
v -1.2 1.6 2.4
v -1.2 1.7 2.8
v -1.2 1.7 2.7
v -1.2 2 3.2
v -1.2 2 2.8
v -1.2 2 2.7
v -1.2 2 2.4
v -1.2 2.1 2.8
v -1.2 2.4 3.2
v -1.2 2.4 2.8
v -1.2 3.6 4
v -1.2 3.6 3.6
v -1.2 3.9 3.6
v -1.2 4 4
v -1.2 4 3.6
v -1.2 7.2 3.2
v -1.2 7.2 2.8
v -1.2 7.3 3.2
v -1.2 7.3 2.8
v -1.2 7.6 3.2
v -1.2 7.6 2.8
v -1.2 7.6 2.4
v -1.2 8 2.8
v -1.2 8 2.4
v -1.2 8.4 1.2
v -1.2 8.4 0.8
v -1.2 8.8 1.2
v -1.2 8.8 0.8
v -0.9 3.3 4
v -0.9 3.3 3.6
v -0.9 3.6 4
v -0.9 3.6 3.6
v -0.8 0.8 1.6
v -0.8 0.8 1.2
v -0.8 1.2 2.4
v -0.8 1.2 2
v -0.8 1.2 1.6
v -0.8 1.2 1.2
v -0.8 1.6 2.4
v -0.8 1.6 2
v -0.8 2.4 3.6
v -0.8 2.4 3.2
v -0.8 2.8 3.6
v -0.8 2.8 3.2
v -0.8 3.2 4
v -0.8 3.2 3.6
v -0.8 3.3 4
v -0.8 3.3 3.6
v -0.8 6.9 3.6
v -0.8 6.9 3.2
v -0.8 7.2 3.6
v -0.8 7.2 3.2
v -0.8 8 2.4
v -0.8 8 2
v -0.8 8.4 2.4
v -0.8 8.4 2
v -0.8 8.4 1.6
v -0.8 8.4 1.2
v -0.8 8.8 1.6
v -0.8 8.8 1.2
v -0.5 5.7 4
v -0.5 5.7 3.9
v -0.5 6.8 4
v -0.5 6.8 3.9
v 0.4 6.4 4
v 0.4 6.4 3.6
v 0.4 6.8 4
v 0.4 6.8 3.6
v 0.5 6.8 4
v 0.5 6.8 3.6
v 0.5 6.9 4
v 0.5 6.9 3.6
v 0.7 2.8 3.6
v 0.7 2.8 3.5
v 0.7 2.8 2.6
v 0.7 3.2 4
v 0.7 3.2 3.6
v 0.7 3.3 3.9
v 0.7 3.3 3.5
v 0.7 4.5 4
v 0.7 4.5 3.9
v 0.7 4.5 2.6
v 1.4 5.7 4
v 1.4 5.7 3.9
v 1.4 6.8 4
v 1.4 6.8 3.9
v -1.4 5.7 4
v -1.4 5.7 3.9
v -1.4 6.8 4
v -1.4 6.8 3.9
v -0.7 2.8 3.6
v -0.7 2.8 3.5
v -0.7 2.8 2.6
v -0.7 3.2 4
v -0.7 3.2 3.6
v -0.7 3.3 3.9
v -0.7 3.3 3.5
v -0.7 4.5 4
v -0.7 4.5 3.9
v -0.7 4.5 2.6
v -0.5 6.8 4
v -0.5 6.8 3.6
v -0.5 6.9 4
v -0.5 6.9 3.6
v -0.4 6.4 4
v -0.4 6.4 3.6
v -0.4 6.8 4
v -0.4 6.8 3.6
v 0.5 5.7 4
v 0.5 5.7 3.9
v 0.5 6.8 4
v 0.5 6.8 3.9
v 0.8 0.8 1.6
v 0.8 0.8 1.2
v 0.8 1.2 2.4
v 0.8 1.2 2
v 0.8 1.2 1.6
v 0.8 1.2 1.2
v 0.8 1.4 2.4
v 0.8 1.4 2
v 0.8 1.6 2.4
v 0.8 1.6 2
v 0.8 2.4 3.6
v 0.8 2.4 3.2
v 0.8 2.8 3.6
v 0.8 2.8 3.2
v 0.8 3.2 4
v 0.8 3.2 3.6
v 0.8 3.3 4
v 0.8 3.3 3.6
v 0.8 6.9 3.6
v 0.8 6.9 3.2
v 0.8 7.2 3.6
v 0.8 7.2 3.2
v 0.8 8 2.4
v 0.8 8 2
v 0.8 8.4 2.4
v 0.8 8.4 2
v 0.8 8.4 1.6
v 0.8 8.4 1.2
v 0.8 8.8 1.6
v 0.8 8.8 1.2
v 0.9 3.3 4
v 0.9 3.3 3.6
v 0.9 3.4 3.6
v 0.9 3.6 4
v 0.9 3.6 3.6
v 1.2 0.8 1.2
v 1.2 0.8 0.8
v 1.2 1.2 1.2
v 1.2 1.2 0.8
v 1.2 1.6 2.8
v 1.2 1.6 2.4
v 1.2 2 3.2
v 1.2 2 2.8
v 1.2 2 2.4
v 1.2 2.3 3.2
v 1.2 2.3 2.8
v 1.2 2.4 3.2
v 1.2 2.4 2.8
v 1.2 3.6 4
v 1.2 3.6 3.6
v 1.2 4 4
v 1.2 4 3.6
v 1.2 7.2 3.2
v 1.2 7.2 2.8
v 1.2 7.6 3.2
v 1.2 7.6 2.8
v 1.2 7.6 2.4
v 1.2 7.7 2.8
v 1.2 7.7 2.4
v 1.2 8 2.8
v 1.2 8 2.4
v 1.2 8.4 1.2
v 1.2 8.4 0.8
v 1.2 8.8 1.2
v 1.2 8.8 0.8
v 1.4 5.6 4
v 1.4 5.6 3.6
v 1.4 5.7 4
v 1.4 5.7 3.6
v 1.4 6.8 4
v 1.4 6.8 3.4
v 1.4 6.8 3.2
v 1.4 6.9 4
v 1.4 6.9 3.4
v 1.4 6.9 3.2
v 1.5 5.7 4
v 1.5 5.7 3.6
v 1.5 6.3 3.6
v 1.5 6.8 4
v 1.5 6.8 3.6
v 1.6 0.8 0.8
v 1.6 0.8 -4
v 1.6 1.2 2
v 1.6 1.2 1.6
v 1.6 1.2 0.8
v 1.6 1.2 -4
v 1.6 1.4 2
v 1.6 1.4 1.6
v 1.6 1.6 2
v 1.6 1.6 1.6
v 1.6 2.8 3.6
v 1.6 2.8 3.2
v 1.6 3.2 3.6
v 1.6 3.2 3.2
v 1.6 4 4
v 1.6 4 3.6
v 1.6 4.5 4
v 1.6 4.5 3.6
v 1.6 4.6 3.6
v 1.6 5 4
v 1.6 5 3.6
v 1.6 5.3 4
v 1.6 5.3 3.6
v 1.6 5.6 4
v 1.6 5.6 3.6
v 1.6 6.4 3.6
v 1.6 6.4 3.2
v 1.6 6.8 3.6
v 1.6 6.8 3.2
v 1.6 8 2
v 1.6 8 1.9
v 1.6 8 1.6
v 1.6 8.1 2
v 1.6 8.1 1.9
v 1.6 8.4 2
v 1.6 8.4 1.9
v 1.6 8.4 1.6
v 1.6 8.4 0.8
v 1.6 8.4 0
v 1.6 8.4 -0.2
v 1.6 8.4 -4
v 1.6 8.8 0.8
v 1.6 8.8 -0.2
v 1.6 8.8 -4
v 2 1.2 1.6
v 2 1.2 0.8
v 2 1.6 2.4
v 2 1.6 2
v 2 1.6 1.6
v 2 1.6 0.8
v 2 2 2.8
v 2 2 2.4
v 2 2 2
v 2 2.2 2.8
v 2 2.2 2.4
v 2 2.4 3.2
v 2 2.4 2.8
v 2 2.4 2.4
v 2 2.8 3.2
v 2 2.8 2.8
v 2 3.2 3.6
v 2 3.2 3.2
v 2 3.7 3.6
v 2 3.7 3.2
v 2 4 3.6
v 2 4 3.2
v 2 5.6 3.6
v 2 5.6 3.2
v 2 6.4 3.6
v 2 6.4 3.2
v 2 6.8 3.2
v 2 6.8 2.8
v 2 7.2 3.2
v 2 7.2 2.8
v 2 7.2 2.4
v 2 7.6 2.8
v 2 7.6 2.4
v 2 7.6 2
v 2 8 2.4
v 2 8 2
v 2 8 1.6
v 2 8 0.8
v 2 8.4 1.6
v 2 8.4 0.8
v 2.4 1.2 0.8
v 2.4 1.2 -4
v 2.4 1.6 2
v 2.4 1.6 1.2
v 2.4 1.6 0.8
v 2.4 1.6 -4
v 2.4 2 2.4
v 2.4 2 2
v 2.4 2 1.2
v 2.4 2.2 2.4
v 2.4 2.2 2
v 2.4 2.4 2.8
v 2.4 2.4 2.4
v 2.4 2.4 2
v 2.4 2.8 3.2
v 2.4 2.8 2.8
v 2.4 2.8 2.4
v 2.4 3.2 3.2
v 2.4 3.2 2.8
v 2.4 3.6 3.2
v 2.4 3.6 2.8
v 2.4 4 3.6
v 2.4 4 3.2
v 2.4 4.6 3.6
v 2.4 4.6 3.2
v 2.4 5 3.6
v 2.4 5 3.2
v 2.4 5.3 3.6
v 2.4 5.3 3.2
v 2.4 5.4 3.2
v 2.4 5.6 3.6
v 2.4 5.6 3.2
v 2.4 6 3.2
v 2.4 6 3.1
v 2.4 6 2.8
v 2.4 6.8 3.2
v 2.4 6.8 3.1
v 2.4 6.8 2.8
v 2.4 6.8 2.4
v 2.4 7.2 2.8
v 2.4 7.2 2.4
v 2.4 7.2 2
v 2.4 7.6 2.4
v 2.4 7.6 2
v 2.4 7.6 1.9
v 2.4 7.6 1.2
v 2.4 8 2
v 2.4 8 1.9
v 2.4 8 1.2
v 2.4 8 0.8
v 2.4 8 0
v 2.4 8 -0.2
v 2.4 8 -4
v 2.4 8.4 0.8
v 2.4 8.4 0
v 2.4 8.4 -0.2
v 2.4 8.4 -4
v 2.8 1.6 1.2
v 2.8 1.6 -4
v 2.8 2 2
v 2.8 2 1.2
v 2.8 2 -4
v 2.8 2.4 2.4
v 2.8 2.4 2
v 2.8 2.4 1.2
v 2.8 2.8 2.8
v 2.8 2.8 2.4
v 2.8 2.8 2
v 2.8 3.2 2.8
v 2.8 3.2 2.4
v 2.8 3.4 2.8
v 2.8 3.4 2.4
v 2.8 3.6 3.2
v 2.8 3.6 3.1
v 2.8 3.6 2.8
v 2.8 3.6 2.4
v 2.8 5 2.8
v 2.8 5.4 3.2
v 2.8 5.4 3.1
v 2.8 6 3.2
v 2.8 6 2.8
v 2.8 6 2.5
v 2.8 6 2.4
v 2.8 6.8 2.8
v 2.8 6.8 2.4
v 2.8 6.8 2
v 2.8 7.2 2.4
v 2.8 7.2 2
v 2.8 7.2 1.9
v 2.8 7.2 1.2
v 2.8 7.6 2
v 2.8 7.6 1.9
v 2.8 7.6 1.2
v 2.8 7.6 0
v 2.8 7.6 -0.2
v 2.8 7.6 -3.8
v 2.8 7.6 -4
v 2.8 7.7 -3.8
v 2.8 7.7 -4
v 2.8 8 1.2
v 2.8 8 0
v 2.8 8 -0.2
v 2.8 8 -4
v 3.2 2 1.2
v 3.2 2 -4
v 3.2 2.4 2
v 3.2 2.4 1.2
v 3.2 2.4 0.8
v 3.2 2.4 -0.5
v 3.2 2.4 -4
v 3.2 2.8 2.4
v 3.2 2.8 2
v 3.2 2.8 1.6
v 3.2 2.8 0.8
v 3.2 3.2 2.4
v 3.2 3.2 2
v 3.2 3.2 1.6
v 3.2 3.4 2.4
v 3.2 3.4 2
v 3.2 3.6 2.8
v 3.2 3.6 2.4
v 3.2 4 2.4
v 3.2 4 2
v 3.2 5 2.8
v 3.2 5 2.4
v 3.2 5.1 2.5
v 3.2 5.1 2.4
v 3.2 5.6 2.4
v 3.2 5.6 2
v 3.2 6 2.8
v 3.2 6 2.5
v 3.2 6 2.4
v 3.2 6.4 2
v 3.2 6.4 1.6
v 3.2 6.8 2.4
v 3.2 6.8 2
v 3.2 6.8 1.6
v 3.2 6.8 1.5
v 3.2 6.8 0.8
v 3.2 7.1 1.9
v 3.2 7.1 1.5
v 3.2 7.1 0.8
v 3.2 7.2 2
v 3.2 7.2 1.9
v 3.2 7.2 1.2
v 3.2 7.2 0.8
v 3.2 7.2 0
v 3.2 7.2 -0.2
v 3.2 7.2 -3.8
v 3.2 7.2 -4
v 3.2 7.6 1.2
v 3.2 7.6 0
v 3.2 7.6 -0.2
v 3.2 7.6 -3.8
v 3.2 7.6 -4
v 3.6 2.4 0.8
v 3.6 2.4 -0.5
v 3.6 2.4 -4
v 3.6 2.8 1.6
v 3.6 2.8 0.8
v 3.6 3.2 2
v 3.6 3.2 1.6
v 3.6 3.2 0.8
v 3.6 3.2 -0.5
v 3.6 3.2 -0.9
v 3.6 3.2 -3.8
v 3.6 3.2 -4
v 3.6 3.4 2
v 3.6 3.4 1.9
v 3.6 3.6 1.2
v 3.6 3.6 0.8
v 3.6 4 2.4
v 3.6 4 2
v 3.6 4 1.6
v 3.6 4 1.2
v 3.6 5 1.9
v 3.6 5 1.6
v 3.6 5.6 2.4
v 3.6 5.6 2
v 3.6 5.6 1.6
v 3.6 5.6 1.5
v 3.6 5.6 1.2
v 3.6 6 1.2
v 3.6 6 0.8
v 3.6 6.4 2
v 3.6 6.4 1.6
v 3.6 6.4 0.8
v 3.6 6.4 -0.9
v 3.6 6.4 -3.8
v 3.6 6.4 -4
v 3.6 6.8 1.6
v 3.6 6.8 1.5
v 3.6 6.8 0.8
v 3.6 7.2 0.8
v 3.6 7.2 -0.9
v 3.6 7.2 -3.8
v 3.6 7.2 -4
v 4 3.2 0.8
v 4 3.2 -0.9
v 4 3.2 -3.8
v 4 3.2 -4
v 4 3.6 1.2
v 4 3.6 0.8
v 4 4 1.6
v 4 4 1.2
v 4 5 1.6
v 4 5 1.5
v 4 5.6 1.6
v 4 5.6 1.5
v 4 5.6 1.2
v 4 6 1.2
v 4 6 0.8
v 4 6.4 0.8
v 4 6.4 -0.9
v 4 6.4 -3.8
v 4 6.4 -4
v -1.6 4 4
v -1.6 4.4 4
v -1.6 5 4
v -1.6 5.2 4
v -1.6 5.4 4
v -1.6 5.6 4
v -1.5 5.7 4
v -1.5 6.8 4
v -1.4 5.6 4
v -1.4 5.7 4
v -1.4 6.8 4
v -1.4 6.9 4
v -1.2 3.6 4
v -1.2 4 4
v -1.1 4.4 4
v -1.1 4.7 4
v -0.9 3.3 4
v -0.9 3.6 4
v -0.8 3.2 4
v -0.8 3.3 4
v -0.8 4.5 4
v -0.7 3.2 4
v -0.7 4.5 4
v -0.7 4.6 4
v -0.5 5.6 4
v -0.5 5.7 4
v -0.5 6.8 4
v -0.5 6.9 4
v -0.4 5.7 4
v -0.4 6 4
v -0.4 6.3 4
v -0.4 6.4 4
v -0.4 6.8 4
v -0.2 5.4 4
v -0.2 5.7 4
v -0.0999999 4.7 4
v -0.0999999 4.9 4
v -0.0999999 5 4
v -0.0999999 5.2 4
v -0.0999999 5.3 4
v 0 6 4
v 0 6.3 4
v 0.1 4.7 4
v 0.1 4.9 4
v 0.2 5 4
v 0.2 5.3 4
v 0.3 5.3 4
v 0.3 5.7 4
v 0.4 5.7 4
v 0.4 6.4 4
v 0.4 6.8 4
v 0.5 5.6 4
v 0.5 5.7 4
v 0.5 6.8 4
v 0.5 6.9 4
v 0.7 3.2 4
v 0.7 4.5 4
v 0.7 4.6 4
v 0.8 3.2 4
v 0.8 3.3 4
v 0.8 4.5 4
v 0.9 3.3 4
v 0.9 3.6 4
v 1 5.1 4
v 1 5.3 4
v 1 5.6 4
v 1.1 3.6 4
v 1.1 4.7 4
v 1.2 3.6 4
v 1.2 4 4
v 1.2 5.1 4
v 1.2 5.3 4
v 1.2 5.6 4
v 1.4 5.6 4
v 1.4 5.7 4
v 1.4 6.8 4
v 1.4 6.9 4
v 1.5 4 4
v 1.5 4.5 4
v 1.5 5.7 4
v 1.5 6.8 4
v 1.6 4 4
v 1.6 4.5 4
v 1.6 5 4
v 1.6 5.3 4
v 1.6 5.6 4
v -1.4 5.7 3.9
v -1.4 6.8 3.9
v -0.5 5.7 3.9
v -0.5 6.8 3.9
v 0.5 5.7 3.9
v 0.5 6.8 3.9
v 1.4 5.7 3.9
v 1.4 6.8 3.9
v -2.4 4 3.6
v -2.4 4.4 3.6
v -2.4 4.6 3.6
v -2.4 4.8 3.6
v -2.4 5.6 3.6
v -2.3 4 3.6
v -2.3 4.4 3.6
v -2.2 4.7 3.6
v -2.2 4.8 3.6
v -2.2 5 3.6
v -2.2 5.2 3.6
v -2.1 4.6 3.6
v -2.1 4.7 3.6
v -2.1 5 3.6
v -2.1 5.2 3.6
v -2.1 5.3 3.6
v -2 3.2 3.6
v -2 3.7 3.6
v -2 4 3.6
v -2 5.6 3.6
v -2 6.4 3.6
v -1.9 5.3 3.6
v -1.9 5.8 3.6
v -1.8 5.4 3.6
v -1.8 5.8 3.6
v -1.7 4.6 3.6
v -1.7 5 3.6
v -1.7 5.2 3.6
v -1.7 5.3 3.6
v -1.6 2.8 3.6
v -1.6 3.2 3.6
v -1.6 3.7 3.6
v -1.6 4 3.6
v -1.6 4.4 3.6
v -1.6 4.6 3.6
v -1.6 5 3.6
v -1.6 5.2 3.6
v -1.6 5.4 3.6
v -1.6 5.6 3.6
v -1.6 6.4 3.6
v -1.6 6.8 3.6
v -1.5 2.8 3.6
v -1.5 3.2 3.6
v -1.5 3.9 3.6
v -1.5 4 3.6
v -1.5 5.7 3.6
v -1.5 5.8 3.6
v -1.5 6.8 3.6
v -1.4 5.6 3.6
v -1.4 5.7 3.6
v -1.2 2.8 3.6
v -1.2 3.6 3.6
v -1.2 3.9 3.6
v -1.2 4 3.6
v -0.9 2.8 3.6
v -0.9 3.3 3.6
v -0.9 3.6 3.6
v -0.8 2.4 3.6
v -0.8 2.8 3.6
v -0.8 3.2 3.6
v -0.8 3.3 3.6
v -0.8 6.9 3.6
v -0.8 7.2 3.6
v -0.7 2.7 3.6
v -0.7 2.8 3.6
v -0.7 3.2 3.6
v -0.5 6.8 3.6
v -0.5 6.9 3.6
v -0.4 6.4 3.6
v -0.4 6.8 3.6
v -0.2 2.4 3.6
v -0.2 2.7 3.6
v 0.4 2.6 3.6
v 0.4 2.7 3.6
v 0.4 6.4 3.6
v 0.4 6.8 3.6
v 0.5 6.8 3.6
v 0.5 6.9 3.6
v 0.6 2.4 3.6
v 0.6 2.6 3.6
v 0.7 2.7 3.6
v 0.7 2.8 3.6
v 0.7 3.2 3.6
v 0.8 2.4 3.6
v 0.8 2.8 3.6
v 0.8 3.2 3.6
v 0.8 3.3 3.6
v 0.8 6.9 3.6
v 0.8 7.2 3.6
v 0.9 2.8 3.6
v 0.9 3.3 3.6
v 0.9 3.4 3.6
v 0.9 3.6 3.6
v 1.1 3.4 3.6
v 1.1 3.6 3.6
v 1.2 3.6 3.6
v 1.2 4 3.6
v 1.4 3.7 3.6
v 1.4 4 3.6
v 1.4 5.6 3.6
v 1.4 5.7 3.6
v 1.5 2.8 3.6
v 1.5 3.4 3.6
v 1.5 3.7 3.6
v 1.5 4 3.6
v 1.5 5.7 3.6
v 1.5 6.3 3.6
v 1.5 6.8 3.6
v 1.6 2.8 3.6
v 1.6 3.2 3.6
v 1.6 4 3.6
v 1.6 4.5 3.6
v 1.6 4.6 3.6
v 1.6 5 3.6
v 1.6 5.3 3.6
v 1.6 5.6 3.6
v 1.6 6.4 3.6
v 1.6 6.8 3.6
v 1.7 6.3 3.6
v 1.7 6.4 3.6
v 2 3.2 3.6
v 2 3.7 3.6
v 2 4 3.6
v 2 5.6 3.6
v 2 6.4 3.6
v 2.1 4.6 3.6
v 2.1 5 3.6
v 2.1 5.4 3.6
v 2.1 5.6 3.6
v 2.2 5.3 3.6
v 2.2 5.4 3.6
v 2.4 4 3.6
v 2.4 4.6 3.6
v 2.4 5 3.6
v 2.4 5.3 3.6
v 2.4 5.6 3.6
v -2.8 3.6 3.2
v -2.8 3.7 3.2
v -2.8 4.4 3.2
v -2.8 4.6 3.2
v -2.8 4.8 3.2
v -2.8 5.1 3.2
v -2.8 6 3.2
v -2.7 3.6 3.2
v -2.7 3.7 3.2
v -2.7 4.4 3.2
v -2.7 4.6 3.2
v -2.4 2.8 3.2
v -2.4 3.6 3.2
v -2.4 4 3.2
v -2.4 4.4 3.2
v -2.4 4.6 3.2
v -2.4 4.8 3.2
v -2.4 5.1 3.2
v -2.4 5.6 3.2
v -2.4 6 3.2
v -2.4 6.5 3.2
v -2.4 6.8 3.2
v -2.3 4 3.2
v -2.2 5.6 3.2
v -2.2 6.5 3.2
v -2 2.4 3.2
v -2 2.8 3.2
v -2 3.2 3.2
v -2 3.7 3.2
v -2 4 3.2
v -2 5.6 3.2
v -2 6.3 3.2
v -2 6.4 3.2
v -2 6.8 3.2
v -2 7.2 3.2
v -1.6 2.8 3.2
v -1.6 3.2 3.2
v -1.6 6.4 3.2
v -1.6 6.8 3.2
v -1.5 2.4 3.2
v -1.5 2.8 3.2
v -1.5 6.8 3.2
v -1.5 7.2 3.2
v -1.4 6.8 3.2
v -1.4 6.9 3.2
v -1.2 2 3.2
v -1.2 2.4 3.2
v -1.2 2.8 3.2
v -1.2 7.2 3.2
v -1.2 7.3 3.2
v -1.2 7.6 3.2
v -1.1 6.9 3.2
v -1.1 7.3 3.2
v -1.1 7.6 3.2
v -0.9 2 3.2
v -0.9 2.8 3.2
v -0.8 2.4 3.2
v -0.8 2.8 3.2
v -0.8 6.9 3.2
v -0.8 7.2 3.2
v -0.8 7.3 3.2
v -0.8 7.6 3.2
v -0.3 7.3 3.2
v -0.3 7.6 3.2
v -0.2 2 3.2
v -0.2 2.4 3.2
v 0.6 2.3 3.2
v 0.6 2.4 3.2
v 0.8 2.4 3.2
v 0.8 2.8 3.2
v 0.8 6.9 3.2
v 0.8 7.2 3.2
v 0.9 6.9 3.2
v 0.9 7 3.2
v 1.1 6.9 3.2
v 1.2 2 3.2
v 1.2 2.3 3.2
v 1.2 2.4 3.2
v 1.2 2.7 3.2
v 1.2 2.8 3.2
v 1.2 7 3.2
v 1.2 7.2 3.2
v 1.2 7.6 3.2
v 1.4 6.8 3.2
v 1.4 6.9 3.2
v 1.5 2.4 3.2
v 1.5 2.7 3.2
v 1.5 2.8 3.2
v 1.6 2.8 3.2
v 1.6 3.2 3.2
v 1.6 6.4 3.2
v 1.6 6.8 3.2
v 1.7 6.4 3.2
v 2 2.4 3.2
v 2 2.8 3.2
v 2 3.2 3.2
v 2 3.7 3.2
v 2 4 3.2
v 2 5.6 3.2
v 2 6.4 3.2
v 2 6.8 3.2
v 2 7.2 3.2
v 2.2 5.6 3.2
v 2.2 6.8 3.2
v 2.4 2.8 3.2
v 2.4 3.2 3.2
v 2.4 3.6 3.2
v 2.4 4 3.2
v 2.4 4.6 3.2
v 2.4 5 3.2
v 2.4 5.3 3.2
v 2.4 5.4 3.2
v 2.4 5.6 3.2
v 2.4 6 3.2
v 2.4 6.8 3.2
v 2.8 3.6 3.2
v 2.8 5.4 3.2
v 2.8 6 3.2
v -3.2 3.6 2.8
v -3.2 3.7 2.8
v -3.2 4.4 2.8
v -3.2 4.8 2.8
v -3.2 5.1 2.8
v -3.2 6 2.8
v -3 4.5 2.8
v -3 4.8 2.8
v -2.8 2.8 2.8
v -2.8 3 2.8
v -2.8 3.3 2.8
v -2.8 3.6 2.8
v -2.8 3.7 2.8
v -2.8 4.4 2.8
v -2.8 4.5 2.8
v -2.8 4.8 2.8
v -2.8 5.1 2.8
v -2.8 6 2.8
v -2.8 6.5 2.8
v -2.8 6.8 2.8
v -2.7 2.8 2.8
v -2.7 3 2.8
v -2.7 3.3 2.8
v -2.7 3.6 2.8
v -2.4 2.4 2.8
v -2.4 2.8 2.8
v -2.4 3.6 2.8
v -2.4 6 2.8
v -2.4 6.5 2.8
v -2.4 6.8 2.8
v -2.4 7.2 2.8
v -2 2 2.8
v -2 2.4 2.8
v -2 2.8 2.8
v -2 6.8 2.8
v -2 7.2 2.8
v -2 7.3 2.8
v -2 7.6 2.8
v -1.5 2.1 2.8
v -1.5 2.4 2.8
v -1.5 7.2 2.8
v -1.5 7.3 2.8
v -1.3 2 2.8
v -1.3 2.1 2.8
v -1.2 1.6 2.8
v -1.2 1.7 2.8
v -1.2 2 2.8
v -1.2 2.1 2.8
v -1.2 2.4 2.8
v -1.2 7.2 2.8
v -1.2 7.3 2.8
v -1.2 7.6 2.8
v -1.2 8 2.8
v -0.9 1.7 2.8
v -0.9 2 2.8
v -0.8 7.6 2.8
v -0.8 7.7 2.8
v -0.3 7.6 2.8
v -0.2 1.6 2.8
v -0.2 2 2.8
v 0.2 7.7 2.8
v 0.2 8 2.8
v 1.2 1.6 2.8
v 1.2 2 2.8
v 1.2 2.3 2.8
v 1.2 2.4 2.8
v 1.2 7.2 2.8
v 1.2 7.6 2.8
v 1.2 7.7 2.8
v 1.2 8 2.8
v 1.5 2.2 2.8
v 1.5 2.3 2.8
v 1.5 2.4 2.8
v 1.8 2 2.8
v 1.8 2.2 2.8
v 2 2 2.8
v 2 2.2 2.8
v 2 2.4 2.8
v 2 2.8 2.8
v 2 6.8 2.8
v 2 7.2 2.8
v 2 7.6 2.8
v 2.4 2.4 2.8
v 2.4 2.8 2.8
v 2.4 3.2 2.8
v 2.4 3.6 2.8
v 2.4 6 2.8
v 2.4 6.8 2.8
v 2.4 7.2 2.8
v 2.7 3.2 2.8
v 2.7 3.4 2.8
v 2.7 3.6 2.8
v 2.8 2.8 2.8
v 2.8 3.2 2.8
v 2.8 3.4 2.8
v 2.8 3.6 2.8
v 2.8 5 2.8
v 2.8 6 2.8
v 2.8 6.8 2.8
v 3.2 3.6 2.8
v 3.2 5 2.8
v 3.2 6 2.8
v -0.7 2.8 2.6
v -0.7 4.5 2.6
v 0.7 2.8 2.6
v 0.7 4.5 2.6
v -3.6 4 2.4
v -3.6 4.4 2.4
v -3.6 4.7 2.4
v -3.6 5.6 2.4
v -3.5 4.4 2.4
v -3.5 4.7 2.4
v -3.5 4.8 2.4
v -3.5 5.1 2.4
v -3.5 5.6 2.4
v -3.2 2.8 2.4
v -3.2 3 2.4
v -3.2 3.3 2.4
v -3.2 3.6 2.4
v -3.2 4 2.4
v -3.2 4.4 2.4
v -3.2 4.8 2.4
v -3.2 5.1 2.4
v -3.2 5.6 2.4
v -3.2 6 2.4
v -3.2 6.5 2.4
v -3.2 6.6 2.4
v -3.2 6.8 2.4
v -3 6.6 2.4
v -3 6.8 2.4
v -2.9 6.5 2.4
v -2.9 6.6 2.4
v -2.9 6.8 2.4
v -2.8 2.4 2.4
v -2.8 2.8 2.4
v -2.8 3 2.4
v -2.8 3.3 2.4
v -2.8 3.6 2.4
v -2.8 6 2.4
v -2.8 6.5 2.4
v -2.8 6.8 2.4
v -2.8 7.2 2.4
v -2.7 2.4 2.4
v -2.7 2.8 2.4
v -2.4 2 2.4
v -2.4 2.4 2.4
v -2.4 2.8 2.4
v -2.4 6.8 2.4
v -2.4 7.2 2.4
v -2.4 7.6 2.4
v -2 1.6 2.4
v -2 2 2.4
v -2 2.4 2.4
v -2 7.2 2.4
v -2 7.3 2.4
v -2 7.6 2.4
v -2 8 2.4
v -1.3 1.6 2.4
v -1.3 2 2.4
v -1.2 1.6 2.4
v -1.2 2 2.4
v -1.2 7.6 2.4
v -1.2 8 2.4
v -0.8 1.2 2.4
v -0.8 1.6 2.4
v -0.8 8 2.4
v -0.8 8.4 2.4
v -0.2 1.4 2.4
v -0.2 1.6 2.4
v 0.2 8 2.4
v 0.2 8.4 2.4
v 0.8 1.2 2.4
v 0.8 1.4 2.4
v 0.8 1.6 2.4
v 0.8 8 2.4
v 0.8 8.4 2.4
v 1.2 1.6 2.4
v 1.2 2 2.4
v 1.2 7.6 2.4
v 1.2 7.7 2.4
v 1.2 8 2.4
v 1.8 1.6 2.4
v 1.8 2 2.4
v 1.9 7.6 2.4
v 1.9 7.7 2.4
v 2 1.6 2.4
v 2 2 2.4
v 2 2.2 2.4
v 2 2.4 2.4
v 2 7.2 2.4
v 2 7.6 2.4
v 2 8 2.4
v 2.4 2 2.4
v 2.4 2.2 2.4
v 2.4 2.4 2.4
v 2.4 2.8 2.4
v 2.4 6.8 2.4
v 2.4 7.2 2.4
v 2.4 7.6 2.4
v 2.8 2.4 2.4
v 2.8 2.8 2.4
v 2.8 3.2 2.4
v 2.8 3.4 2.4
v 2.8 3.6 2.4
v 2.8 6 2.4
v 2.8 6.8 2.4
v 2.8 7.2 2.4
v 3.2 2.8 2.4
v 3.2 3.2 2.4
v 3.2 3.4 2.4
v 3.2 3.6 2.4
v 3.2 4 2.4
v 3.2 5 2.4
v 3.2 5.1 2.4
v 3.2 5.6 2.4
v 3.2 6 2.4
v 3.2 6.8 2.4
v 3.4 5 2.4
v 3.4 5.1 2.4
v 3.6 4 2.4
v 3.6 5.6 2.4
v -3.6 3.2 2
v -3.6 3.9 2
v -3.6 4 2
v -3.6 5.6 2
v -3.6 6.4 2
v -3.5 5.6 2
v -3.5 6.1 2
v -3.2 2.4 2
v -3.2 2.8 2
v -3.2 3.2 2
v -3.2 3.9 2
v -3.2 4 2
v -3.2 5.6 2
v -3.2 6.1 2
v -3.2 6.4 2
v -3.2 6.8 2
v -3.2 7.2 2
v -3 6.8 2
v -3 6.9 2
v -2.9 6.8 2
v -2.9 6.9 2
v -2.9 7.2 2
v -2.8 2 2
v -2.8 2.4 2
v -2.8 2.8 2
v -2.8 6.8 2
v -2.8 7.2 2
v -2.8 7.6 2
v -2.7 2 2
v -2.7 2.4 2
v -2.4 1.6 2
v -2.4 2 2
v -2.4 2.4 2
v -2.4 7.2 2
v -2.4 7.6 2
v -2.4 8 2
v -2.1 7.6 2
v -2.1 8 2
v -2 1.6 2
v -2 2 2
v -2 7.6 2
v -2 8 2
v -1.6 1.2 2
v -1.6 1.3 2
v -1.6 1.6 2
v -1.6 8 2
v -1.6 8.4 2
v -1.3 1.3 2
v -1.3 1.6 2
v -0.8 1.2 2
v -0.8 1.6 2
v -0.8 8 2
v -0.8 8.4 2
v 0.8 1.2 2
v 0.8 1.4 2
v 0.8 1.6 2
v 0.8 8 2
v 0.8 8.4 2
v 1.2 8 2
v 1.2 8.1 2
v 1.6 1.2 2
v 1.6 1.4 2
v 1.6 1.6 2
v 1.6 8 2
v 1.6 8.1 2
v 1.6 8.4 2
v 2 1.6 2
v 2 2 2
v 2 7.6 2
v 2 8 2
v 2.4 1.6 2
v 2.4 2 2
v 2.4 2.2 2
v 2.4 2.4 2
v 2.4 7.2 2
v 2.4 7.6 2
v 2.4 8 2
v 2.7 2.2 2
v 2.7 2.4 2
v 2.8 2 2
v 2.8 2.4 2
v 2.8 2.8 2
v 2.8 6.8 2
v 2.8 7.2 2
v 2.8 7.6 2
v 3.2 2.4 2
v 3.2 2.8 2
v 3.2 3.2 2
v 3.2 3.4 2
v 3.2 4 2
v 3.2 5.6 2
v 3.2 6.4 2
v 3.2 6.8 2
v 3.2 7.2 2
v 3.6 3.2 2
v 3.6 3.4 2
v 3.6 4 2
v 3.6 5.6 2
v 3.6 6.4 2
v -4 4 1.6
v -4 4.4 1.6
v -4 4.7 1.6
v -4 5.6 1.6
v -3.6 2.8 1.6
v -3.6 3.2 1.6
v -3.6 4 1.6
v -3.6 4.4 1.6
v -3.6 4.7 1.6
v -3.6 5.6 1.6
v -3.6 6.4 1.6
v -3.6 6.8 1.6
v -3.5 6.4 1.6
v -3.5 6.8 1.6
v -3.2 2.8 1.6
v -3.2 3.2 1.6
v -3.2 6.4 1.6
v -3.2 6.8 1.6
v -2 1.2 1.6
v -2 1.6 1.6
v -2 8 1.6
v -2 8.4 1.6
v -1.6 1.2 1.6
v -1.6 1.6 1.6
v -1.6 8 1.6
v -1.6 8.4 1.6
v -0.8 0.8 1.6
v -0.8 1.2 1.6
v -0.8 8.4 1.6
v -0.8 8.8 1.6
v 0.6 8.4 1.6
v 0.6 8.8 1.6
v 0.8 0.8 1.6
v 0.8 1.2 1.6
v 0.8 8.4 1.6
v 0.8 8.8 1.6
v 1.6 1.2 1.6
v 1.6 1.4 1.6
v 1.6 1.6 1.6
v 1.6 8 1.6
v 1.6 8.4 1.6
v 1.8 1.4 1.6
v 1.8 1.6 1.6
v 2 1.2 1.6
v 2 1.6 1.6
v 2 8 1.6
v 2 8.4 1.6
v 3.2 2.8 1.6
v 3.2 3.2 1.6
v 3.2 6.4 1.6
v 3.2 6.8 1.6
v 3.6 2.8 1.6
v 3.6 3.2 1.6
v 3.6 4 1.6
v 3.6 5 1.6
v 3.6 5.6 1.6
v 3.6 6.4 1.6
v 3.6 6.8 1.6
v 4 4 1.6
v 4 5 1.6
v 4 5.6 1.6
v -4 3.6 1.2
v -4 3.9 1.2
v -4 4 1.2
v -4 5.6 1.2
v -4 6 1.2
v -3.7 3.6 1.2
v -3.7 3.9 1.2
v -3.6 3.6 1.2
v -3.6 3.9 1.2
v -3.6 4 1.2
v -3.6 5.6 1.2
v -3.6 6 1.2
v -3.2 2 1.2
v -3.2 2.4 1.2
v -3.2 7.2 1.2
v -3.2 7.6 1.2
v -2.9 7.2 1.2
v -2.9 7.6 1.2
v -2.8 1.6 1.2
v -2.8 2 1.2
v -2.8 2.4 1.2
v -2.8 7.2 1.2
v -2.8 7.6 1.2
v -2.8 8 1.2
v -2.4 1.6 1.2
v -2.4 2 1.2
v -2.4 7.6 1.2
v -2.4 8 1.2
v -1.2 0.8 1.2
v -1.2 0.9 1.2
v -1.2 1.2 1.2
v -1.2 8.4 1.2
v -1.2 8.8 1.2
v -0.9 0.9 1.2
v -0.9 1.2 1.2
v -0.8 0.8 1.2
v -0.8 1.2 1.2
v -0.8 8.4 1.2
v -0.8 8.8 1.2
v 0.8 0.8 1.2
v 0.8 1.2 1.2
v 0.8 8.4 1.2
v 0.8 8.8 1.2
v 1.2 0.8 1.2
v 1.2 1.2 1.2
v 1.2 8.4 1.2
v 1.2 8.8 1.2
v 2.4 1.6 1.2
v 2.4 2 1.2
v 2.4 7.6 1.2
v 2.4 8 1.2
v 2.8 1.6 1.2
v 2.8 2 1.2
v 2.8 2.4 1.2
v 2.8 7.2 1.2
v 2.8 7.6 1.2
v 2.8 8 1.2
v 3.2 2 1.2
v 3.2 2.4 1.2
v 3.2 7.2 1.2
v 3.2 7.6 1.2
v 3.6 3.6 1.2
v 3.6 4 1.2
v 3.6 5.6 1.2
v 3.6 6 1.2
v 4 3.6 1.2
v 4 4 1.2
v 4 5.6 1.2
v 4 6 1.2
v -4 3.2 0.8
v -4 3.6 0.8
v -4 6 0.8
v -4 6.4 0.8
v -3.6 2.4 0.8
v -3.6 2.8 0.8
v -3.6 3.2 0.8
v -3.6 3.6 0.8
v -3.6 6 0.8
v -3.6 6.4 0.8
v -3.6 6.8 0.8
v -3.6 7.2 0.8
v -3.5 6.8 0.8
v -3.5 7.2 0.8
v -3.2 2.4 0.8
v -3.2 2.8 0.8
v -3.2 6.8 0.8
v -3.2 7.2 0.8
v -2.4 1.2 0.8
v -2.4 1.6 0.8
v -2.4 8 0.8
v -2.4 8.4 0.8
v -2.3 8 0.8
v -2.3 8.4 0.8
v -2 1.2 0.8
v -2 1.6 0.8
v -2 8 0.8
v -2 8.4 0.8
v -1.6 0.8 0.8
v -1.6 1.2 0.8
v -1.6 8.4 0.8
v -1.6 8.8 0.8
v -1.2 0.8 0.8
v -1.2 1.2 0.8
v -1.2 8.4 0.8
v -1.2 8.8 0.8
v 1.2 0.8 0.8
v 1.2 1.2 0.8
v 1.2 8.4 0.8
v 1.2 8.8 0.8
v 1.6 0.8 0.8
v 1.6 1.2 0.8
v 1.6 8.4 0.8
v 1.6 8.8 0.8
v 2 1.2 0.8
v 2 1.6 0.8
v 2 8 0.8
v 2 8.4 0.8
v 2.4 1.2 0.8
v 2.4 1.6 0.8
v 2.4 8 0.8
v 2.4 8.4 0.8
v 3.2 2.4 0.8
v 3.2 2.8 0.8
v 3.2 6.8 0.8
v 3.2 7.1 0.8
v 3.2 7.2 0.8
v 3.6 2.4 0.8
v 3.6 2.8 0.8
v 3.6 3.2 0.8
v 3.6 3.6 0.8
v 3.6 6 0.8
v 3.6 6.4 0.8
v 3.6 6.8 0.8
v 3.6 7.2 0.8
v 4 3.2 0.8
v 4 3.6 0.8
v 4 6 0.8
v 4 6.4 0.8
v -4 3.2 -4
v -4 6.4 -4
v -3.6 2.4 -4
v -3.6 3.2 -4
v -3.6 6.4 -4
v -3.6 7.2 -4
v -3.2 2 -4
v -3.2 2.4 -4
v -3.2 7.2 -4
v -3.2 7.6 -4
v -2.8 1.6 -4
v -2.8 2 -4
v -2.8 7.6 -4
v -2.8 8 -4
v -2.4 1.2 -4
v -2.4 1.6 -4
v -2.4 8 -4
v -2.4 8.4 -4
v -1.7 8.3 -4
v -1.7 8.4 -4
v -1.6 0.8 -4
v -1.6 1.2 -4
v -1.6 8.4 -4
v -1.6 8.8 -4
v -1.2 7.7 -4
v -1.2 8.3 -4
v -1.2 8.8 -4
v 1.6 0.8 -4
v 1.6 1.2 -4
v 1.6 8.4 -4
v 1.6 8.8 -4
v 2.4 1.2 -4
v 2.4 1.6 -4
v 2.4 8 -4
v 2.4 8.4 -4
v 2.8 1.6 -4
v 2.8 2 -4
v 2.8 7.6 -4
v 2.8 7.7 -4
v 2.8 8 -4
v 3.2 2 -4
v 3.2 2.4 -4
v 3.2 7.2 -4
v 3.2 7.6 -4
v 3.6 2.4 -4
v 3.6 3.2 -4
v 3.6 6.4 -4
v 3.6 7.2 -4
v 4 3.2 -4
v 4 6.4 -4
v -0.8 0.8 1.6
v 0.8 0.8 1.6
v -1.2 0.8 1.2
v -0.8 0.8 1.2
v 0.8 0.8 1.2
v 1.2 0.8 1.2
v -1.6 0.8 0.8
v -1.2 0.8 0.8
v 1.2 0.8 0.8
v 1.6 0.8 0.8
v -1.6 0.8 -4
v 1.6 0.8 -4
v -0.8 1.2 2.4
v 0.8 1.2 2.4
v -1.6 1.2 2
v -0.8 1.2 2
v 0.8 1.2 2
v 1.6 1.2 2
v -2 1.2 1.6
v -1.6 1.2 1.6
v -0.8 1.2 1.6
v 0.8 1.2 1.6
v 1.6 1.2 1.6
v 2 1.2 1.6
v -2 1.2 1.2
v -1.2 1.2 1.2
v -0.9 1.2 1.2
v -0.8 1.2 1.2
v 0.8 1.2 1.2
v 1.2 1.2 1.2
v -2 1.2 1.1
v -1.2 1.2 1.1
v -2.4 1.2 0.8
v -2 1.2 0.8
v -1.6 1.2 0.8
v -1.2 1.2 0.8
v 1.2 1.2 0.8
v 1.6 1.2 0.8
v 2 1.2 0.8
v 2.4 1.2 0.8
v -2.4 1.2 -4
v -1.6 1.2 -4
v 1.6 1.2 -4
v 2.4 1.2 -4
v -1.2 1.6 2.8
v -0.2 1.6 2.8
v 1.2 1.6 2.8
v -2 1.6 2.4
v -1.3 1.6 2.4
v -1.2 1.6 2.4
v -0.8 1.6 2.4
v -0.2 1.6 2.4
v 0.8 1.6 2.4
v 1.2 1.6 2.4
v 1.8 1.6 2.4
v 2 1.6 2.4
v -2.4 1.6 2
v -2 1.6 2
v -1.6 1.6 2
v -1.3 1.6 2
v -0.8 1.6 2
v 0.8 1.6 2
v 1.6 1.6 2
v 2 1.6 2
v 2.4 1.6 2
v -2.4 1.6 1.9
v -1.6 1.6 1.9
v -2 1.6 1.6
v -1.6 1.6 1.6
v 1.6 1.6 1.6
v 1.8 1.6 1.6
v 2 1.6 1.6
v -2.8 1.6 1.2
v -2.4 1.6 1.2
v -2 1.6 1.2
v 2.4 1.6 1.2
v 2.8 1.6 1.2
v -2.8 1.6 1.1
v -2 1.6 1.1
v -2.4 1.6 0.8
v -2 1.6 0.8
v 2 1.6 0.8
v 2.4 1.6 0.8
v -2.8 1.6 -4
v -2.4 1.6 -4
v 2.4 1.6 -4
v 2.8 1.6 -4
v -1.2 2 3.2
v -0.9 2 3.2
v -0.2 2 3.2
v 1.2 2 3.2
v -2 2 2.8
v -1.3 2 2.8
v -1.2 2 2.8
v -0.9 2 2.8
v -0.2 2 2.8
v 1.2 2 2.8
v 1.8 2 2.8
v 2 2 2.8
v -1.3 2 2.7
v -1.2 2 2.7
v -2.4 2 2.4
v -2 2 2.4
v -1.3 2 2.4
v -1.2 2 2.4
v 1.2 2 2.4
v 1.8 2 2.4
v 2 2 2.4
v 2.4 2 2.4
v -2.8 2 2
v -2.7 2 2
v -2.4 2 2
v -2 2 2
v 2 2 2
v 2.4 2 2
v 2.8 2 2
v -2.7 2 1.9
v -2.4 2 1.9
v -3.2 2 1.2
v -2.8 2 1.2
v -2.4 2 1.2
v 2.4 2 1.2
v 2.8 2 1.2
v 3.2 2 1.2
v -3.2 2 1.1
v -2.8 2 1.1
v -3.2 2 -4
v -2.8 2 -4
v 2.8 2 -4
v 3.2 2 -4
v -0.8 2.4 3.6
v -0.2 2.4 3.6
v 0.6 2.4 3.6
v 0.8 2.4 3.6
v -2 2.4 3.2
v -1.5 2.4 3.2
v -1.2 2.4 3.2
v -0.8 2.4 3.2
v -0.2 2.4 3.2
v 0.6 2.4 3.2
v 0.8 2.4 3.2
v 1.2 2.4 3.2
v 1.5 2.4 3.2
v 2 2.4 3.2
v -2.4 2.4 2.8
v -2 2.4 2.8
v -1.5 2.4 2.8
v -1.2 2.4 2.8
v 1.2 2.4 2.8
v 1.5 2.4 2.8
v 2 2.4 2.8
v 2.4 2.4 2.8
v -2.8 2.4 2.4
v -2.7 2.4 2.4
v -2.4 2.4 2.4
v -2 2.4 2.4
v 2 2.4 2.4
v 2.4 2.4 2.4
v 2.8 2.4 2.4
v -3.2 2.4 2
v -2.8 2.4 2
v -2.7 2.4 2
v -2.4 2.4 2
v 2.4 2.4 2
v 2.7 2.4 2
v 2.8 2.4 2
v 3.2 2.4 2
v -3.2 2.4 1.2
v -2.8 2.4 1.2
v 2.8 2.4 1.2
v 3.2 2.4 1.2
v -3.6 2.4 0.8
v -3.2 2.4 0.8
v 3.2 2.4 0.8
v 3.6 2.4 0.8
v 3.2 2.4 -0.5
v 3.6 2.4 -0.5
v -3.6 2.4 -4
v -3.2 2.4 -4
v 3.2 2.4 -4
v 3.6 2.4 -4
v -1.6 2.8 3.6
v -1.5 2.8 3.6
v -1.2 2.8 3.6
v -0.9 2.8 3.6
v -0.8 2.8 3.6
v 0.8 2.8 3.6
v 0.9 2.8 3.6
v 1.5 2.8 3.6
v 1.6 2.8 3.6
v 0.9 2.8 3.5
v 1.5 2.8 3.5
v -2.4 2.8 3.2
v -2 2.8 3.2
v -1.6 2.8 3.2
v -1.5 2.8 3.2
v -1.2 2.8 3.2
v -0.9 2.8 3.2
v -0.8 2.8 3.2
v 0.8 2.8 3.2
v 1.2 2.8 3.2
v 1.5 2.8 3.2
v 1.6 2.8 3.2
v 2 2.8 3.2
v 2.4 2.8 3.2
v -2.8 2.8 2.8
v -2.7 2.8 2.8
v -2.4 2.8 2.8
v -2 2.8 2.8
v 2 2.8 2.8
v 2.4 2.8 2.8
v 2.8 2.8 2.8
v -3.2 2.8 2.4
v -2.8 2.8 2.4
v -2.7 2.8 2.4
v -2.4 2.8 2.4
v 2.4 2.8 2.4
v 2.8 2.8 2.4
v 3.2 2.8 2.4
v -3.2 2.8 2
v -2.8 2.8 2
v 2.8 2.8 2
v 3.2 2.8 2
v -3.6 2.8 1.6
v -3.2 2.8 1.6
v 3.2 2.8 1.6
v 3.6 2.8 1.6
v -3.6 2.8 1.2
v -3.2 2.8 1.2
v -3.6 2.8 1.1
v -3.2 2.8 1.1
v -3.6 2.8 0.8
v -3.2 2.8 0.8
v 3.2 2.8 0.8
v 3.6 2.8 0.8
v -0.8 3.2 4
v -0.7 3.2 4
v 0.7 3.2 4
v 0.8 3.2 4
v -2 3.2 3.6
v -1.6 3.2 3.6
v -0.8 3.2 3.6
v -0.7 3.2 3.6
v 0.7 3.2 3.6
v 0.8 3.2 3.6
v 1.6 3.2 3.6
v 2 3.2 3.6
v -2 3.2 3.2
v -1.6 3.2 3.2
v 1.6 3.2 3.2
v 2 3.2 3.2
v -3.6 3.2 2
v -3.2 3.2 2
v 3.2 3.2 2
v 3.6 3.2 2
v -3.6 3.2 1.6
v -3.2 3.2 1.6
v 3.2 3.2 1.6
v 3.6 3.2 1.6
v -4 3.2 0.8
v -3.6 3.2 0.8
v 3.6 3.2 0.8
v 4 3.2 0.8
v 3.6 3.2 -0.5
v 3.6 3.2 -0.9
v 4 3.2 -0.9
v 3.6 3.2 -3.8
v 4 3.2 -3.8
v -4 3.2 -4
v -3.6 3.2 -4
v 3.6 3.2 -4
v 4 3.2 -4
v -0.9 3.3 4
v -0.8 3.3 4
v 0.8 3.3 4
v 0.9 3.3 4
v -0.9 3.3 3.6
v -0.8 3.3 3.6
v 0.8 3.3 3.6
v 0.9 3.3 3.6
v -1.2 3.6 4
v -0.9 3.6 4
v 0.9 3.6 4
v 1.1 3.6 4
v 1.2 3.6 4
v -1.2 3.6 3.6
v -0.9 3.6 3.6
v 0.9 3.6 3.6
v 1.1 3.6 3.6
v 1.2 3.6 3.6
v -2.8 3.6 3.2
v -2.7 3.6 3.2
v -2.4 3.6 3.2
v 2.4 3.6 3.2
v 2.8 3.6 3.2
v -2.8 3.6 3.1
v -2.7 3.6 3.1
v 2.7 3.6 3.1
v 2.8 3.6 3.1
v -3.2 3.6 2.8
v -2.8 3.6 2.8
v -2.7 3.6 2.8
v -2.4 3.6 2.8
v 2.4 3.6 2.8
v 2.7 3.6 2.8
v 2.8 3.6 2.8
v 3.2 3.6 2.8
v -3.2 3.6 2.4
v -2.8 3.6 2.4
v 2.8 3.6 2.4
v 3.2 3.6 2.4
v -4 3.6 1.2
v -3.7 3.6 1.2
v -3.6 3.6 1.2
v 3.6 3.6 1.2
v 4 3.6 1.2
v -3.7 3.6 1.1
v -3.6 3.6 1.1
v -4 3.6 0.8
v -3.6 3.6 0.8
v 3.6 3.6 0.8
v 4 3.6 0.8
v -1.6 4 4
v -1.2 4 4
v 1.2 4 4
v 1.5 4 4
v 1.6 4 4
v -2.4 4 3.6
v -2.3 4 3.6
v -2 4 3.6
v -1.6 4 3.6
v -1.5 4 3.6
v -1.2 4 3.6
v 1.2 4 3.6
v 1.4 4 3.6
v 1.5 4 3.6
v 1.6 4 3.6
v 2 4 3.6
v 2.4 4 3.6
v -2.4 4 3.2
v -2.3 4 3.2
v -2 4 3.2
v 2 4 3.2
v 2.4 4 3.2
v -3.6 4 2.4
v -3.2 4 2.4
v 3.2 4 2.4
v 3.6 4 2.4
v -3.6 4 2
v -3.2 4 2
v 3.2 4 2
v 3.6 4 2
v -4 4 1.6
v -3.6 4 1.6
v 3.6 4 1.6
v 4 4 1.6
v -4 4 1.2
v -3.6 4 1.2
v 3.6 4 1.2
v 4 4 1.2
v -0.7 4.5 4
v 0.7 4.5 4
v -0.7 4.5 3.9
v 0.7 4.5 3.9
v -0.7 4.5 2.6
v 0.7 4.5 2.6
v -1.5 5.7 4
v -1.4 5.7 4
v 1.4 5.7 4
v 1.5 5.7 4
v -1.5 5.7 3.6
v -1.4 5.7 3.6
v 1.4 5.7 3.6
v 1.5 5.7 3.6
v -1.4 6.8 4
v -0.5 6.8 4
v 0.5 6.8 4
v 1.4 6.8 4
v -1.4 6.8 3.9
v -0.5 6.8 3.9
v 0.5 6.8 3.9
v 1.4 6.8 3.9
v -0.7 2.8 3.6
v 0.7 2.8 3.6
v -0.7 2.8 3.5
v 0.7 2.8 3.5
v -0.7 2.8 2.6
v 0.7 2.8 2.6
v -1.6 5.6 4
v -1.4 5.6 4
v 1.4 5.6 4
v 1.6 5.6 4
v -2.4 5.6 3.6
v -2 5.6 3.6
v -1.6 5.6 3.6
v -1.4 5.6 3.6
v 1.4 5.6 3.6
v 1.6 5.6 3.6
v 2 5.6 3.6
v 2.1 5.6 3.6
v 2.4 5.6 3.6
v 2.1 5.6 3.5
v 2.2 5.6 3.5
v -2.4 5.6 3.2
v -2.2 5.6 3.2
v -2 5.6 3.2
v 2 5.6 3.2
v 2.2 5.6 3.2
v 2.4 5.6 3.2
v -3.6 5.6 2.4
v -3.5 5.6 2.4
v -3.2 5.6 2.4
v 3.2 5.6 2.4
v 3.6 5.6 2.4
v -3.5 5.6 2.3
v -3.2 5.6 2.3
v -3.6 5.6 2
v -3.5 5.6 2
v -3.2 5.6 2
v 3.2 5.6 2
v 3.6 5.6 2
v -4 5.6 1.6
v -3.6 5.6 1.6
v 3.6 5.6 1.6
v 4 5.6 1.6
v 3.6 5.6 1.5
v 4 5.6 1.5
v -4 5.6 1.2
v -3.6 5.6 1.2
v 3.6 5.6 1.2
v 4 5.6 1.2
v -1.4 5.7 4
v -0.5 5.7 4
v 0.5 5.7 4
v 1.4 5.7 4
v -1.4 5.7 3.9
v -0.5 5.7 3.9
v 0.5 5.7 3.9
v 1.4 5.7 3.9
v -2.8 6 3.2
v -2.4 6 3.2
v 2.4 6 3.2
v 2.8 6 3.2
v 2.4 6 3.1
v -3.2 6 2.8
v -2.8 6 2.8
v -2.4 6 2.8
v 2.4 6 2.8
v 2.8 6 2.8
v 3.2 6 2.8
v 2.8 6 2.5
v 3.2 6 2.5
v -3.2 6 2.4
v -2.8 6 2.4
v 2.8 6 2.4
v 3.2 6 2.4
v -4 6 1.2
v -3.6 6 1.2
v 3.6 6 1.2
v 4 6 1.2
v -4 6 0.8
v -3.6 6 0.8
v 3.6 6 0.8
v 4 6 0.8
v -0.4 6.4 4
v 0.4 6.4 4
v -2 6.4 3.6
v -1.6 6.4 3.6
v -0.4 6.4 3.6
v 0.4 6.4 3.6
v 1.6 6.4 3.6
v 1.7 6.4 3.6
v 2 6.4 3.6
v -2 6.4 3.4
v -1.6 6.4 3.4
v -2 6.4 3.2
v -1.6 6.4 3.2
v 1.6 6.4 3.2
v 1.7 6.4 3.2
v 2 6.4 3.2
v -3.6 6.4 2
v -3.2 6.4 2
v 3.2 6.4 2
v 3.6 6.4 2
v -3.5 6.4 1.9
v -3.2 6.4 1.9
v -3.6 6.4 1.6
v -3.5 6.4 1.6
v -3.2 6.4 1.6
v 3.2 6.4 1.6
v 3.6 6.4 1.6
v -4 6.4 0.8
v -3.6 6.4 0.8
v 3.6 6.4 0.8
v 4 6.4 0.8
v 3.6 6.4 -0.9
v 4 6.4 -0.9
v -4 6.4 -3.6
v -3.6 6.4 -3.6
v 3.6 6.4 -3.8
v 4 6.4 -3.8
v -4 6.4 -4
v -3.6 6.4 -4
v 3.6 6.4 -4
v 4 6.4 -4
v -1.5 6.8 4
v -1.4 6.8 4
v -0.5 6.8 4
v -0.4 6.8 4
v 0.4 6.8 4
v 0.5 6.8 4
v 1.4 6.8 4
v 1.5 6.8 4
v -1.6 6.8 3.6
v -1.5 6.8 3.6
v -0.5 6.8 3.6
v -0.4 6.8 3.6
v 0.4 6.8 3.6
v 0.5 6.8 3.6
v 1.5 6.8 3.6
v 1.6 6.8 3.6
v -1.6 6.8 3.4
v -1.5 6.8 3.4
v -1.4 6.8 3.4
v 1.4 6.8 3.4
v 1.5 6.8 3.4
v -2.4 6.8 3.2
v -2 6.8 3.2
v -1.6 6.8 3.2
v -1.5 6.8 3.2
v -1.4 6.8 3.2
v 1.4 6.8 3.2
v 1.6 6.8 3.2
v 2 6.8 3.2
v 2.2 6.8 3.2
v 2.4 6.8 3.2
v 2.2 6.8 3.1
v 2.4 6.8 3.1
v -2.8 6.8 2.8
v -2.4 6.8 2.8
v -2 6.8 2.8
v 2 6.8 2.8
v 2.4 6.8 2.8
v 2.8 6.8 2.8
v -3.2 6.8 2.4
v -3 6.8 2.4
v -2.9 6.8 2.4
v -2.8 6.8 2.4
v -2.4 6.8 2.4
v 2.4 6.8 2.4
v 2.8 6.8 2.4
v 3.2 6.8 2.4
v -3.2 6.8 2
v -3 6.8 2
v -2.9 6.8 2
v -2.8 6.8 2
v 2.8 6.8 2
v 3.2 6.8 2
v -3.6 6.8 1.6
v -3.5 6.8 1.6
v -3.2 6.8 1.6
v 3.2 6.8 1.6
v 3.6 6.8 1.6
v 3.2 6.8 1.5
v 3.6 6.8 1.5
v -3.6 6.8 0.8
v -3.5 6.8 0.8
v -3.2 6.8 0.8
v 3.2 6.8 0.8
v 3.6 6.8 0.8
v -1.4 6.9 4
v -0.5 6.9 4
v 0.5 6.9 4
v 1.4 6.9 4
v -1.1 6.9 3.9
v -0.8 6.9 3.9
v 0.9 6.9 3.9
v 1.3 6.9 3.9
v -0.8 6.9 3.6
v -0.5 6.9 3.6
v 0.5 6.9 3.6
v 0.8 6.9 3.6
v -1.4 6.9 3.4
v -1.1 6.9 3.4
v 1.1 6.9 3.4
v 1.3 6.9 3.4
v 1.4 6.9 3.4
v -1.4 6.9 3.2
v -1.1 6.9 3.2
v -0.8 6.9 3.2
v 0.8 6.9 3.2
v 0.9 6.9 3.2
v 1.1 6.9 3.2
v 1.4 6.9 3.2
v -0.8 7.2 3.6
v 0.8 7.2 3.6
v -2 7.2 3.2
v -1.5 7.2 3.2
v -1.2 7.2 3.2
v -0.8 7.2 3.2
v 0.8 7.2 3.2
v 1.2 7.2 3.2
v 2 7.2 3.2
v -2.4 7.2 2.8
v -2 7.2 2.8
v -1.5 7.2 2.8
v -1.2 7.2 2.8
v 1.2 7.2 2.8
v 2 7.2 2.8
v 2.4 7.2 2.8
v -2.8 7.2 2.4
v -2.4 7.2 2.4
v -2 7.2 2.4
v 2 7.2 2.4
v 2.4 7.2 2.4
v 2.8 7.2 2.4
v -3.2 7.2 2
v -2.9 7.2 2
v -2.8 7.2 2
v -2.4 7.2 2
v 2.4 7.2 2
v 2.8 7.2 2
v 3.2 7.2 2
v 2.8 7.2 1.9
v 3.2 7.2 1.9
v -3.2 7.2 1.2
v -2.9 7.2 1.2
v -2.8 7.2 1.2
v 2.8 7.2 1.2
v 3.2 7.2 1.2
v -3.6 7.2 0.8
v -3.5 7.2 0.8
v -3.2 7.2 0.8
v 3.2 7.2 0.8
v 3.6 7.2 0.8
v 3.2 7.2 0
v 3.2 7.2 -0.2
v 3.3 7.2 -0.2
v 3.3 7.2 -0.9
v 3.6 7.2 -0.9
v -3.5 7.2 -2
v -3.2 7.2 -2
v -3.2 7.2 -3.8
v 3.2 7.2 -3.8
v 3.6 7.2 -3.8
v -3.6 7.2 -4
v -3.2 7.2 -4
v 3.2 7.2 -4
v 3.6 7.2 -4
v -1.2 7.6 3.2
v -1.1 7.6 3.2
v -0.8 7.6 3.2
v -0.3 7.6 3.2
v 1.2 7.6 3.2
v -1.1 7.6 3.1
v -0.8 7.6 3.1
v -2 7.6 2.8
v -1.2 7.6 2.8
v -0.8 7.6 2.8
v -0.3 7.6 2.8
v 1.2 7.6 2.8
v 2 7.6 2.8
v -2.4 7.6 2.4
v -2 7.6 2.4
v -1.2 7.6 2.4
v 1.2 7.6 2.4
v 1.9 7.6 2.4
v 2 7.6 2.4
v 2.4 7.6 2.4
v -2.8 7.6 2
v -2.4 7.6 2
v -2.1 7.6 2
v -2 7.6 2
v 2 7.6 2
v 2.4 7.6 2
v 2.8 7.6 2
v 2.4 7.6 1.9
v 2.8 7.6 1.9
v -3.2 7.6 1.2
v -2.9 7.6 1.2
v -2.8 7.6 1.2
v -2.4 7.6 1.2
v 2.4 7.6 1.2
v 2.8 7.6 1.2
v 3.2 7.6 1.2
v 2.8 7.6 0
v 3.2 7.6 0
v 2.8 7.6 -0.2
v 3.2 7.6 -0.2
v -2.9 7.6 -0.7
v -2.8 7.6 -0.7
v -3.2 7.6 -2.9
v -2.8 7.6 -2.9
v 2.8 7.6 -3.8
v 3.2 7.6 -3.8
v -3.2 7.6 -4
v -2.8 7.6 -4
v 2.8 7.6 -4
v 3.2 7.6 -4
v -1.2 8 2.8
v 0.2 8 2.8
v 1.2 8 2.8
v -2 8 2.4
v -1.2 8 2.4
v -0.8 8 2.4
v 0.2 8 2.4
v 0.8 8 2.4
v 1.2 8 2.4
v 2 8 2.4
v -2.4 8 2
v -2.1 8 2
v -2 8 2
v -1.6 8 2
v -0.8 8 2
v 0.8 8 2
v 1.2 8 2
v 1.6 8 2
v 2 8 2
v 2.4 8 2
v -2.3 8 1.9
v -2.1 8 1.9
v -2 8 1.9
v -1.6 8 1.9
v 1.6 8 1.9
v 2.4 8 1.9
v -2 8 1.6
v -1.6 8 1.6
v 1.6 8 1.6
v 2 8 1.6
v -2.8 8 1.2
v -2.4 8 1.2
v 2.4 8 1.2
v 2.8 8 1.2
v -2.4 8 0.8
v -2.3 8 0.8
v -2 8 0.8
v 2 8 0.8
v 2.4 8 0.8
v 2.4 8 0
v 2.8 8 0
v 2.4 8 -0.2
v 2.8 8 -0.2
v -2.8 8 -2.9
v -2.4 8 -2.9
v -2.8 8 -4
v -2.4 8 -4
v 2.4 8 -4
v 2.8 8 -4
v -0.8 8.4 2.4
v 0.2 8.4 2.4
v 0.8 8.4 2.4
v -1.6 8.4 2
v -0.8 8.4 2
v 0.2 8.4 2
v 0.6 8.4 2
v 0.8 8.4 2
v 1.6 8.4 2
v -1.6 8.4 1.9
v 0.6 8.4 1.9
v 1.6 8.4 1.9
v -2 8.4 1.6
v -1.6 8.4 1.6
v -0.8 8.4 1.6
v 0.6 8.4 1.6
v 0.8 8.4 1.6
v 1.6 8.4 1.6
v 2 8.4 1.6
v -1.2 8.4 1.2
v -0.8 8.4 1.2
v 0.8 8.4 1.2
v 1.2 8.4 1.2
v -2.4 8.4 0.8
v -2.3 8.4 0.8
v -2 8.4 0.8
v -1.6 8.4 0.8
v -1.2 8.4 0.8
v 1.2 8.4 0.8
v 1.6 8.4 0.8
v 2 8.4 0.8
v 2.4 8.4 0.8
v -2.3 8.4 0
v -1.6 8.4 0
v 1.6 8.4 0
v 2.4 8.4 0
v 1.6 8.4 -0.2
v 2.4 8.4 -0.2
v -2.4 8.4 -2.9
v -2.2 8.4 -2.9
v -2.2 8.4 -3.7
v -1.7 8.4 -3.7
v -2.4 8.4 -4
v -1.7 8.4 -4
v -1.6 8.4 -4
v 1.6 8.4 -4
v 2.4 8.4 -4
v -0.8 8.8 1.6
v 0.6 8.8 1.6
v 0.8 8.8 1.6
v -1.2 8.8 1.2
v -0.8 8.8 1.2
v 0.8 8.8 1.2
v 1.2 8.8 1.2
v -1.6 8.8 0.8
v -1.2 8.8 0.8
v 1.2 8.8 0.8
v 1.6 8.8 0.8
v -1 8.8 -0.2
v 0.6 8.8 -0.2
v 1.6 8.8 -0.2
v -1 8.8 -1.9
v 0.4 8.8 -1.9
v 1.3 8.8 -1.9
v -1.2 8.8 -2.8
v 0.4 8.8 -2.8
v 1.3 8.8 -2.8
v -1.6 8.8 -4
v -1.2 8.8 -4
v 1.6 8.8 -4

# faces
f 4/5/1 2/5/1 1/5/1
f 5/5/1 4/5/1 3/5/1
f 6/5/1 2/5/1 4/5/1
f 6/5/1 4/5/1 5/5/1
f 8/6/1 6/6/1 5/6/1
f 9/6/1 8/6/1 7/6/1
f 10/5/1 2/5/1 6/5/1
f 10/6/1 8/6/1 9/6/1
f 10/6/1 6/6/1 8/6/1
f 11/5/1 10/5/1 9/5/1
f 12/5/1 2/5/1 10/5/1
f 12/5/1 10/5/1 11/5/1
f 13/3/1 12/3/1 11/3/1
f 14/3/1 12/3/1 13/3/1
f 15/3/1 12/3/1 14/3/1
f 16/3/1 12/3/1 15/3/1
f 17/3/1 12/3/1 16/3/1
f 18/5/1 2/5/1 12/5/1
f 18/3/1 12/3/1 17/3/1
f 19/5/1 2/5/1 18/5/1
f 25/5/1 21/5/1 20/5/1
f 27/5/1 23/5/1 22/5/1
f 28/5/1 25/5/1 24/5/1
f 28/5/1 21/5/1 25/5/1
f 29/5/1 21/5/1 28/5/1
f 30/6/1 24/6/1 23/6/1
f 30/5/1 27/5/1 26/5/1
f 30/5/1 23/5/1 27/5/1
f 31/5/1 28/5/1 24/5/1
f 31/6/1 24/6/1 30/6/1
f 32/5/1 28/5/1 31/5/1
f 33/5/1 30/5/1 26/5/1
f 34/5/1 30/5/1 33/5/1
f 36/6/1 34/6/1 33/6/1
f 37/6/1 34/6/1 36/6/1
f 38/6/1 34/6/1 37/6/1
f 39/6/1 36/6/1 35/6/1
f 39/6/1 37/6/1 36/6/1
f 40/6/1 37/6/1 39/6/1
f 41/5/1 40/5/1 39/5/1
f 42/5/1 40/5/1 41/5/1
f 43/3/1 42/3/1 41/3/1
f 44/3/1 42/3/1 43/3/1
f 45/3/1 42/3/1 44/3/1
f 47/3/1 45/3/1 44/3/1
f 47/3/1 46/3/1 45/3/1
f 49/3/1 47/3/1 44/3/1
f 49/3/1 48/3/1 47/3/1
f 50/3/1 48/3/1 49/3/1
f 51/3/1 48/3/1 50/3/1
f 54/5/1 51/5/1 50/5/1
f 54/5/1 53/5/1 52/5/1
f 54/5/1 52/5/1 51/5/1
f 55/5/1 53/5/1 54/5/1
f 56/5/1 53/5/1 55/5/1
f 57/5/1 53/5/1 56/5/1
f 62/6/1 59/6/1 58/6/1
f 63/5/1 60/5/1 59/5/1
f 64/5/1 60/5/1 63/5/1
f 66/5/1 62/5/1 61/5/1
f 67/5/1 62/5/1 66/5/1
f 68/6/1 59/6/1 62/6/1
f 68/5/1 62/5/1 67/5/1
f 69/5/1 63/5/1 59/5/1
f 69/6/1 59/6/1 68/6/1
f 70/5/1 63/5/1 69/5/1
f 71/5/1 67/5/1 66/5/1
f 71/5/1 66/5/1 65/5/1
f 72/5/1 67/5/1 71/5/1
f 73/5/1 67/5/1 72/5/1
f 74/5/1 67/5/1 73/5/1
f 75/6/1 72/6/1 71/6/1
f 76/5/1 73/5/1 72/5/1
f 76/6/1 72/6/1 75/6/1
f 78/5/1 76/5/1 75/5/1
f 79/5/1 78/5/1 77/5/1
f 80/5/1 78/5/1 79/5/1
f 81/6/1 80/6/1 79/6/1
f 81/5/1 78/5/1 80/5/1
f 82/5/1 73/5/1 76/5/1
f 82/5/1 78/5/1 81/5/1
f 82/5/1 76/5/1 78/5/1
f 83/6/1 82/6/1 81/6/1
f 84/6/1 82/6/1 83/6/1
f 85/6/1 81/6/1 79/6/1
f 85/6/1 83/6/1 81/6/1
f 86/6/1 83/6/1 85/6/1
f 87/7/1 86/7/1 85/7/1
f 88/7/1 86/7/1 87/7/1
f 89/6/1 88/6/1 87/6/1
f 90/6/1 88/6/1 89/6/1
f 91/7/1 90/7/1 89/7/1
f 94/7/1 91/7/1 89/7/1
f 94/7/1 92/7/1 91/7/1
f 95/7/1 92/7/1 94/7/1
f 96/6/1 93/6/1 92/6/1
f 96/7/1 92/7/1 95/7/1
f 97/6/1 93/6/1 96/6/1
f 98/3/1 97/3/1 96/3/1
f 101/7/1 96/7/1 95/7/1
f 102/3/1 98/3/1 96/3/1
f 102/7/1 96/7/1 101/7/1
f 102/3/1 99/3/1 98/3/1
f 103/3/1 102/3/1 101/3/1
f 104/7/1 100/7/1 99/7/1
f 104/3/1 102/3/1 103/3/1
f 104/3/1 99/3/1 102/3/1
f 105/7/1 104/7/1 103/7/1
f 106/7/1 104/7/1 105/7/1
f 107/7/1 100/7/1 104/7/1
f 107/7/1 104/7/1 106/7/1
f 109/7/1 107/7/1 106/7/1
f 109/7/1 108/7/1 107/7/1
f 110/7/1 108/7/1 109/7/1
f 111/7/1 108/7/1 110/7/1
f 115/7/1 111/7/1 110/7/1
f 115/7/1 113/7/1 112/7/1
f 115/7/1 112/7/1 111/7/1
f 116/5/1 114/5/1 113/5/1
f 116/7/1 113/7/1 115/7/1
f 117/7/1 115/7/1 110/7/1
f 117/5/1 116/5/1 115/5/1
f 118/5/1 116/5/1 117/5/1
f 119/7/1 117/7/1 110/7/1
f 119/7/1 118/7/1 117/7/1
f 120/5/1 116/5/1 118/5/1
f 120/7/1 118/7/1 119/7/1
f 121/5/1 114/5/1 116/5/1
f 121/5/1 116/5/1 120/5/1
f 126/6/1 123/6/1 122/6/1
f 127/5/1 124/5/1 123/5/1
f 127/6/1 123/6/1 126/6/1
f 128/5/1 124/5/1 127/5/1
f 130/5/1 126/5/1 125/5/1
f 131/5/1 126/5/1 130/5/1
f 133/5/1 130/5/1 129/5/1
f 134/5/1 130/5/1 133/5/1
f 135/5/1 133/5/1 132/5/1
f 136/5/1 133/5/1 135/5/1
f 137/6/1 136/6/1 135/6/1
f 138/6/1 136/6/1 137/6/1
f 141/5/1 138/5/1 137/5/1
f 142/5/1 138/5/1 141/5/1
f 143/3/1 140/3/1 139/3/1
f 144/5/1 141/5/1 140/5/1
f 144/3/1 140/3/1 143/3/1
f 145/5/1 141/5/1 144/5/1
f 146/6/1 144/6/1 143/6/1
f 146/6/1 145/6/1 144/6/1
f 147/6/1 145/6/1 146/6/1
f 148/6/1 145/6/1 147/6/1
f 149/3/1 147/3/1 146/3/1
f 149/7/1 148/7/1 147/7/1
f 150/7/1 148/7/1 149/7/1
f 151/3/1 149/3/1 146/3/1
f 152/4/1 150/4/1 149/4/1
f 152/3/1 149/3/1 151/3/1
f 153/4/1 152/4/1 151/4/1
f 154/4/1 150/4/1 152/4/1
f 154/4/1 152/4/1 153/4/1
f 155/6/1 154/6/1 153/6/1
f 156/6/1 154/6/1 155/6/1
f 157/7/1 156/7/1 155/7/1
f 158/7/1 156/7/1 157/7/1
f 160/7/1 159/7/1 158/7/1
f 161/7/1 159/7/1 160/7/1
f 162/6/1 161/6/1 160/6/1
f 163/6/1 161/6/1 162/6/1
f 165/6/1 164/6/1 163/6/1
f 166/6/1 164/6/1 165/6/1
f 168/6/1 167/6/1 166/6/1
f 169/6/1 167/6/1 168/6/1
f 173/7/1 170/7/1 169/7/1
f 173/7/1 171/7/1 170/7/1
f 174/5/1 172/5/1 171/5/1
f 174/7/1 171/7/1 173/7/1
f 175/5/1 172/5/1 174/5/1
f 181/5/1 177/5/1 176/5/1
f 182/5/1 177/5/1 181/5/1
f 184/6/1 179/6/1 178/6/1
f 185/5/1 180/5/1 179/5/1
f 185/6/1 179/6/1 184/6/1
f 186/5/1 180/5/1 185/5/1
f 188/6/1 184/6/1 183/6/1
f 189/6/1 184/6/1 188/6/1
f 191/6/1 188/6/1 187/6/1
f 192/6/1 188/6/1 191/6/1
f 193/6/1 191/6/1 190/6/1
f 194/6/1 191/6/1 193/6/1
f 197/6/1 196/6/1 195/6/1
f 198/6/1 196/6/1 197/6/1
f 199/3/1 198/3/1 197/3/1
f 200/3/1 198/3/1 199/3/1
f 201/4/1 200/4/1 199/4/1
f 202/4/1 200/4/1 201/4/1
f 203/6/1 202/6/1 201/6/1
f 204/6/1 203/6/1 201/6/1
f 205/6/1 203/6/1 204/6/1
f 208/7/1 207/7/1 206/7/1
f 209/7/1 207/7/1 208/7/1
f 210/6/1 209/6/1 208/6/1
f 211/6/1 209/6/1 210/6/1
f 213/6/1 212/6/1 211/6/1
f 214/6/1 212/6/1 213/6/1
f 216/6/1 215/6/1 214/6/1
f 217/6/1 215/6/1 216/6/1
f 219/7/1 218/7/1 217/7/1
f 220/7/1 218/7/1 219/7/1
f 224/7/1 222/7/1 221/7/1
f 225/5/1 223/5/1 222/5/1
f 225/7/1 222/7/1 224/7/1
f 226/5/1 223/5/1 225/5/1
f 233/5/1 228/5/1 227/5/1
f 234/6/1 229/6/1 228/6/1
f 234/5/1 228/5/1 233/5/1
f 235/5/1 230/5/1 229/5/1
f 235/6/1 229/6/1 234/6/1
f 236/5/1 230/5/1 235/5/1
f 238/6/1 232/6/1 231/6/1
f 239/6/1 232/6/1 238/6/1
f 241/6/1 238/6/1 237/6/1
f 242/6/1 238/6/1 241/6/1
f 243/6/1 241/6/1 240/6/1
f 244/6/1 241/6/1 243/6/1
f 247/3/1 246/3/1 245/3/1
f 248/3/1 246/3/1 247/3/1
f 249/6/1 248/6/1 247/6/1
f 250/6/1 248/6/1 249/6/1
f 253/6/1 252/6/1 251/6/1
f 254/6/1 252/6/1 253/6/1
f 255/6/1 253/6/1 251/6/1
f 256/3/1 254/3/1 253/3/1
f 256/6/1 253/6/1 255/6/1
f 257/3/1 254/3/1 256/3/1
f 260/6/1 259/6/1 258/6/1
f 261/6/1 259/6/1 260/6/1
f 263/6/1 262/6/1 261/6/1
f 264/6/1 262/6/1 263/6/1
f 265/7/1 264/7/1 263/7/1
f 266/7/1 264/7/1 265/7/1
f 268/7/1 267/7/1 266/7/1
f 269/7/1 267/7/1 268/7/1
f 272/4/1 271/4/1 270/4/1
f 273/4/1 271/4/1 272/4/1
f 278/5/1 275/5/1 274/5/1
f 279/5/1 275/5/1 278/5/1
f 280/5/1 277/5/1 276/5/1
f 281/5/1 277/5/1 280/5/1
f 282/6/1 281/6/1 280/6/1
f 283/5/1 277/5/1 281/5/1
f 283/6/1 281/6/1 282/6/1
f 284/5/1 277/5/1 283/5/1
f 287/7/1 286/7/1 285/7/1
f 288/7/1 286/7/1 287/7/1
f 291/5/1 290/5/1 289/5/1
f 292/5/1 290/5/1 291/5/1
f 293/7/1 292/7/1 291/7/1
f 294/7/1 293/7/1 291/7/1
f 295/7/1 293/7/1 294/7/1
f 296/3/1 295/3/1 294/3/1
f 297/3/1 295/3/1 296/3/1
f 298/7/1 297/7/1 296/7/1
f 299/7/1 297/7/1 298/7/1
f 300/5/1 299/5/1 298/5/1
f 301/5/1 299/5/1 300/5/1
f 305/6/1 303/6/1 302/6/1
f 306/3/1 304/3/1 303/3/1
f 306/6/1 303/6/1 305/6/1
f 307/3/1 304/3/1 306/3/1
f 311/7/1 309/7/1 308/7/1
f 312/4/1 310/4/1 309/4/1
f 312/7/1 309/7/1 311/7/1
f 313/4/1 310/4/1 312/4/1
f 317/7/1 316/7/1 315/7/1
f 317/7/1 315/7/1 314/7/1
f 318/7/1 316/7/1 317/7/1
f 321/2/1 320/2/1 319/2/1
f 322/2/1 321/2/1 319/2/1
f 323/2/1 321/2/1 322/2/1
f 326/2/1 325/2/1 324/2/1
f 327/2/1 325/2/1 326/2/1
f 331/2/1 329/2/1 328/2/1
f 332/3/1 330/3/1 329/3/1
f 332/2/1 329/2/1 331/2/1
f 333/3/1 330/3/1 332/3/1
f 336/5/1 335/5/1 334/5/1
f 337/5/1 335/5/1 336/5/1
f 338/6/1 337/6/1 336/6/1
f 339/5/1 335/5/1 337/5/1
f 339/6/1 337/6/1 338/6/1
f 340/5/1 335/5/1 339/5/1
f 343/5/1 342/5/1 341/5/1
f 344/5/1 342/5/1 343/5/1
f 346/7/1 344/7/1 343/7/1
f 347/5/1 342/5/1 344/5/1
f 347/7/1 344/7/1 346/7/1
f 348/5/1 342/5/1 347/5/1
f 349/7/1 346/7/1 345/7/1
f 350/7/1 349/7/1 345/7/1
f 351/7/1 349/7/1 350/7/1
f 354/5/1 353/5/1 352/5/1
f 355/5/1 354/5/1 352/5/1
f 356/5/1 354/5/1 355/5/1
f 359/5/1 358/5/1 357/5/1
f 360/5/1 358/5/1 359/5/1
f 361/7/1 360/7/1 359/7/1
f 362/7/1 360/7/1 361/7/1
f 364/7/1 363/7/1 362/7/1
f 365/7/1 363/7/1 364/7/1
f 368/7/1 367/7/1 366/7/1
f 369/7/1 367/7/1 368/7/1
f 372/5/1 371/5/1 370/5/1
f 373/5/1 371/5/1 372/5/1
f 378/5/1 375/5/1 374/5/1
f 379/5/1 375/5/1 378/5/1
f 380/5/1 377/5/1 376/5/1
f 381/5/1 377/5/1 380/5/1
f 384/5/1 383/5/1 382/5/1
f 385/5/1 383/5/1 384/5/1
f 388/2/1 387/2/1 386/2/1
f 389/2/1 387/2/1 388/2/1
f 392/5/1 391/5/1 390/5/1
f 393/5/1 391/5/1 392/5/1
f 396/7/1 395/7/1 394/7/1
f 397/7/1 395/7/1 396/7/1
f 400/7/1 399/7/1 398/7/1
f 401/7/1 399/7/1 400/7/1
f 404/2/1 403/2/1 402/2/1
f 405/2/1 403/2/1 404/2/1
f 408/2/1 407/2/1 406/2/1
f 409/2/1 407/2/1 408/2/1
f 412/2/1 411/2/1 410/2/1
f 413/2/1 411/2/1 412/2/1
f 418/2/1 415/2/1 414/2/1
f 419/2/1 418/2/1 417/2/1
f 420/8/1 416/8/1 415/8/1
f 420/2/1 418/2/1 419/2/1
f 420/2/1 415/2/1 418/2/1
f 421/2/1 419/2/1 417/2/1
f 422/8/1 420/8/1 419/8/1
f 422/2/1 419/2/1 421/2/1
f 423/8/1 416/8/1 420/8/1
f 423/8/1 420/8/1 422/8/1
f 426/2/1 425/2/1 424/2/1
f 427/2/1 425/2/1 426/2/1
f 428/2/2 429/2/2 430/2/2
f 430/2/2 429/2/2 431/2/2
f 432/2/2 433/2/2 436/2/2
f 435/2/2 436/2/2 437/2/2
f 433/8/2 434/8/2 438/8/2
f 437/2/2 436/2/2 438/2/2
f 436/2/2 433/2/2 438/2/2
f 435/2/2 437/2/2 439/2/2
f 437/8/2 438/8/2 440/8/2
f 439/2/2 437/2/2 440/2/2
f 438/8/2 434/8/2 441/8/2
f 440/8/2 438/8/2 441/8/2
f 442/2/2 443/2/2 444/2/2
f 444/2/2 443/2/2 445/2/2
f 446/2/2 447/2/2 448/2/2
f 448/2/2 447/2/2 449/2/2
f 450/2/2 451/2/2 452/2/2
f 452/2/2 451/2/2 453/2/2
f 454/5/2 455/5/2 458/5/2
f 458/5/2 455/5/2 459/5/2
f 456/5/2 457/5/2 460/5/2
f 460/5/2 457/5/2 461/5/2
f 460/7/2 461/7/2 462/7/2
f 462/7/2 461/7/2 463/7/2
f 464/5/2 465/5/2 466/5/2
f 466/5/2 465/5/2 467/5/2
f 468/2/2 469/2/2 470/2/2
f 470/2/2 469/2/2 471/2/2
f 472/5/2 473/5/2 474/5/2
f 474/5/2 473/5/2 475/5/2
f 476/5/2 477/5/2 478/5/2
f 478/5/2 477/5/2 479/5/2
f 480/5/2 481/5/2 482/5/2
f 482/5/2 481/5/2 483/5/2
f 484/5/2 485/5/2 486/5/2
f 484/5/2 486/5/2 487/5/2
f 487/5/2 486/5/2 488/5/2
f 489/5/2 490/5/2 491/5/2
f 491/5/2 490/5/2 492/5/2
f 493/7/2 494/7/2 496/7/2
f 496/7/2 494/7/2 497/7/2
f 495/7/2 496/7/2 498/7/2
f 498/7/2 496/7/2 499/7/2
f 498/5/2 499/5/2 500/5/2
f 500/5/2 499/5/2 501/5/2
f 502/3/2 503/3/2 504/3/2
f 504/3/2 503/3/2 505/3/2
f 506/5/2 507/5/2 508/5/2
f 508/5/2 507/5/2 509/5/2
f 509/4/2 510/4/2 511/4/2
f 511/4/2 510/4/2 512/4/2
f 511/5/2 512/5/2 513/5/2
f 513/5/2 512/5/2 514/5/2
f 515/5/2 516/5/2 517/5/2
f 517/5/2 516/5/2 518/5/2
f 519/2/2 520/2/2 521/2/2
f 521/2/2 520/2/2 522/2/2
f 523/2/2 524/2/2 526/2/2
f 524/3/2 525/3/2 527/3/2
f 526/2/2 524/2/2 527/2/2
f 527/3/2 525/3/2 528/3/2
f 529/2/2 530/2/2 531/2/2
f 529/2/2 531/2/2 532/2/2
f 532/2/2 531/2/2 533/2/2
f 534/5/2 535/5/2 538/5/2
f 538/5/2 535/5/2 539/5/2
f 536/5/2 537/5/2 540/5/2
f 540/5/2 537/5/2 541/5/2
f 540/7/2 541/7/2 542/7/2
f 542/7/2 541/7/2 543/7/2
f 544/4/2 545/4/2 546/4/2
f 546/4/2 545/4/2 547/4/2
f 548/4/2 549/4/2 550/4/2
f 550/4/2 549/4/2 551/4/2
f 550/3/2 551/3/2 552/3/2
f 550/3/2 552/3/2 553/3/2
f 553/3/2 552/3/2 554/3/2
f 553/7/2 554/7/2 555/7/2
f 555/7/2 554/7/2 556/7/2
f 555/5/2 556/5/2 557/5/2
f 557/5/2 556/5/2 558/5/2
f 559/3/2 560/3/2 561/3/2
f 561/3/2 560/3/2 562/3/2
f 563/7/2 564/7/2 566/7/2
f 564/4/2 565/4/2 567/4/2
f 566/7/2 564/7/2 567/7/2
f 566/5/2 567/5/2 568/5/2
f 567/4/2 565/4/2 569/4/2
f 568/5/2 567/5/2 569/5/2
f 569/4/2 565/4/2 570/4/2
f 572/5/2 573/5/2 575/5/2
f 571/5/2 572/5/2 575/5/2
f 573/4/2 574/4/2 576/4/2
f 575/5/2 573/5/2 576/5/2
f 576/4/2 574/4/2 577/4/2
f 578/5/2 579/5/2 582/5/2
f 582/5/2 579/5/2 583/5/2
f 580/5/2 581/5/2 585/5/2
f 585/5/2 581/5/2 586/5/2
f 584/5/2 585/5/2 587/5/2
f 587/5/2 585/5/2 588/5/2
f 587/4/2 588/4/2 590/4/2
f 590/4/2 588/4/2 591/4/2
f 589/4/2 590/4/2 592/4/2
f 592/4/2 590/4/2 593/4/2
f 594/4/2 595/4/2 596/4/2
f 596/4/2 595/4/2 597/4/2
f 596/7/2 597/7/2 598/7/2
f 598/7/2 597/7/2 599/7/2
f 600/5/2 601/5/2 602/5/2
f 602/5/2 601/5/2 603/5/2
f 604/7/2 605/7/2 606/7/2
f 606/7/2 605/7/2 607/7/2
f 607/7/2 608/7/2 609/7/2
f 609/7/2 608/7/2 610/7/2
f 610/7/2 611/7/2 612/7/2
f 612/7/2 611/7/2 613/7/2
f 614/4/2 615/4/2 616/4/2
f 616/4/2 615/4/2 617/4/2
f 618/5/2 619/5/2 622/5/2
f 622/5/2 619/5/2 623/5/2
f 620/5/2 621/5/2 625/5/2
f 625/5/2 621/5/2 626/5/2
f 624/5/2 625/5/2 627/5/2
f 627/5/2 625/5/2 628/5/2
f 627/4/2 628/4/2 630/4/2
f 630/4/2 628/4/2 631/4/2
f 629/7/2 630/7/2 633/7/2
f 633/7/2 630/7/2 634/7/2
f 632/7/2 633/7/2 635/7/2
f 635/7/2 633/7/2 636/7/2
f 635/4/2 636/4/2 637/4/2
f 637/4/2 636/4/2 638/4/2
f 639/7/2 640/7/2 641/7/2
f 641/7/2 640/7/2 642/7/2
f 641/3/2 642/3/2 643/3/2
f 643/3/2 642/3/2 644/3/2
f 643/7/2 644/7/2 645/7/2
f 645/7/2 644/7/2 646/7/2
f 645/4/2 646/4/2 647/4/2
f 645/4/2 647/4/2 648/4/2
f 648/4/2 647/4/2 649/4/2
f 650/4/2 651/4/2 653/4/2
f 651/7/2 652/7/2 654/7/2
f 653/4/2 651/4/2 654/4/2
f 654/7/2 652/7/2 655/7/2
f 655/7/2 656/7/2 657/7/2
f 657/7/2 656/7/2 658/7/2
f 658/7/2 659/7/2 660/7/2
f 660/7/2 659/7/2 661/7/2
f 661/7/2 662/7/2 664/7/2
f 662/4/2 663/4/2 665/4/2
f 664/7/2 662/7/2 665/7/2
f 665/4/2 663/4/2 666/4/2
f 667/4/2 668/4/2 671/4/2
f 668/5/2 669/5/2 672/5/2
f 671/4/2 668/4/2 672/4/2
f 669/4/2 670/4/2 673/4/2
f 672/5/2 669/5/2 673/5/2
f 673/4/2 670/4/2 674/4/2
f 675/5/2 676/5/2 678/5/2
f 678/5/2 676/5/2 679/5/2
f 677/5/2 678/5/2 681/5/2
f 681/5/2 678/5/2 682/5/2
f 680/7/2 681/7/2 684/7/2
f 684/7/2 681/7/2 685/7/2
f 683/7/2 684/7/2 686/7/2
f 686/7/2 684/7/2 687/7/2
f 686/5/2 687/5/2 688/5/2
f 688/5/2 687/5/2 689/5/2
f 688/7/2 689/7/2 692/7/2
f 692/7/2 689/7/2 693/7/2
f 691/7/2 692/7/2 694/7/2
f 690/4/2 691/4/2 695/4/2
f 691/7/2 694/7/2 696/7/2
f 695/4/2 691/4/2 696/4/2
f 695/7/2 696/7/2 697/7/2
f 696/7/2 694/7/2 698/7/2
f 697/7/2 696/7/2 698/7/2
f 699/7/2 700/7/2 701/7/2
f 698/7/2 699/7/2 701/7/2
f 701/7/2 700/7/2 702/7/2
f 702/7/2 703/7/2 704/7/2
f 704/7/2 703/7/2 705/7/2
f 705/7/2 706/7/2 708/7/2
f 706/4/2 707/4/2 709/4/2
f 708/7/2 706/7/2 709/7/2
f 709/4/2 707/4/2 710/4/2
f 713/5/2 714/5/2 715/5/2
f 712/4/2 713/4/2 715/4/2
f 715/5/2 714/5/2 716/5/2
f 710/4/2 711/4/2 717/4/2
f 711/5/2 712/5/2 718/5/2
f 717/4/2 711/4/2 718/4/2
f 712/4/2 715/4/2 719/4/2
f 718/5/2 712/5/2 719/5/2
f 715/4/2 716/4/2 719/4/2
f 719/4/2 716/4/2 720/4/2
f 721/5/2 722/5/2 724/5/2
f 724/5/2 722/5/2 725/5/2
f 725/5/2 722/5/2 726/5/2
f 726/5/2 722/5/2 727/5/2
f 723/7/2 724/7/2 729/7/2
f 724/7/2 725/7/2 729/7/2
f 729/7/2 725/7/2 730/7/2
f 730/7/2 725/7/2 731/7/2
f 728/7/2 729/7/2 732/7/2
f 729/7/2 730/7/2 732/7/2
f 732/7/2 730/7/2 733/7/2
f 733/7/2 730/7/2 734/7/2
f 732/5/2 733/5/2 735/5/2
f 735/5/2 733/5/2 736/5/2
f 735/7/2 736/7/2 738/7/2
f 738/7/2 736/7/2 739/7/2
f 737/7/2 738/7/2 739/7/2
f 739/7/2 736/7/2 740/7/2
f 737/7/2 739/7/2 741/7/2
f 741/7/2 739/7/2 742/7/2
f 741/5/2 742/5/2 743/5/2
f 743/5/2 742/5/2 744/5/2
f 743/7/2 744/7/2 745/7/2
f 741/5/2 743/5/2 747/5/2
f 743/7/2 745/7/2 748/7/2
f 747/5/2 743/5/2 748/5/2
f 745/7/2 746/7/2 748/7/2
f 748/7/2 746/7/2 749/7/2
f 749/7/2 746/7/2 750/7/2
f 749/7/2 750/7/2 752/7/2
f 750/7/2 751/7/2 752/7/2
f 752/7/2 751/7/2 753/7/2
f 753/7/2 751/7/2 754/7/2
f 753/7/2 754/7/2 757/7/2
f 754/7/2 755/7/2 757/7/2
f 755/5/2 756/5/2 758/5/2
f 757/7/2 755/7/2 758/7/2
f 758/5/2 756/5/2 759/5/2
f 753/7/2 757/7/2 760/7/2
f 757/4/2 758/4/2 761/4/2
f 760/7/2 757/7/2 761/7/2
f 758/4/2 759/4/2 761/4/2
f 761/4/2 759/4/2 762/4/2
f 762/4/2 759/4/2 763/4/2
f 762/4/2 763/4/2 768/4/2
f 763/4/2 764/4/2 768/4/2
f 764/5/2 765/5/2 769/5/2
f 768/4/2 764/4/2 769/4/2
f 765/4/2 766/4/2 770/4/2
f 769/5/2 765/5/2 770/5/2
f 766/5/2 767/5/2 771/5/2
f 770/4/2 766/4/2 771/4/2
f 771/5/2 767/5/2 772/5/2
f 773/7/2 774/7/2 777/7/2
f 776/7/2 777/7/2 779/7/2
f 777/7/2 774/7/2 780/7/2
f 779/7/2 777/7/2 780/7/2
f 774/5/2 775/5/2 781/5/2
f 780/7/2 774/7/2 781/7/2
f 781/5/2 775/5/2 782/5/2
f 782/5/2 775/5/2 783/5/2
f 783/5/2 775/5/2 784/5/2
f 779/5/2 780/5/2 785/5/2
f 778/5/2 779/5/2 785/5/2
f 785/5/2 780/5/2 786/5/2
f 786/5/2 780/5/2 787/5/2
f 787/5/2 780/5/2 788/5/2
f 785/7/2 786/7/2 790/7/2
f 786/5/2 787/5/2 791/5/2
f 791/5/2 787/5/2 792/5/2
f 789/7/2 790/7/2 793/7/2
f 790/7/2 786/7/2 793/7/2
f 786/5/2 791/5/2 793/5/2
f 793/5/2 791/5/2 794/5/2
f 789/7/2 793/7/2 795/7/2
f 793/7/2 794/7/2 795/7/2
f 795/7/2 794/7/2 796/7/2
f 796/7/2 794/7/2 797/7/2
f 798/5/2 799/5/2 800/5/2
f 796/7/2 797/7/2 802/7/2
f 797/7/2 798/7/2 802/7/2
f 802/7/2 798/7/2 803/7/2
f 800/5/2 801/5/2 804/5/2
f 803/7/2 798/7/2 808/7/2
f 800/5/2 804/5/2 809/5/2
f 808/7/2 798/7/2 809/7/2
f 798/5/2 800/5/2 809/5/2
f 804/5/2 805/5/2 809/5/2
f 809/5/2 805/5/2 810/5/2
f 810/5/2 805/5/2 811/5/2
f 805/4/2 806/4/2 812/4/2
f 811/5/2 805/5/2 812/5/2
f 806/5/2 807/5/2 813/5/2
f 812/4/2 806/4/2 813/4/2
f 813/5/2 807/5/2 814/5/2
f 815/5/2 816/5/2 820/5/2
f 819/5/2 820/5/2 822/5/2
f 821/5/2 822/5/2 823/5/2
f 823/5/2 822/5/2 824/5/2
f 823/7/2 824/7/2 825/7/2
f 824/5/2 822/5/2 826/5/2
f 825/7/2 824/7/2 826/7/2
f 822/5/2 820/5/2 827/5/2
f 826/5/2 822/5/2 827/5/2
f 827/5/2 820/5/2 828/5/2
f 820/5/2 816/5/2 829/5/2
f 828/5/2 820/5/2 829/5/2
f 829/5/2 816/5/2 830/5/2
f 816/4/2 817/4/2 831/4/2
f 830/5/2 816/5/2 831/5/2
f 817/5/2 818/5/2 832/5/2
f 831/4/2 817/4/2 832/4/2
f 832/5/2 818/5/2 833/5/2
f 842/5/3 839/5/3 838/5/3
f 843/2/3 841/2/3 840/2/3
f 844/2/3 841/2/3 843/2/3
f 847/5/3 835/5/3 834/5/3
f 848/7/3 836/7/3 835/7/3
f 848/5/3 847/5/3 846/5/3
f 848/5/3 835/5/3 847/5/3
f 849/7/3 836/7/3 848/7/3
f 851/5/3 848/5/3 846/5/3
f 851/5/3 849/5/3 848/5/3
f 853/5/3 851/5/3 850/5/3
f 854/5/3 849/5/3 851/5/3
f 854/5/3 851/5/3 853/5/3
f 855/2/3 853/2/3 852/2/3
f 855/2/3 854/2/3 853/2/3
f 856/5/3 849/5/3 854/5/3
f 856/2/3 854/2/3 855/2/3
f 857/5/3 849/5/3 856/5/3
f 858/5/3 842/5/3 838/5/3
f 858/2/3 843/2/3 842/2/3
f 859/2/3 843/2/3 858/2/3
f 860/2/3 845/2/3 844/2/3
f 861/2/3 845/2/3 860/2/3
f 862/5/3 859/5/3 858/5/3
f 862/2/3 860/2/3 859/2/3
f 863/2/3 860/2/3 862/2/3
f 864/2/3 860/2/3 863/2/3
f 865/2/3 860/2/3 864/2/3
f 866/2/3 860/2/3 865/2/3
f 867/7/3 838/7/3 837/7/3
f 867/5/3 858/5/3 838/5/3
f 867/5/3 862/5/3 858/5/3
f 867/5/3 863/5/3 862/5/3
f 868/5/3 863/5/3 867/5/3
f 869/5/3 849/5/3 857/5/3
f 869/7/3 836/7/3 849/7/3
f 870/7/3 836/7/3 869/7/3
f 871/3/3 837/3/3 836/3/3
f 871/7/3 836/7/3 870/7/3
f 872/7/3 868/7/3 867/7/3
f 872/3/3 837/3/3 871/3/3
f 872/7/3 867/7/3 837/7/3
f 873/7/3 868/7/3 872/7/3
f 874/5/3 863/5/3 868/5/3
f 874/7/3 864/7/3 863/7/3
f 875/5/3 865/5/3 864/5/3
f 875/7/3 864/7/3 874/7/3
f 876/5/3 870/5/3 869/5/3
f 876/5/3 869/5/3 857/5/3
f 877/3/3 871/3/3 870/3/3
f 877/5/3 870/5/3 876/5/3
f 877/3/3 873/3/3 872/3/3
f 877/3/3 872/3/3 871/3/3
f 878/3/3 877/3/3 876/3/3
f 878/3/3 873/3/3 877/3/3
f 879/7/3 868/7/3 873/7/3
f 879/3/3 873/3/3 878/3/3
f 880/7/3 879/7/3 878/7/3
f 880/7/3 868/7/3 879/7/3
f 881/5/3 874/5/3 868/5/3
f 881/7/3 868/7/3 880/7/3
f 881/5/3 875/5/3 874/5/3
f 882/5/3 881/5/3 880/5/3
f 882/5/3 875/5/3 881/5/3
f 883/5/3 865/5/3 875/5/3
f 883/5/3 875/5/3 882/5/3
f 885/5/3 882/5/3 880/5/3
f 886/2/3 884/2/3 883/2/3
f 886/5/3 882/5/3 885/5/3
f 886/2/3 883/2/3 882/2/3
f 887/2/3 884/2/3 886/2/3
f 890/2/3 857/2/3 856/2/3
f 891/5/3 876/5/3 857/5/3
f 891/2/3 857/2/3 890/2/3
f 892/2/3 890/2/3 889/2/3
f 893/2/3 890/2/3 892/2/3
f 894/5/3 891/5/3 890/5/3
f 894/2/3 890/2/3 893/2/3
f 895/5/3 894/5/3 893/5/3
f 896/5/3 894/5/3 895/5/3
f 897/7/3 880/7/3 878/7/3
f 898/5/3 885/5/3 880/5/3
f 898/7/3 880/7/3 897/7/3
f 899/2/3 886/2/3 885/2/3
f 899/5/3 885/5/3 898/5/3
f 900/5/3 894/5/3 896/5/3
f 901/3/3 878/3/3 876/3/3
f 901/5/3 894/5/3 900/5/3
f 901/5/3 876/5/3 891/5/3
f 901/5/3 891/5/3 894/5/3
f 902/3/3 901/3/3 900/3/3
f 903/3/3 901/3/3 902/3/3
f 904/7/3 897/7/3 878/7/3
f 904/3/3 898/3/3 897/3/3
f 904/3/3 899/3/3 898/3/3
f 905/3/3 899/3/3 904/3/3
f 906/2/3 886/2/3 899/2/3
f 906/3/3 899/3/3 905/3/3
f 907/2/3 886/2/3 906/2/3
f 907/5/3 906/5/3 905/5/3
f 908/2/3 886/2/3 907/2/3
f 909/2/3 888/2/3 887/2/3
f 910/2/3 888/2/3 909/2/3
f 911/3/3 901/3/3 903/3/3
f 912/3/3 901/3/3 911/3/3
f 913/2/3 909/2/3 908/2/3
f 914/2/3 909/2/3 913/2/3
f 915/4/3 912/4/3 911/4/3
f 916/3/3 901/3/3 912/3/3
f 916/4/3 912/4/3 915/4/3
f 917/7/3 904/7/3 878/7/3
f 917/3/3 901/3/3 916/3/3
f 917/7/3 905/7/3 904/7/3
f 917/3/3 878/3/3 901/3/3
f 918/5/3 907/5/3 905/5/3
f 918/7/3 905/7/3 917/7/3
f 919/5/3 907/5/3 918/5/3
f 922/8/3 921/8/3 920/8/3
f 923/8/3 921/8/3 922/8/3
f 926/8/3 925/8/3 924/8/3
f 927/8/3 925/8/3 926/8/3
f 933/6/3 929/6/3 928/6/3
f 934/3/3 930/3/3 929/3/3
f 934/6/3 929/6/3 933/6/3
f 935/4/3 931/4/3 930/4/3
f 936/6/3 932/6/3 931/6/3
f 936/4/3 931/4/3 935/4/3
f 937/6/3 932/6/3 936/6/3
f 938/6/3 932/6/3 937/6/3
f 939/4/3 935/4/3 930/4/3
f 939/3/3 930/3/3 934/3/3
f 939/3/3 934/3/3 933/3/3
f 940/7/3 937/7/3 936/7/3
f 940/4/3 935/4/3 939/4/3
f 940/7/3 936/7/3 935/7/3
f 941/3/3 938/3/3 937/3/3
f 941/7/3 937/7/3 940/7/3
f 942/6/3 932/6/3 938/6/3
f 942/3/3 938/3/3 941/3/3
f 943/6/3 932/6/3 942/6/3
f 946/3/3 941/3/3 940/3/3
f 946/3/3 940/3/3 939/3/3
f 946/3/3 939/3/3 933/3/3
f 946/3/3 943/3/3 942/3/3
f 946/3/3 942/3/3 941/3/3
f 947/6/3 932/6/3 943/6/3
f 949/3/3 943/3/3 946/3/3
f 949/6/3 948/6/3 947/6/3
f 949/6/3 947/6/3 943/6/3
f 950/6/3 948/6/3 949/6/3
f 951/7/3 950/7/3 949/7/3
f 952/6/3 948/6/3 950/6/3
f 952/7/3 950/7/3 951/7/3
f 953/3/3 949/3/3 946/3/3
f 954/3/3 949/3/3 953/3/3
f 955/3/3 949/3/3 954/3/3
f 956/7/3 951/7/3 949/7/3
f 956/3/3 949/3/3 955/3/3
f 958/3/3 945/3/3 944/3/3
f 959/6/3 946/6/3 945/6/3
f 959/3/3 945/3/3 958/3/3
f 960/3/3 953/3/3 946/3/3
f 960/6/3 946/6/3 959/6/3
f 961/3/3 953/3/3 960/3/3
f 962/7/3 954/7/3 953/7/3
f 962/3/3 953/3/3 961/3/3
f 963/3/3 955/3/3 954/3/3
f 963/7/3 954/7/3 962/7/3
f 964/7/3 956/7/3 955/7/3
f 964/3/3 955/3/3 963/3/3
f 965/7/3 951/7/3 956/7/3
f 965/7/3 956/7/3 964/7/3
f 965/5/3 952/5/3 951/5/3
f 966/5/3 952/5/3 965/5/3
f 967/6/3 948/6/3 952/6/3
f 969/7/3 958/7/3 957/7/3
f 970/3/3 960/3/3 959/3/3
f 970/7/3 958/7/3 969/7/3
f 970/3/3 959/3/3 958/3/3
f 971/3/3 960/3/3 970/3/3
f 972/3/3 960/3/3 971/3/3
f 973/5/3 952/5/3 966/5/3
f 974/6/3 968/6/3 967/6/3
f 974/5/3 952/5/3 973/5/3
f 974/6/3 967/6/3 952/6/3
f 975/6/3 968/6/3 974/6/3
f 976/5/3 973/5/3 966/5/3
f 977/5/3 973/5/3 976/5/3
f 978/3/3 971/3/3 970/3/3
f 978/3/3 970/3/3 969/3/3
f 979/3/3 971/3/3 978/3/3
f 980/7/3 972/7/3 971/7/3
f 980/3/3 971/3/3 979/3/3
f 981/7/3 972/7/3 980/7/3
f 982/7/3 979/7/3 978/7/3
f 983/7/3 979/7/3 982/7/3
f 984/7/3 979/7/3 983/7/3
f 986/5/3 983/5/3 982/5/3
f 987/5/3 983/5/3 986/5/3
f 988/5/3 983/5/3 987/5/3
f 991/5/3 986/5/3 985/5/3
f 992/2/3 987/2/3 986/2/3
f 992/5/3 986/5/3 991/5/3
f 993/2/3 987/2/3 992/2/3
f 995/5/3 990/5/3 989/5/3
f 997/5/3 995/5/3 994/5/3
f 998/5/3 991/5/3 985/5/3
f 999/2/3 992/2/3 991/2/3
f 999/5/3 991/5/3 998/5/3
f 1000/7/3 999/7/3 998/7/3
f 1001/2/3 992/2/3 999/2/3
f 1001/7/3 999/7/3 1000/7/3
f 1002/5/3 997/5/3 996/5/3
f 1003/5/3 995/5/3 997/5/3
f 1003/5/3 997/5/3 1002/5/3
f 1004/5/3 995/5/3 1003/5/3
f 1005/5/3 990/5/3 995/5/3
f 1005/5/3 995/5/3 1004/5/3
f 1006/7/3 1000/7/3 998/7/3
f 1007/5/3 1001/5/3 1000/5/3
f 1007/7/3 1000/7/3 1006/7/3
f 1008/2/3 992/2/3 1001/2/3
f 1008/5/3 1001/5/3 1007/5/3
f 1008/5/3 1007/5/3 1006/5/3
f 1009/2/3 992/2/3 1008/2/3
f 1011/5/3 1008/5/3 1006/5/3
f 1011/5/3 1009/5/3 1008/5/3
f 1012/2/3 1010/2/3 1009/2/3
f 1012/5/3 1009/5/3 1011/5/3
f 1013/2/3 1010/2/3 1012/2/3
f 1015/5/3 990/5/3 1005/5/3
f 1016/5/3 990/5/3 1015/5/3
f 1017/5/3 1014/5/3 1013/5/3
f 1017/5/3 1013/5/3 1012/5/3
f 1018/5/3 1014/5/3 1017/5/3
f 1021/7/3 1018/7/3 1017/7/3
f 1021/5/3 1020/5/3 1019/5/3
f 1021/7/3 1019/7/3 1018/7/3
f 1022/5/3 1020/5/3 1021/5/3
f 1023/3/3 1022/3/3 1021/3/3
f 1025/3/3 1024/3/3 1023/3/3
f 1026/3/3 1024/3/3 1025/3/3
f 1029/7/3 1021/7/3 1017/7/3
f 1030/3/3 1023/3/3 1021/3/3
f 1030/7/3 1021/7/3 1029/7/3
f 1030/3/3 1025/3/3 1023/3/3
f 1031/7/3 1026/7/3 1025/7/3
f 1031/3/3 1025/3/3 1030/3/3
f 1032/7/3 1026/7/3 1031/7/3
f 1033/5/3 1028/5/3 1027/5/3
f 1036/4/3 1030/4/3 1029/4/3
f 1036/4/3 1031/4/3 1030/4/3
f 1037/4/3 1031/4/3 1036/4/3
f 1038/7/3 1032/7/3 1031/7/3
f 1043/5/3 1034/5/3 1033/5/3
f 1043/5/3 1033/5/3 1027/5/3
f 1044/3/3 1035/3/3 1034/3/3
f 1045/3/3 1035/3/3 1044/3/3
f 1046/5/3 1043/5/3 1042/5/3
f 1046/3/3 1044/3/3 1034/3/3
f 1046/5/3 1034/5/3 1043/5/3
f 1047/3/3 1044/3/3 1046/3/3
f 1048/4/3 1031/4/3 1037/4/3
f 1049/7/3 1038/7/3 1031/7/3
f 1049/4/3 1031/4/3 1048/4/3
f 1049/7/3 1039/7/3 1038/7/3
f 1049/7/3 1040/7/3 1039/7/3
f 1050/7/3 1040/7/3 1049/7/3
f 1051/5/3 1047/5/3 1046/5/3
f 1051/5/3 1046/5/3 1042/5/3
f 1052/5/3 1047/5/3 1051/5/3
f 1053/4/3 1041/4/3 1040/4/3
f 1053/7/3 1040/7/3 1050/7/3
f 1054/7/3 1042/7/3 1041/7/3
f 1054/4/3 1041/4/3 1053/4/3
f 1055/5/3 1051/5/3 1042/5/3
f 1056/5/3 1051/5/3 1055/5/3
f 1057/7/3 1042/7/3 1054/7/3
f 1057/5/3 1055/5/3 1042/5/3
f 1058/4/3 1056/4/3 1055/4/3
f 1058/5/3 1055/5/3 1057/5/3
f 1059/7/3 1053/7/3 1050/7/3
f 1060/3/3 1054/3/3 1053/3/3
f 1060/7/3 1053/7/3 1059/7/3
f 1061/7/3 1057/7/3 1054/7/3
f 1061/3/3 1054/3/3 1060/3/3
f 1062/4/3 1058/4/3 1057/4/3
f 1062/7/3 1057/7/3 1061/7/3
f 1063/4/3 1056/4/3 1058/4/3
f 1063/4/3 1058/4/3 1062/4/3
f 1071/3/3 1065/3/3 1064/3/3
f 1072/6/3 1066/6/3 1065/6/3
f 1072/3/3 1065/3/3 1071/3/3
f 1073/3/3 1067/3/3 1066/3/3
f 1073/6/3 1066/6/3 1072/6/3
f 1074/4/3 1068/4/3 1067/4/3
f 1074/3/3 1067/3/3 1073/3/3
f 1076/6/3 1072/6/3 1071/6/3
f 1076/6/3 1073/6/3 1072/6/3
f 1076/6/3 1074/6/3 1073/6/3
f 1077/6/3 1074/6/3 1076/6/3
f 1078/6/3 1074/6/3 1077/6/3
f 1079/4/3 1068/4/3 1074/4/3
f 1079/6/3 1074/6/3 1078/6/3
f 1080/6/3 1069/6/3 1068/6/3
f 1080/4/3 1068/4/3 1079/4/3
f 1081/7/3 1070/7/3 1069/7/3
f 1081/6/3 1069/6/3 1080/6/3
f 1082/7/3 1070/7/3 1081/7/3
f 1083/7/3 1070/7/3 1082/7/3
f 1086/6/3 1076/6/3 1075/6/3
f 1086/6/3 1077/6/3 1076/6/3
f 1087/7/3 1084/7/3 1083/7/3
f 1087/7/3 1083/7/3 1082/7/3
f 1088/6/3 1085/6/3 1084/6/3
f 1088/7/3 1084/7/3 1087/7/3
f 1090/6/3 1086/6/3 1075/6/3
f 1091/6/3 1086/6/3 1090/6/3
f 1092/6/3 1086/6/3 1091/6/3
f 1093/6/3 1086/6/3 1092/6/3
f 1094/6/3 1088/6/3 1087/6/3
f 1095/6/3 1088/6/3 1094/6/3
f 1096/6/3 1088/6/3 1095/6/3
f 1097/6/3 1085/6/3 1088/6/3
f 1097/6/3 1088/6/3 1096/6/3
f 1099/6/3 1090/6/3 1089/6/3
f 1099/6/3 1091/6/3 1090/6/3
f 1100/6/3 1091/6/3 1099/6/3
f 1101/6/3 1098/6/3 1097/6/3
f 1101/6/3 1097/6/3 1096/6/3
f 1102/6/3 1098/6/3 1101/6/3
f 1103/6/3 1099/6/3 1089/6/3
f 1104/6/3 1099/6/3 1103/6/3
f 1105/6/3 1098/6/3 1102/6/3
f 1106/6/3 1098/6/3 1105/6/3
f 1107/5/3 1106/5/3 1105/5/3
f 1108/5/3 1106/5/3 1107/5/3
f 1110/3/3 1104/3/3 1103/3/3
f 1111/3/3 1104/3/3 1110/3/3
f 1112/5/3 1106/5/3 1108/5/3
f 1115/5/3 1112/5/3 1108/5/3
f 1115/5/3 1113/5/3 1112/5/3
f 1116/7/3 1114/7/3 1113/7/3
f 1116/5/3 1113/5/3 1115/5/3
f 1117/7/3 1114/7/3 1116/7/3
f 1118/7/3 1111/7/3 1110/7/3
f 1118/7/3 1110/7/3 1109/7/3
f 1119/7/3 1111/7/3 1118/7/3
f 1120/5/3 1119/5/3 1118/5/3
f 1121/5/3 1119/5/3 1120/5/3
f 1122/3/3 1117/3/3 1116/3/3
f 1122/3/3 1116/3/3 1115/3/3
f 1123/3/3 1117/3/3 1122/3/3
f 1124/3/3 1117/3/3 1123/3/3
f 1125/3/3 1117/3/3 1124/3/3
f 1126/7/3 1125/7/3 1124/7/3
f 1126/5/3 1124/5/3 1123/5/3
f 1127/7/3 1125/7/3 1126/7/3
f 1128/5/3 1120/5/3 1118/5/3
f 1129/5/3 1120/5/3 1128/5/3
f 1130/7/3 1129/7/3 1128/7/3
f 1131/7/3 1129/7/3 1130/7/3
f 1132/5/3 1131/5/3 1130/5/3
f 1135/5/3 1126/5/3 1123/5/3
f 1135/5/3 1127/5/3 1126/5/3
f 1136/5/3 1135/5/3 1134/5/3
f 1137/5/3 1135/5/3 1136/5/3
f 1138/7/3 1137/7/3 1136/7/3
f 1139/7/3 1130/7/3 1128/7/3
f 1140/5/3 1133/5/3 1132/5/3
f 1140/7/3 1130/7/3 1139/7/3
f 1140/5/3 1132/5/3 1130/5/3
f 1141/5/3 1133/5/3 1140/5/3
f 1142/5/3 1133/5/3 1141/5/3
f 1143/5/3 1133/5/3 1142/5/3
f 1144/7/3 1137/7/3 1138/7/3
f 1144/5/3 1135/5/3 1137/5/3
f 1145/5/3 1127/5/3 1135/5/3
f 1145/5/3 1135/5/3 1144/5/3
f 1146/5/3 1127/5/3 1145/5/3
f 1148/7/3 1144/7/3 1138/7/3
f 1148/7/3 1145/7/3 1144/7/3
f 1149/5/3 1142/5/3 1141/5/3
f 1150/4/3 1143/4/3 1142/4/3
f 1150/5/3 1142/5/3 1149/5/3
f 1151/4/3 1143/4/3 1150/4/3
f 1152/4/3 1150/4/3 1149/4/3
f 1152/4/3 1151/4/3 1150/4/3
f 1155/7/3 1148/7/3 1147/7/3
f 1156/7/3 1155/7/3 1154/7/3
f 1157/4/3 1153/4/3 1152/4/3
f 1157/4/3 1152/4/3 1149/4/3
f 1158/4/3 1153/4/3 1157/4/3
f 1159/4/3 1153/4/3 1158/4/3
f 1163/7/3 1155/7/3 1156/7/3
f 1164/7/3 1148/7/3 1155/7/3
f 1164/7/3 1155/7/3 1163/7/3
f 1165/7/3 1145/7/3 1148/7/3
f 1165/7/3 1148/7/3 1164/7/3
f 1166/7/3 1164/7/3 1163/7/3
f 1166/7/3 1163/7/3 1162/7/3
f 1167/7/3 1164/7/3 1166/7/3
f 1168/7/3 1159/7/3 1158/7/3
f 1169/4/3 1161/4/3 1160/4/3
f 1169/7/3 1159/7/3 1168/7/3
f 1169/4/3 1160/4/3 1159/4/3
f 1170/4/3 1161/4/3 1169/4/3
f 1171/4/3 1161/4/3 1170/4/3
f 1176/4/3 1167/4/3 1166/4/3
f 1177/4/3 1167/4/3 1176/4/3
f 1178/4/3 1167/4/3 1177/4/3
f 1179/4/3 1175/4/3 1174/4/3
f 1179/4/3 1171/4/3 1170/4/3
f 1179/4/3 1172/4/3 1171/4/3
f 1179/4/3 1174/4/3 1173/4/3
f 1179/4/3 1173/4/3 1172/4/3
f 1180/7/3 1177/7/3 1176/7/3
f 1180/4/3 1175/4/3 1179/4/3
f 1180/7/3 1176/7/3 1175/7/3
f 1181/7/3 1177/7/3 1180/7/3
f 1188/7/3 1185/7/3 1184/7/3
f 1189/6/3 1186/6/3 1185/6/3
f 1189/7/3 1185/7/3 1188/7/3
f 1193/5/3 1183/5/3 1182/5/3
f 1194/6/3 1184/6/3 1183/6/3
f 1194/5/3 1183/5/3 1193/5/3
f 1195/7/3 1188/7/3 1184/7/3
f 1195/6/3 1184/6/3 1194/6/3
f 1196/4/3 1189/4/3 1188/4/3
f 1196/7/3 1188/7/3 1195/7/3
f 1197/6/3 1186/6/3 1189/6/3
f 1197/4/3 1189/4/3 1196/4/3
f 1198/7/3 1187/7/3 1186/7/3
f 1198/6/3 1186/6/3 1197/6/3
f 1199/7/3 1187/7/3 1198/7/3
f 1202/5/3 1191/5/3 1190/5/3
f 1203/6/3 1192/6/3 1191/6/3
f 1203/5/3 1191/5/3 1202/5/3
f 1204/5/3 1193/5/3 1192/5/3
f 1204/6/3 1192/6/3 1203/6/3
f 1205/5/3 1193/5/3 1204/5/3
f 1207/6/3 1203/6/3 1202/6/3
f 1207/6/3 1204/6/3 1203/6/3
f 1207/6/3 1205/6/3 1204/6/3
f 1208/6/3 1205/6/3 1207/6/3
f 1209/7/3 1200/7/3 1199/7/3
f 1210/6/3 1201/6/3 1200/6/3
f 1210/7/3 1200/7/3 1209/7/3
f 1211/6/3 1201/6/3 1210/6/3
f 1214/6/3 1207/6/3 1206/6/3
f 1215/6/3 1207/6/3 1214/6/3
f 1216/6/3 1212/6/3 1211/6/3
f 1217/6/3 1212/6/3 1216/6/3
f 1220/6/3 1214/6/3 1213/6/3
f 1221/6/3 1214/6/3 1220/6/3
f 1222/6/3 1218/6/3 1217/6/3
f 1223/7/3 1219/7/3 1218/7/3
f 1223/6/3 1218/6/3 1222/6/3
f 1224/6/3 1220/6/3 1213/6/3
f 1225/3/3 1221/3/3 1220/3/3
f 1225/6/3 1220/6/3 1224/6/3
f 1228/7/3 1225/7/3 1224/7/3
f 1229/3/3 1221/3/3 1225/3/3
f 1229/7/3 1225/7/3 1228/7/3
f 1230/3/3 1221/3/3 1229/3/3
f 1231/5/3 1223/5/3 1222/5/3
f 1232/7/3 1219/7/3 1223/7/3
f 1232/5/3 1223/5/3 1231/5/3
f 1233/7/3 1219/7/3 1232/7/3
f 1235/5/3 1227/5/3 1226/5/3
f 1235/7/3 1228/7/3 1227/7/3
f 1236/7/3 1228/7/3 1235/7/3
f 1237/7/3 1234/7/3 1233/7/3
f 1238/7/3 1234/7/3 1237/7/3
f 1239/4/3 1238/4/3 1237/4/3
f 1240/5/3 1236/5/3 1235/5/3
f 1240/5/3 1235/5/3 1226/5/3
f 1241/5/3 1236/5/3 1240/5/3
f 1242/4/3 1238/4/3 1239/4/3
f 1242/7/3 1234/7/3 1238/7/3
f 1243/7/3 1234/7/3 1242/7/3
f 1244/7/3 1241/7/3 1240/7/3
f 1245/7/3 1241/7/3 1244/7/3
f 1249/4/3 1242/4/3 1239/4/3
f 1250/5/3 1243/5/3 1242/5/3
f 1250/4/3 1242/4/3 1249/4/3
f 1251/5/3 1243/5/3 1250/5/3
f 1252/7/3 1246/7/3 1245/7/3
f 1253/5/3 1247/5/3 1246/5/3
f 1253/7/3 1246/7/3 1252/7/3
f 1254/5/3 1247/5/3 1253/5/3
f 1255/7/3 1252/7/3 1245/7/3
f 1256/4/3 1253/4/3 1252/4/3
f 1256/7/3 1252/7/3 1255/7/3
f 1256/4/3 1254/4/3 1253/4/3
f 1257/5/3 1256/5/3 1255/5/3
f 1258/4/3 1254/4/3 1256/4/3
f 1258/5/3 1256/5/3 1257/5/3
f 1259/4/3 1254/4/3 1258/4/3
f 1262/7/3 1249/7/3 1248/7/3
f 1263/7/3 1249/7/3 1262/7/3
f 1264/7/3 1260/7/3 1259/7/3
f 1265/7/3 1260/7/3 1264/7/3
f 1269/7/3 1262/7/3 1261/7/3
f 1270/7/3 1262/7/3 1269/7/3
f 1271/4/3 1267/4/3 1266/4/3
f 1271/7/3 1266/7/3 1265/7/3
f 1272/4/3 1267/4/3 1271/4/3
f 1273/4/3 1267/4/3 1272/4/3
f 1274/7/3 1271/7/3 1265/7/3
f 1275/5/3 1272/5/3 1271/5/3
f 1275/7/3 1271/7/3 1274/7/3
f 1276/7/3 1273/7/3 1272/7/3
f 1276/5/3 1272/5/3 1275/5/3
f 1277/7/3 1273/7/3 1276/7/3
f 1279/7/3 1269/7/3 1268/7/3
f 1280/7/3 1269/7/3 1279/7/3
f 1281/7/3 1278/7/3 1277/7/3
f 1282/5/3 1279/5/3 1278/5/3
f 1282/7/3 1278/7/3 1281/7/3
f 1283/5/3 1279/5/3 1282/5/3
f 1286/8/3 1285/8/3 1284/8/3
f 1287/8/3 1285/8/3 1286/8/3
f 1292/6/3 1289/6/3 1288/6/3
f 1292/5/3 1290/5/3 1289/5/3
f 1293/3/3 1291/3/3 1290/3/3
f 1293/5/3 1290/5/3 1292/5/3
f 1294/3/3 1291/3/3 1293/3/3
f 1295/3/3 1291/3/3 1294/3/3
f 1296/3/3 1291/3/3 1295/3/3
f 1301/6/3 1292/6/3 1288/6/3
f 1302/7/3 1293/7/3 1292/7/3
f 1302/6/3 1292/6/3 1301/6/3
f 1302/7/3 1294/7/3 1293/7/3
f 1303/6/3 1295/6/3 1294/6/3
f 1303/7/3 1294/7/3 1302/7/3
f 1304/7/3 1296/7/3 1295/7/3
f 1304/6/3 1295/6/3 1303/6/3
f 1305/7/3 1296/7/3 1304/7/3
f 1310/7/3 1309/7/3 1308/7/3
f 1310/3/3 1308/3/3 1307/3/3
f 1311/7/3 1309/7/3 1310/7/3
f 1312/7/3 1307/7/3 1306/7/3
f 1312/3/3 1310/3/3 1307/3/3
f 1313/4/3 1311/4/3 1310/4/3
f 1313/3/3 1310/3/3 1312/3/3
f 1314/4/3 1311/4/3 1313/4/3
f 1316/5/3 1298/5/3 1297/5/3
f 1317/6/3 1299/6/3 1298/6/3
f 1317/5/3 1298/5/3 1316/5/3
f 1318/5/3 1300/5/3 1299/5/3
f 1318/6/3 1299/6/3 1317/6/3
f 1319/5/3 1300/5/3 1318/5/3
f 1320/7/3 1312/7/3 1306/7/3
f 1321/6/3 1313/6/3 1312/6/3
f 1321/7/3 1312/7/3 1320/7/3
f 1321/6/3 1314/6/3 1313/6/3
f 1322/6/3 1314/6/3 1321/6/3
f 1324/5/3 1316/5/3 1315/5/3
f 1325/5/3 1316/5/3 1324/5/3
f 1327/6/3 1325/6/3 1324/6/3
f 1328/6/3 1325/6/3 1327/6/3
f 1329/6/3 1323/6/3 1322/6/3
f 1330/6/3 1323/6/3 1329/6/3
f 1333/6/3 1327/6/3 1326/6/3
f 1334/6/3 1327/6/3 1333/6/3
f 1335/6/3 1331/6/3 1330/6/3
f 1336/6/3 1331/6/3 1335/6/3
f 1337/6/3 1331/6/3 1336/6/3
f 1339/6/3 1333/6/3 1332/6/3
f 1340/6/3 1333/6/3 1339/6/3
f 1341/5/3 1340/5/3 1339/5/3
f 1342/5/3 1340/5/3 1341/5/3
f 1343/7/3 1338/7/3 1337/7/3
f 1344/7/3 1338/7/3 1343/7/3
f 1349/5/3 1346/5/3 1345/5/3
f 1350/5/3 1346/5/3 1349/5/3
f 1351/7/3 1348/7/3 1347/7/3
f 1352/7/3 1348/7/3 1351/7/3
f 1353/5/3 1349/5/3 1345/5/3
f 1354/7/3 1350/7/3 1349/7/3
f 1354/5/3 1349/5/3 1353/5/3
f 1355/7/3 1350/7/3 1354/7/3
f 1356/5/3 1352/5/3 1351/5/3
f 1357/5/3 1352/5/3 1356/5/3
f 1363/7/3 1359/7/3 1358/7/3
f 1364/7/3 1359/7/3 1363/7/3
f 1365/4/3 1361/4/3 1360/4/3
f 1366/7/3 1362/7/3 1361/7/3
f 1366/4/3 1361/4/3 1365/4/3
f 1367/5/3 1364/5/3 1363/5/3
f 1368/5/3 1364/5/3 1367/5/3
f 1372/7/3 1366/7/3 1365/7/3
f 1373/7/3 1362/7/3 1366/7/3
f 1373/7/3 1366/7/3 1372/7/3
f 1374/5/3 1369/5/3 1368/5/3
f 1375/4/3 1370/4/3 1369/4/3
f 1375/5/3 1369/5/3 1374/5/3
f 1376/4/3 1370/4/3 1375/4/3
f 1379/7/3 1372/7/3 1371/7/3
f 1380/7/3 1372/7/3 1379/7/3
f 1381/7/3 1377/7/3 1376/7/3
f 1382/7/3 1377/7/3 1381/7/3
f 1387/7/3 1379/7/3 1378/7/3
f 1388/7/3 1379/7/3 1387/7/3
f 1389/7/3 1383/7/3 1382/7/3
f 1390/5/3 1384/5/3 1383/5/3
f 1390/7/3 1383/7/3 1389/7/3
f 1391/7/3 1385/7/3 1384/7/3
f 1391/5/3 1384/5/3 1390/5/3
f 1392/7/3 1385/7/3 1391/7/3
f 1397/7/3 1387/7/3 1386/7/3
f 1398/7/3 1387/7/3 1397/7/3
f 1399/5/3 1395/5/3 1394/5/3
f 1399/7/3 1394/7/3 1393/7/3
f 1400/7/3 1396/7/3 1395/7/3
f 1400/5/3 1395/5/3 1399/5/3
f 1401/7/3 1399/7/3 1393/7/3
f 1401/7/3 1400/7/3 1399/7/3
f 1402/7/3 1396/7/3 1400/7/3
f 1402/7/3 1400/7/3 1401/7/3
f 1408/3/3 1407/3/3 1406/3/3
f 1409/3/3 1407/3/3 1408/3/3
f 1412/5/3 1404/5/3 1403/5/3
f 1413/6/3 1405/6/3 1404/6/3
f 1413/5/3 1404/5/3 1412/5/3
f 1414/6/3 1405/6/3 1413/6/3
f 1415/6/3 1409/6/3 1408/6/3
f 1416/3/3 1407/3/3 1409/3/3
f 1416/6/3 1409/6/3 1415/6/3
f 1417/3/3 1407/3/3 1416/3/3
f 1420/7/3 1419/7/3 1418/7/3
f 1421/7/3 1419/7/3 1420/7/3
f 1422/4/3 1421/4/3 1420/4/3
f 1423/7/3 1419/7/3 1421/7/3
f 1423/4/3 1421/4/3 1422/4/3
f 1424/7/3 1419/7/3 1423/7/3
f 1426/5/3 1411/5/3 1410/5/3
f 1427/5/3 1411/5/3 1426/5/3
f 1428/6/3 1423/6/3 1422/6/3
f 1428/6/3 1424/6/3 1423/6/3
f 1429/6/3 1424/6/3 1428/6/3
f 1431/5/3 1426/5/3 1425/5/3
f 1432/5/3 1426/5/3 1431/5/3
f 1434/6/3 1432/6/3 1431/6/3
f 1435/6/3 1432/6/3 1434/6/3
f 1436/6/3 1430/6/3 1429/6/3
f 1437/6/3 1430/6/3 1436/6/3
f 1439/7/3 1438/7/3 1437/7/3
f 1440/7/3 1438/7/3 1439/7/3
f 1441/6/3 1434/6/3 1433/6/3
f 1442/6/3 1434/6/3 1441/6/3
f 1443/4/3 1440/4/3 1439/4/3
f 1444/4/3 1440/4/3 1443/4/3
f 1450/6/3 1447/6/3 1446/6/3
f 1450/5/3 1446/5/3 1445/5/3
f 1451/6/3 1447/6/3 1450/6/3
f 1452/5/3 1450/5/3 1445/5/3
f 1452/5/3 1451/5/3 1450/5/3
f 1453/5/3 1451/5/3 1452/5/3
f 1454/7/3 1449/7/3 1448/7/3
f 1455/7/3 1449/7/3 1454/7/3
f 1461/5/3 1460/5/3 1459/5/3
f 1462/5/3 1460/5/3 1461/5/3
f 1463/5/3 1457/5/3 1456/5/3
f 1464/7/3 1458/7/3 1457/7/3
f 1464/5/3 1457/5/3 1463/5/3
f 1465/7/3 1458/7/3 1464/7/3
f 1466/7/3 1462/7/3 1461/7/3
f 1467/5/3 1460/5/3 1462/5/3
f 1467/7/3 1462/7/3 1466/7/3
f 1468/5/3 1460/5/3 1467/5/3
f 1473/5/3 1470/5/3 1469/5/3
f 1474/5/3 1470/5/3 1473/5/3
f 1478/7/3 1472/7/3 1471/7/3
f 1479/7/3 1472/7/3 1478/7/3
f 1480/4/3 1476/4/3 1475/4/3
f 1480/5/3 1475/5/3 1474/5/3
f 1481/4/3 1476/4/3 1480/4/3
f 1482/5/3 1480/5/3 1474/5/3
f 1482/5/3 1481/5/3 1480/5/3
f 1483/5/3 1481/5/3 1482/5/3
f 1486/7/3 1478/7/3 1477/7/3
f 1487/7/3 1478/7/3 1486/7/3
f 1488/7/3 1484/7/3 1483/7/3
f 1489/7/3 1484/7/3 1488/7/3
f 1495/7/3 1486/7/3 1485/7/3
f 1496/7/3 1486/7/3 1495/7/3
f 1497/5/3 1491/5/3 1490/5/3
f 1498/7/3 1492/7/3 1491/7/3
f 1498/5/3 1491/5/3 1497/5/3
f 1499/7/3 1492/7/3 1498/7/3
f 1500/7/3 1494/7/3 1493/7/3
f 1501/7/3 1494/7/3 1500/7/3
f 1508/6/3 1503/6/3 1502/6/3
f 1509/5/3 1504/5/3 1503/5/3
f 1509/6/3 1503/6/3 1508/6/3
f 1510/3/3 1505/3/3 1504/3/3
f 1510/5/3 1504/5/3 1509/5/3
f 1511/3/3 1505/3/3 1510/3/3
f 1514/5/3 1513/5/3 1512/5/3
f 1515/5/3 1513/5/3 1514/5/3
f 1516/5/3 1507/5/3 1506/5/3
f 1517/5/3 1507/5/3 1516/5/3
f 1518/7/3 1515/7/3 1514/7/3
f 1519/7/3 1515/7/3 1518/7/3
f 1524/5/3 1521/5/3 1520/5/3
f 1525/5/3 1521/5/3 1524/5/3
f 1526/4/3 1523/4/3 1522/4/3
f 1527/4/3 1523/4/3 1526/4/3
f 1532/7/3 1531/7/3 1530/7/3
f 1533/7/3 1531/7/3 1532/7/3
f 1534/5/3 1529/5/3 1528/5/3
f 1535/5/3 1529/5/3 1534/5/3
f 1536/5/3 1533/5/3 1532/5/3
f 1537/5/3 1533/5/3 1536/5/3
f 1543/5/3 1539/5/3 1538/5/3
f 1543/7/3 1540/7/3 1539/7/3
f 1544/7/3 1540/7/3 1543/7/3
f 1545/5/3 1543/5/3 1538/5/3
f 1545/5/3 1544/5/3 1543/5/3
f 1546/5/3 1544/5/3 1545/5/3
f 1547/4/3 1542/4/3 1541/4/3
f 1548/4/3 1542/4/3 1547/4/3
f 1553/7/3 1550/7/3 1549/7/3
f 1554/7/3 1550/7/3 1553/7/3
f 1558/7/3 1552/7/3 1551/7/3
f 1559/7/3 1552/7/3 1558/7/3
f 1560/5/3 1556/5/3 1555/5/3
f 1561/7/3 1557/7/3 1556/7/3
f 1561/5/3 1556/5/3 1560/5/3
f 1562/7/3 1557/7/3 1561/7/3
f 1568/5/3 1564/5/3 1563/5/3
f 1569/6/3 1565/6/3 1564/6/3
f 1569/5/3 1564/5/3 1568/5/3
f 1570/6/3 1569/6/3 1568/6/3
f 1571/6/3 1565/6/3 1569/6/3
f 1571/6/3 1569/6/3 1570/6/3
f 1572/6/3 1565/6/3 1571/6/3
f 1573/3/3 1567/3/3 1566/3/3
f 1574/3/3 1567/3/3 1573/3/3
f 1579/7/3 1578/7/3 1577/7/3
f 1580/7/3 1578/7/3 1579/7/3
f 1582/6/3 1576/6/3 1575/6/3
f 1583/6/3 1576/6/3 1582/6/3
f 1584/6/3 1580/6/3 1579/6/3
f 1585/6/3 1580/6/3 1584/6/3
f 1587/6/3 1582/6/3 1581/6/3
f 1588/6/3 1582/6/3 1587/6/3
f 1589/7/3 1586/7/3 1585/7/3
f 1590/7/3 1586/7/3 1589/7/3
f 1596/6/3 1593/6/3 1592/6/3
f 1596/5/3 1592/5/3 1591/5/3
f 1597/6/3 1593/6/3 1596/6/3
f 1598/5/3 1596/5/3 1591/5/3
f 1598/5/3 1597/5/3 1596/5/3
f 1599/5/3 1597/5/3 1598/5/3
f 1600/7/3 1595/7/3 1594/7/3
f 1601/7/3 1595/7/3 1600/7/3
f 1606/5/3 1603/5/3 1602/5/3
f 1607/5/3 1603/5/3 1606/5/3
f 1608/5/3 1605/5/3 1604/5/3
f 1609/5/3 1605/5/3 1608/5/3
f 1614/5/3 1611/5/3 1610/5/3
f 1615/5/3 1611/5/3 1614/5/3
f 1618/4/3 1613/4/3 1612/4/3
f 1619/4/3 1613/4/3 1618/4/3
f 1620/5/3 1616/5/3 1615/5/3
f 1621/5/3 1616/5/3 1620/5/3
f 1622/4/3 1618/4/3 1617/4/3
f 1623/4/3 1618/4/3 1622/4/3
f 1628/5/3 1625/5/3 1624/5/3
f 1629/5/3 1625/5/3 1628/5/3
f 1630/5/3 1627/5/3 1626/5/3
f 1631/5/3 1627/5/3 1630/5/3
f 1638/5/3 1633/5/3 1632/5/3
f 1639/5/3 1633/5/3 1638/5/3
f 1640/3/3 1635/3/3 1634/3/3
f 1641/3/3 1635/3/3 1640/3/3
f 1644/5/3 1643/5/3 1642/5/3
f 1645/5/3 1643/5/3 1644/5/3
f 1646/5/3 1637/5/3 1636/5/3
f 1647/5/3 1637/5/3 1646/5/3
f 1648/7/3 1645/7/3 1644/7/3
f 1649/7/3 1645/7/3 1648/7/3
f 1654/7/3 1653/7/3 1652/7/3
f 1655/7/3 1653/7/3 1654/7/3
f 1656/5/3 1651/5/3 1650/5/3
f 1657/5/3 1651/5/3 1656/5/3
f 1658/4/3 1655/4/3 1654/4/3
f 1659/4/3 1655/4/3 1658/4/3
f 1664/5/3 1661/5/3 1660/5/3
f 1665/5/3 1661/5/3 1664/5/3
f 1666/7/3 1663/7/3 1662/7/3
f 1667/7/3 1663/7/3 1666/7/3
f 1672/5/3 1669/5/3 1668/5/3
f 1673/5/3 1669/5/3 1672/5/3
f 1674/5/3 1671/5/3 1670/5/3
f 1675/5/3 1671/5/3 1674/5/3
f 1680/5/3 1677/5/3 1676/5/3
f 1681/5/3 1677/5/3 1680/5/3
f 1682/4/3 1679/4/3 1678/4/3
f 1683/4/3 1679/4/3 1682/4/3
f 1689/7/3 1685/7/3 1684/7/3
f 1690/7/3 1685/7/3 1689/7/3
f 1695/5/3 1688/5/3 1687/5/3
f 1695/5/3 1687/5/3 1686/5/3
f 1696/5/3 1688/5/3 1695/5/3
f 1697/5/3 1692/5/3 1691/5/3
f 1698/5/3 1692/5/3 1697/5/3
f 1699/5/3 1694/5/3 1693/5/3
f 1700/5/3 1694/5/3 1699/5/3
f 1701/5/4 1702/5/4 1704/5/4
f 1704/5/4 1702/5/4 1705/5/4
f 1703/5/4 1704/5/4 1708/5/4
f 1705/5/4 1706/5/4 1708/5/4
f 1704/5/4 1705/5/4 1708/5/4
f 1708/5/4 1706/5/4 1709/5/4
f 1707/5/4 1708/5/4 1712/5/4
f 1709/5/4 1710/5/4 1712/5/4
f 1708/5/4 1709/5/4 1712/5/4
f 1712/5/4 1710/5/4 1713/5/4
f 1711/5/4 1712/5/4 1716/5/4
f 1713/5/4 1714/5/4 1716/5/4
f 1712/5/4 1713/5/4 1716/5/4
f 1716/5/4 1714/5/4 1717/5/4
f 1715/5/4 1716/5/4 1719/5/4
f 1717/5/4 1718/5/4 1719/5/4
f 1716/5/4 1717/5/4 1719/5/4
f 1719/5/4 1718/5/4 1720/5/4
f 1715/5/4 1719/5/4 1722/5/4
f 1719/7/4 1720/7/4 1723/7/4
f 1721/5/4 1722/5/4 1725/5/4
f 1722/5/4 1719/5/4 1725/5/4
f 1719/7/4 1723/7/4 1726/7/4
f 1725/5/4 1719/5/4 1726/5/4
f 1723/7/4 1724/7/4 1726/7/4
f 1726/7/4 1724/7/4 1727/7/4
f 1721/5/4 1725/5/4 1728/5/4
f 1728/5/4 1725/5/4 1729/5/4
f 1725/4/4 1726/4/4 1730/4/4
f 1726/4/4 1727/4/4 1730/4/4
f 1730/4/4 1727/4/4 1731/4/4
f 1729/5/4 1725/5/4 1732/5/4
f 1732/5/4 1725/5/4 1733/5/4
f 1725/4/4 1730/4/4 1734/4/4
f 1734/4/4 1730/4/4 1735/4/4
f 1733/5/4 1725/5/4 1736/5/4
f 1736/5/4 1725/5/4 1737/5/4
f 1737/5/4 1725/5/4 1738/5/4
f 1725/4/4 1734/4/4 1739/4/4
f 1738/5/4 1725/5/4 1739/5/4
f 1739/4/4 1734/4/4 1740/4/4
f 1737/5/4 1738/5/4 1741/5/4
f 1741/5/4 1738/5/4 1742/5/4
f 1742/5/4 1738/5/4 1743/5/4
f 1743/5/4 1738/5/4 1744/5/4
f 1742/5/4 1743/5/4 1745/5/4
f 1745/5/4 1743/5/4 1746/5/4
f 1746/5/4 1743/5/4 1747/5/4
f 1747/5/4 1743/5/4 1748/5/4
f 1746/5/4 1747/5/4 1749/5/4
f 1749/5/4 1747/5/4 1750/5/4
f 1754/5/5 1752/5/5 1751/5/5
f 1755/5/5 1752/5/5 1754/5/5
f 1758/5/5 1754/5/5 1753/5/5
f 1758/5/5 1756/5/5 1755/5/5
f 1758/5/5 1755/5/5 1754/5/5
f 1759/5/5 1756/5/5 1758/5/5
f 1761/5/5 1758/5/5 1757/5/5
f 1761/5/5 1760/5/5 1759/5/5
f 1761/5/5 1759/5/5 1758/5/5
f 1762/5/5 1760/5/5 1761/5/5
f 1766/5/5 1764/5/5 1763/5/5
f 1767/5/5 1764/5/5 1766/5/5
f 1770/5/5 1766/5/5 1765/5/5
f 1770/5/5 1768/5/5 1767/5/5
f 1770/5/5 1767/5/5 1766/5/5
f 1771/5/5 1768/5/5 1770/5/5
f 1772/5/5 1768/5/5 1771/5/5
f 1773/5/5 1768/5/5 1772/5/5
f 1775/5/5 1770/5/5 1769/5/5
f 1775/5/5 1771/5/5 1770/5/5
f 1776/5/5 1771/5/5 1775/5/5
f 1777/5/5 1771/5/5 1776/5/5
f 1778/5/5 1771/5/5 1777/5/5
f 1779/5/5 1774/5/5 1773/5/5
f 1779/5/5 1773/5/5 1772/5/5
f 1780/5/5 1774/5/5 1779/5/5
f 1781/6/5 1776/6/5 1775/6/5
f 1782/6/5 1776/6/5 1781/6/5
f 1784/5/5 1782/5/5 1781/5/5
f 1785/5/5 1782/5/5 1784/5/5
f 1786/5/5 1782/5/5 1785/5/5
f 1787/5/5 1774/5/5 1780/5/5
f 1788/5/5 1774/5/5 1787/5/5
f 1789/5/5 1774/5/5 1788/5/5
f 1791/5/5 1785/5/5 1784/5/5
f 1791/5/5 1784/5/5 1783/5/5
f 1792/5/5 1785/5/5 1791/5/5
f 1793/5/5 1790/5/5 1789/5/5
f 1793/5/5 1789/5/5 1788/5/5
f 1794/5/5 1790/5/5 1793/5/5
f 1800/5/5 1796/5/5 1795/5/5
f 1801/5/5 1796/5/5 1800/5/5
f 1802/7/5 1797/7/5 1796/7/5
f 1802/5/5 1796/5/5 1801/5/5
f 1803/7/5 1797/7/5 1802/7/5
f 1804/7/5 1797/7/5 1803/7/5
f 1808/6/5 1799/6/5 1798/6/5
f 1809/6/5 1799/6/5 1808/6/5
f 1810/5/5 1801/5/5 1800/5/5
f 1810/6/5 1799/6/5 1809/6/5
f 1810/5/5 1800/5/5 1799/5/5
f 1811/5/5 1801/5/5 1810/5/5
f 1812/7/5 1804/7/5 1803/7/5
f 1812/7/5 1805/7/5 1804/7/5
f 1813/7/5 1805/7/5 1812/7/5
f 1814/5/5 1806/5/5 1805/5/5
f 1816/6/5 1809/6/5 1808/6/5
f 1816/6/5 1808/6/5 1807/6/5
f 1817/6/5 1809/6/5 1816/6/5
f 1818/5/5 1817/5/5 1816/5/5
f 1819/5/5 1817/5/5 1818/5/5
f 1820/7/5 1805/7/5 1813/7/5
f 1821/5/5 1815/5/5 1814/5/5
f 1821/7/5 1805/7/5 1820/7/5
f 1821/5/5 1814/5/5 1805/5/5
f 1822/5/5 1815/5/5 1821/5/5
f 1824/5/5 1818/5/5 1816/5/5
f 1825/5/5 1818/5/5 1824/5/5
f 1826/5/5 1815/5/5 1822/5/5
f 1828/6/5 1825/6/5 1824/6/5
f 1828/6/5 1824/6/5 1823/6/5
f 1829/6/5 1825/6/5 1828/6/5
f 1830/5/5 1829/5/5 1828/5/5
f 1831/5/5 1829/5/5 1830/5/5
f 1832/5/5 1827/5/5 1826/5/5
f 1832/5/5 1826/5/5 1822/5/5
f 1833/5/5 1827/5/5 1832/5/5
f 1834/5/5 1830/5/5 1828/5/5
f 1835/5/5 1830/5/5 1834/5/5
f 1836/5/5 1827/5/5 1833/5/5
f 1837/5/5 1827/5/5 1836/5/5
f 1844/7/5 1839/7/5 1838/7/5
f 1845/5/5 1840/5/5 1839/5/5
f 1845/7/5 1839/7/5 1844/7/5
f 1846/7/5 1841/7/5 1840/7/5
f 1846/5/5 1840/5/5 1845/5/5
f 1847/7/5 1841/7/5 1846/7/5
f 1850/6/5 1843/6/5 1842/6/5
f 1850/7/5 1844/7/5 1843/7/5
f 1851/7/5 1844/7/5 1850/7/5
f 1853/6/5 1850/6/5 1842/6/5
f 1854/5/5 1851/5/5 1850/5/5
f 1854/6/5 1850/6/5 1853/6/5
f 1855/5/5 1851/5/5 1854/5/5
f 1856/7/5 1848/7/5 1847/7/5
f 1857/5/5 1849/5/5 1848/5/5
f 1857/7/5 1848/7/5 1856/7/5
f 1858/5/5 1849/5/5 1857/5/5
f 1862/6/5 1853/6/5 1852/6/5
f 1863/6/5 1853/6/5 1862/6/5
f 1864/5/5 1859/5/5 1858/5/5
f 1865/5/5 1859/5/5 1864/5/5
f 1867/5/5 1861/5/5 1860/5/5
f 1867/6/5 1862/6/5 1861/6/5
f 1868/6/5 1862/6/5 1867/6/5
f 1870/5/5 1867/5/5 1860/5/5
f 1870/5/5 1868/5/5 1867/5/5
f 1871/5/5 1868/5/5 1870/5/5
f 1872/5/5 1866/5/5 1865/5/5
f 1873/5/5 1866/5/5 1872/5/5
f 1875/6/5 1870/6/5 1869/6/5
f 1876/6/5 1870/6/5 1875/6/5
f 1877/5/5 1876/5/5 1875/5/5
f 1878/5/5 1876/5/5 1877/5/5
f 1879/5/5 1874/5/5 1873/5/5
f 1880/5/5 1874/5/5 1879/5/5
f 1888/5/5 1882/5/5 1881/5/5
f 1889/7/5 1883/7/5 1882/7/5
f 1889/5/5 1882/5/5 1888/5/5
f 1890/5/5 1884/5/5 1883/5/5
f 1890/7/5 1883/7/5 1889/7/5
f 1891/5/5 1884/5/5 1890/5/5
f 1896/6/5 1886/6/5 1885/6/5
f 1897/3/5 1887/3/5 1886/3/5
f 1897/6/5 1886/6/5 1896/6/5
f 1898/3/5 1887/3/5 1897/3/5
f 1899/5/5 1893/5/5 1892/5/5
f 1900/4/5 1894/4/5 1893/4/5
f 1900/5/5 1893/5/5 1899/5/5
f 1901/4/5 1894/4/5 1900/4/5
f 1905/6/5 1896/6/5 1895/6/5
f 1906/6/5 1896/6/5 1905/6/5
f 1907/7/5 1902/7/5 1901/7/5
f 1908/7/5 1902/7/5 1907/7/5
f 1911/5/5 1904/5/5 1903/5/5
f 1912/6/5 1905/6/5 1904/6/5
f 1912/5/5 1904/5/5 1911/5/5
f 1913/6/5 1905/6/5 1912/6/5
f 1914/7/5 1909/7/5 1908/7/5
f 1915/7/5 1909/7/5 1914/7/5
f 1916/7/5 1909/7/5 1915/7/5
f 1918/5/5 1911/5/5 1910/5/5
f 1919/5/5 1911/5/5 1918/5/5
f 1920/7/5 1917/7/5 1916/7/5
f 1921/7/5 1917/7/5 1920/7/5
f 1926/7/5 1925/7/5 1924/7/5
f 1927/7/5 1925/7/5 1926/7/5
f 1928/5/5 1923/5/5 1922/5/5
f 1929/5/5 1923/5/5 1928/5/5
f 1930/5/5 1927/5/5 1926/5/5
f 1931/5/5 1927/5/5 1930/5/5
f 1941/5/5 1938/5/5 1937/5/5
f 1941/7/5 1939/7/5 1938/7/5
f 1942/4/5 1940/4/5 1939/4/5
f 1942/7/5 1939/7/5 1941/7/5
f 1945/7/5 1933/7/5 1932/7/5
f 1946/3/5 1934/3/5 1933/3/5
f 1946/7/5 1933/7/5 1945/7/5
f 1947/7/5 1935/7/5 1934/7/5
f 1947/3/5 1934/3/5 1946/3/5
f 1948/5/5 1936/5/5 1935/5/5
f 1948/7/5 1935/7/5 1947/7/5
f 1949/5/5 1936/5/5 1948/5/5
f 1950/5/5 1941/5/5 1937/5/5
f 1950/5/5 1942/5/5 1941/5/5
f 1951/5/5 1942/5/5 1950/5/5
f 1952/4/5 1940/4/5 1942/4/5
f 1952/5/5 1942/5/5 1951/5/5
f 1953/4/5 1940/4/5 1952/4/5
f 1958/6/5 1944/6/5 1943/6/5
f 1959/6/5 1944/6/5 1958/6/5
f 1960/7/5 1955/7/5 1954/7/5
f 1961/7/5 1955/7/5 1960/7/5
f 1964/5/5 1957/5/5 1956/5/5
f 1965/6/5 1958/6/5 1957/6/5
f 1965/5/5 1957/5/5 1964/5/5
f 1966/6/5 1958/6/5 1965/6/5
f 1967/7/5 1962/7/5 1961/7/5
f 1968/7/5 1962/7/5 1967/7/5
f 1970/5/5 1964/5/5 1963/5/5
f 1971/5/5 1964/5/5 1970/5/5
f 1972/7/5 1969/7/5 1968/7/5
f 1973/7/5 1969/7/5 1972/7/5
f 1978/5/5 1975/5/5 1974/5/5
f 1979/5/5 1975/5/5 1978/5/5
f 1980/6/5 1979/6/5 1978/6/5
f 1981/6/5 1979/6/5 1980/6/5
f 1982/5/5 1981/5/5 1980/5/5
f 1983/5/5 1981/5/5 1982/5/5
f 1984/7/5 1977/7/5 1976/7/5
f 1985/7/5 1977/7/5 1984/7/5
f 1992/2/5 1987/2/5 1986/2/5
f 1993/2/5 1987/2/5 1992/2/5
f 1994/2/5 1989/2/5 1988/2/5
f 1995/2/5 1989/2/5 1994/2/5
f 1998/3/5 1991/3/5 1990/3/5
f 1999/3/5 1991/3/5 1998/3/5
f 2000/4/5 1997/4/5 1996/4/5
f 2001/4/5 1997/4/5 2000/4/5
f 2006/5/5 2003/5/5 2002/5/5
f 2007/5/5 2003/5/5 2006/5/5
f 2008/5/5 2005/5/5 2004/5/5
f 2009/5/5 2005/5/5 2008/5/5
f 2014/5/5 2013/5/5 2012/5/5
f 2015/5/5 2013/5/5 2014/5/5
f 2016/5/5 2013/5/5 2015/5/5
f 2017/4/5 2016/4/5 2015/4/5
f 2018/4/5 2016/4/5 2017/4/5
f 2019/5/5 2011/5/5 2010/5/5
f 2020/5/5 2011/5/5 2019/5/5
f 2021/5/5 2018/5/5 2017/5/5
f 2022/5/5 2018/5/5 2021/5/5
f 2027/5/5 2024/5/5 2023/5/5
f 2028/5/5 2024/5/5 2027/5/5
f 2029/5/5 2026/5/5 2025/5/5
f 2030/5/5 2026/5/5 2029/5/5
f 2036/5/5 2032/5/5 2031/5/5
f 2037/5/5 2032/5/5 2036/5/5
f 2038/5/5 2034/5/5 2033/5/5
f 2039/3/5 2035/3/5 2034/3/5
f 2039/5/5 2034/5/5 2038/5/5
f 2040/3/5 2035/3/5 2039/3/5
f 2046/3/5 2042/3/5 2041/3/5
f 2047/6/5 2043/6/5 2042/6/5
f 2047/3/5 2042/3/5 2046/3/5
f 2048/4/5 2045/4/5 2044/4/5
f 2049/4/5 2045/4/5 2048/4/5
f 2051/5/5 2047/5/5 2046/5/5
f 2052/6/5 2043/6/5 2047/6/5
f 2052/5/5 2047/5/5 2051/5/5
f 2053/6/5 2043/6/5 2052/6/5
f 2054/4/5 2048/4/5 2044/4/5
f 2055/7/5 2049/7/5 2048/7/5
f 2055/4/5 2048/4/5 2054/4/5
f 2056/7/5 2049/7/5 2055/7/5
f 2058/5/5 2051/5/5 2050/5/5
f 2059/5/5 2051/5/5 2058/5/5
f 2060/7/5 2057/7/5 2056/7/5
f 2061/7/5 2057/7/5 2060/7/5
f 2067/6/5 2064/6/5 2063/6/5
f 2067/5/5 2063/5/5 2062/5/5
f 2068/6/5 2064/6/5 2067/6/5
f 2069/5/5 2067/5/5 2062/5/5
f 2069/5/5 2068/5/5 2067/5/5
f 2070/5/5 2068/5/5 2069/5/5
f 2071/5/5 2066/5/5 2065/5/5
f 2072/5/5 2066/5/5 2071/5/5
f 2081/5/5 2074/5/5 2073/5/5
f 2082/5/5 2074/5/5 2081/5/5
f 2083/5/5 2074/5/5 2082/5/5
f 2084/3/5 2076/3/5 2075/3/5
f 2085/3/5 2076/3/5 2084/3/5
f 2086/4/5 2077/4/5 2076/4/5
f 2086/3/5 2076/3/5 2085/3/5
f 2087/4/5 2077/4/5 2086/4/5
f 2090/6/5 2079/6/5 2078/6/5
f 2091/3/5 2080/3/5 2079/3/5
f 2091/6/5 2079/6/5 2090/6/5
f 2092/3/5 2080/3/5 2091/3/5
f 2093/7/5 2089/7/5 2088/7/5
f 2094/7/5 2089/7/5 2093/7/5
f 2099/6/5 2096/6/5 2095/6/5
f 2100/6/5 2096/6/5 2099/6/5
f 2101/7/5 2098/7/5 2097/7/5
f 2102/7/5 2098/7/5 2101/7/5
f 2107/6/5 2104/6/5 2103/6/5
f 2108/6/5 2104/6/5 2107/6/5
f 2109/5/5 2106/5/5 2105/5/5
f 2110/5/5 2106/5/5 2109/5/5
f 2113/2/5 2112/2/5 2111/2/5
f 2114/2/5 2112/2/5 2113/2/5
f 2115/8/5 2114/8/5 2113/8/5
f 2116/8/5 2114/8/5 2115/8/5
f 2121/2/5 2118/2/5 2117/2/5
f 2122/2/5 2118/2/5 2121/2/5
f 2123/2/5 2120/2/5 2119/2/5
f 2124/2/5 2120/2/5 2123/2/5
f 2129/2/5 2126/2/5 2125/2/5
f 2130/2/5 2126/2/5 2129/2/5
f 2131/2/5 2128/2/5 2127/2/5
f 2132/2/5 2128/2/5 2131/2/5
f 2133/2/6 2134/2/6 2135/2/6
f 2135/2/6 2134/2/6 2136/2/6
f 2135/8/6 2136/8/6 2137/8/6
f 2137/8/6 2136/8/6 2138/8/6
f 2139/5/6 2140/5/6 2145/5/6
f 2145/5/6 2140/5/6 2146/5/6
f 2141/5/6 2142/5/6 2147/5/6
f 2147/5/6 2142/5/6 2148/5/6
f 2150/4/6 2151/4/6 2152/4/6
f 2149/5/6 2150/5/6 2152/5/6
f 2152/4/6 2151/4/6 2153/4/6
f 2143/6/6 2144/6/6 2154/6/6
f 2154/6/6 2144/6/6 2155/6/6
f 2155/6/6 2144/6/6 2156/6/6
f 2149/5/6 2152/5/6 2157/5/6
f 2152/5/6 2153/5/6 2157/5/6
f 2153/4/6 2151/4/6 2158/4/6
f 2157/5/6 2153/5/6 2158/5/6
f 2158/4/6 2151/4/6 2159/4/6
f 2161/7/6 2162/7/6 2165/7/6
f 2160/3/6 2161/3/6 2165/3/6
f 2165/7/6 2162/7/6 2166/7/6
f 2160/3/6 2165/3/6 2167/3/6
f 2165/6/6 2166/6/6 2168/6/6
f 2167/3/6 2165/3/6 2168/3/6
f 2168/6/6 2166/6/6 2169/6/6
f 2163/7/6 2164/7/6 2170/7/6
f 2170/7/6 2164/7/6 2171/7/6
f 2174/7/6 2175/7/6 2176/7/6
f 2176/7/6 2175/7/6 2177/7/6
f 2172/3/6 2173/3/6 2178/3/6
f 2178/3/6 2173/3/6 2179/3/6
f 2176/5/6 2177/5/6 2180/5/6
f 2180/5/6 2177/5/6 2181/5/6
f 2182/2/6 2183/2/6 2186/2/6
f 2186/2/6 2183/2/6 2187/2/6
f 2184/2/6 2185/2/6 2188/2/6
f 2188/2/6 2185/2/6 2189/2/6
f 2192/7/6 2193/7/6 2194/7/6
f 2190/7/6 2191/7/6 2196/7/6
f 2196/7/6 2191/7/6 2197/7/6
f 2194/7/6 2193/7/6 2198/7/6
f 2198/7/6 2193/7/6 2199/7/6
f 2199/5/6 2200/5/6 2201/5/6
f 2201/5/6 2200/5/6 2202/5/6
f 2195/7/6 2196/7/6 2203/7/6
f 2203/7/6 2196/7/6 2204/7/6
f 2201/7/6 2202/7/6 2205/7/6
f 2205/7/6 2202/7/6 2206/7/6
f 2207/3/6 2208/3/6 2211/3/6
f 2211/3/6 2208/3/6 2212/3/6
f 2209/5/6 2210/5/6 2213/5/6
f 2213/5/6 2210/5/6 2214/5/6
f 2215/5/6 2216/5/6 2219/5/6
f 2219/5/6 2216/5/6 2220/5/6
f 2217/6/6 2218/6/6 2224/6/6
f 2224/6/6 2218/6/6 2225/6/6
f 2224/3/6 2225/3/6 2226/3/6
f 2226/3/6 2225/3/6 2227/3/6
f 2221/3/6 2222/3/6 2228/3/6
f 2222/5/6 2223/5/6 2229/5/6
f 2228/3/6 2222/3/6 2229/3/6
f 2229/5/6 2223/5/6 2230/5/6
f 2231/3/6 2232/3/6 2235/3/6
f 2235/3/6 2232/3/6 2236/3/6
f 2231/3/6 2235/3/6 2237/3/6
f 2235/7/6 2236/7/6 2238/7/6
f 2237/3/6 2235/3/6 2238/3/6
f 2238/7/6 2236/7/6 2239/7/6
f 2233/7/6 2234/7/6 2240/7/6
f 2240/7/6 2234/7/6 2241/7/6
f 2244/5/6 2245/5/6 2246/5/6
f 2246/5/6 2245/5/6 2247/5/6
f 2242/3/6 2243/3/6 2248/3/6
f 2248/3/6 2243/3/6 2249/3/6
f 2246/4/6 2247/4/6 2250/4/6
f 2250/4/6 2247/4/6 2251/4/6
f 2248/5/6 2249/5/6 2252/5/6
f 2252/5/6 2249/5/6 2253/5/6
f 2250/5/6 2251/5/6 2254/5/6
f 2254/5/6 2251/5/6 2255/5/6
f 2256/2/6 2257/2/6 2265/2/6
f 2258/2/6 2259/2/6 2266/2/6
f 2266/2/6 2259/2/6 2267/2/6
f 2260/2/6 2261/2/6 2268/2/6
f 2268/2/6 2261/2/6 2269/2/6
f 2262/2/6 2263/2/6 2270/2/6
f 2264/6/6 2265/6/6 2272/6/6
f 2265/2/6 2257/2/6 2273/2/6
f 2272/6/6 2265/6/6 2273/6/6
f 2273/2/6 2257/2/6 2274/2/6
f 2262/2/6 2270/2/6 2275/2/6
f 2270/3/6 2271/3/6 2276/3/6
f 2275/2/6 2270/2/6 2276/2/6
f 2273/3/6 2274/3/6 2279/3/6
f 2272/3/6 2273/3/6 2279/3/6
f 2279/3/6 2274/3/6 2280/3/6
f 2280/3/6 2274/3/6 2281/3/6
f 2275/3/6 2276/3/6 2282/3/6
f 2276/3/6 2271/3/6 2283/3/6
f 2282/3/6 2276/3/6 2283/3/6
f 2285/4/6 2286/4/6 2287/4/6
f 2284/7/6 2285/7/6 2287/7/6
f 2287/4/6 2286/4/6 2288/4/6
f 2277/6/6 2278/6/6 2290/6/6
f 2290/6/6 2278/6/6 2291/6/6
f 2284/7/6 2287/7/6 2292/7/6
f 2287/7/6 2288/7/6 2292/7/6
f 2292/7/6 2288/7/6 2293/7/6
f 2289/6/6 2290/6/6 2298/6/6
f 2298/6/6 2290/6/6 2299/6/6
f 2293/7/6 2294/7/6 2300/7/6
f 2300/7/6 2294/7/6 2301/7/6
f 2295/7/6 2296/7/6 2303/7/6
f 2296/4/6 2297/4/6 2304/4/6
f 2303/7/6 2296/7/6 2304/7/6
f 2297/6/6 2298/6/6 2305/6/6
f 2304/4/6 2297/4/6 2305/4/6
f 2305/6/6 2298/6/6 2306/6/6
f 2301/7/6 2302/7/6 2307/7/6
f 2307/7/6 2302/7/6 2308/7/6
f 2312/7/6 2313/7/6 2314/7/6
f 2314/7/6 2313/7/6 2315/7/6
f 2309/5/6 2310/5/6 2316/5/6
f 2310/7/6 2311/7/6 2317/7/6
f 2316/5/6 2310/5/6 2317/5/6
f 2317/7/6 2311/7/6 2318/7/6
f 2314/5/6 2315/5/6 2319/5/6
f 2319/5/6 2315/5/6 2320/5/6
f 2321/2/6 2322/2/6 2325/2/6
f 2325/2/6 2322/2/6 2326/2/6
f 2323/2/6 2324/2/6 2327/2/6
f 2327/2/6 2324/2/6 2328/2/6
f 2326/2/6 2322/2/6 2329/2/6
f 2325/3/6 2326/3/6 2329/3/6
f 2329/2/6 2322/2/6 2330/2/6
f 2323/2/6 2327/2/6 2331/2/6
f 2331/2/6 2327/2/6 2332/2/6
f 2321/2/6 2325/2/6 2333/2/6
f 2325/3/6 2329/3/6 2334/3/6
f 2333/2/6 2325/2/6 2334/2/6
f 2327/7/6 2328/7/6 2335/7/6
f 2328/2/6 2324/2/6 2336/2/6
f 2335/7/6 2328/7/6 2336/7/6
f 2336/2/6 2324/2/6 2337/2/6
f 2333/3/6 2334/3/6 2338/3/6
f 2334/3/6 2329/3/6 2339/3/6
f 2338/3/6 2334/3/6 2339/3/6
f 2339/3/6 2329/3/6 2340/3/6
f 2332/2/6 2327/2/6 2341/2/6
f 2327/7/6 2335/7/6 2342/7/6
f 2341/2/6 2327/2/6 2342/2/6
f 2335/3/6 2336/3/6 2343/3/6
f 2342/7/6 2335/7/6 2343/7/6
f 2336/3/6 2337/3/6 2343/3/6
f 2343/3/6 2337/3/6 2344/3/6
f 2345/5/6 2346/5/6 2350/5/6
f 2350/5/6 2346/5/6 2351/5/6
f 2347/6/6 2348/6/6 2355/6/6
f 2348/5/6 2349/5/6 2356/5/6
f 2355/6/6 2348/6/6 2356/6/6
f 2356/5/6 2349/5/6 2357/5/6
f 2352/7/6 2353/7/6 2358/7/6
f 2358/7/6 2353/7/6 2359/7/6
f 2354/6/6 2355/6/6 2362/6/6
f 2362/6/6 2355/6/6 2363/6/6
f 2359/7/6 2360/7/6 2364/7/6
f 2364/7/6 2360/7/6 2365/7/6
f 2361/6/6 2362/6/6 2369/6/6
f 2369/6/6 2362/6/6 2370/6/6
f 2365/7/6 2366/7/6 2371/7/6
f 2371/7/6 2366/7/6 2372/7/6
f 2372/7/6 2373/7/6 2374/7/6
f 2374/7/6 2373/7/6 2375/7/6
f 2367/7/6 2368/7/6 2376/7/6
f 2368/6/6 2369/6/6 2377/6/6
f 2376/7/6 2368/7/6 2377/7/6
f 2377/6/6 2369/6/6 2378/6/6
f 2374/4/6 2375/4/6 2379/4/6
f 2379/4/6 2375/4/6 2380/4/6
f 2384/5/6 2385/5/6 2386/5/6
f 2386/5/6 2385/5/6 2387/5/6
f 2387/5/6 2385/5/6 2388/5/6
f 2387/4/6 2388/4/6 2389/4/6
f 2388/5/6 2385/5/6 2389/5/6
f 2389/5/6 2385/5/6 2390/5/6
f 2382/7/6 2383/7/6 2391/7/6
f 2381/5/6 2382/5/6 2391/5/6
f 2391/7/6 2383/7/6 2392/7/6
f 2391/5/6 2392/5/6 2393/5/6
f 2389/4/6 2390/4/6 2394/4/6
f 2387/4/6 2389/4/6 2394/4/6
f 2394/4/6 2390/4/6 2395/4/6
f 2391/5/6 2393/5/6 2396/5/6
f 2381/5/6 2391/5/6 2396/5/6
f 2396/5/6 2393/5/6 2397/5/6
f 2394/5/6 2395/5/6 2398/5/6
f 2398/5/6 2395/5/6 2399/5/6
f 2400/7/6 2401/7/6 2405/7/6
f 2401/3/6 2402/3/6 2405/3/6
f 2402/7/6 2403/7/6 2406/7/6
f 2405/3/6 2402/3/6 2406/3/6
f 2400/7/6 2405/7/6 2408/7/6
f 2405/7/6 2406/7/6 2408/7/6
f 2406/7/6 2403/7/6 2409/7/6
f 2408/7/6 2406/7/6 2409/7/6
f 2403/5/6 2404/5/6 2410/5/6
f 2409/7/6 2403/7/6 2410/7/6
f 2410/5/6 2404/5/6 2411/5/6
f 2407/7/6 2408/7/6 2414/7/6
f 2414/7/6 2408/7/6 2415/7/6
f 2411/7/6 2412/7/6 2416/7/6
f 2416/7/6 2412/7/6 2417/7/6
f 2417/7/6 2412/7/6 2418/7/6
f 2413/6/6 2414/6/6 2421/6/6
f 2421/6/6 2414/6/6 2422/6/6
f 2422/6/6 2414/6/6 2423/6/6
f 2418/7/6 2419/7/6 2424/7/6
f 2424/7/6 2419/7/6 2425/7/6
f 2425/7/6 2426/7/6 2427/7/6
f 2427/7/6 2426/7/6 2428/7/6
f 2420/6/6 2421/6/6 2431/6/6
f 2431/6/6 2421/6/6 2432/6/6
f 2427/4/6 2428/4/6 2433/4/6
f 2433/4/6 2428/4/6 2434/4/6
f 2434/4/6 2435/4/6 2436/4/6
f 2436/4/6 2435/4/6 2437/4/6
f 2436/5/6 2437/5/6 2438/5/6
f 2438/5/6 2437/5/6 2439/5/6
f 2429/7/6 2430/7/6 2440/7/6
f 2430/6/6 2431/6/6 2440/6/6
f 2440/6/6 2431/6/6 2441/6/6
f 2429/7/6 2440/7/6 2442/7/6
f 2440/7/6 2441/7/6 2442/7/6
f 2442/7/6 2441/7/6 2443/7/6
f 2438/4/6 2439/4/6 2444/4/6
f 2444/4/6 2439/4/6 2445/4/6
f 2442/5/6 2443/5/6 2446/5/6
f 2446/5/6 2443/5/6 2447/5/6
f 2444/5/6 2445/5/6 2448/5/6
f 2448/5/6 2445/5/6 2449/5/6
f 2450/7/6 2451/7/6 2454/7/6
f 2454/7/6 2451/7/6 2455/7/6
f 2451/5/6 2452/5/6 2456/5/6
f 2455/7/6 2451/7/6 2456/7/6
f 2456/5/6 2452/5/6 2457/5/6
f 2457/5/6 2452/5/6 2458/5/6
f 2454/7/6 2455/7/6 2462/7/6
f 2453/7/6 2454/7/6 2462/7/6
f 2462/7/6 2455/7/6 2463/7/6
f 2463/7/6 2455/7/6 2464/7/6
f 2457/5/6 2458/5/6 2465/5/6
f 2458/7/6 2459/7/6 2466/7/6
f 2465/5/6 2458/5/6 2466/5/6
f 2466/7/6 2459/7/6 2467/7/6
f 2467/7/6 2459/7/6 2468/7/6
f 2460/7/6 2461/7/6 2470/7/6
f 2461/4/6 2462/4/6 2471/4/6
f 2470/7/6 2461/7/6 2471/7/6
f 2462/7/6 2463/7/6 2472/7/6
f 2471/4/6 2462/4/6 2472/4/6
f 2472/7/6 2463/7/6 2473/7/6
f 2468/7/6 2469/7/6 2474/7/6
f 2467/7/6 2468/7/6 2474/7/6
f 2474/7/6 2469/7/6 2475/7/6
f 2472/4/6 2473/4/6 2476/4/6
f 2471/4/6 2472/4/6 2476/4/6
f 2470/4/6 2471/4/6 2476/4/6
f 2476/4/6 2473/4/6 2477/4/6
f 2474/4/6 2475/4/6 2478/4/6
f 2478/4/6 2475/4/6 2479/4/6
f 2460/7/6 2470/7/6 2481/7/6
f 2479/4/6 2475/4/6 2482/4/6
f 2480/7/6 2481/7/6 2484/7/6
f 2481/7/6 2470/7/6 2484/7/6
f 2470/4/6 2476/4/6 2485/4/6
f 2484/7/6 2470/7/6 2485/7/6
f 2485/4/6 2476/4/6 2486/4/6
f 2479/4/6 2482/4/6 2487/4/6
f 2482/4/6 2483/4/6 2487/4/6
f 2487/4/6 2483/4/6 2488/4/6
f 2488/4/6 2483/4/6 2489/4/6
f 2489/4/6 2483/4/6 2490/4/6
f 2489/5/6 2490/5/6 2491/5/6
f 2491/5/6 2490/5/6 2492/5/6
f 2480/7/6 2484/7/6 2493/7/6
f 2493/7/6 2484/7/6 2494/7/6
f 2493/5/6 2494/5/6 2495/5/6
f 2495/5/6 2494/5/6 2496/5/6
f 2491/4/6 2492/4/6 2497/4/6
f 2497/4/6 2492/4/6 2498/4/6
f 2499/7/6 2500/7/6 2503/7/6
f 2500/5/6 2501/5/6 2504/5/6
f 2503/7/6 2500/7/6 2504/7/6
f 2504/5/6 2501/5/6 2505/5/6
f 2505/5/6 2501/5/6 2506/5/6
f 2502/7/6 2503/7/6 2508/7/6
f 2503/7/6 2504/7/6 2508/7/6
f 2504/7/6 2505/7/6 2508/7/6
f 2506/5/6 2507/5/6 2509/5/6
f 2508/7/6 2505/7/6 2509/7/6
f 2505/5/6 2506/5/6 2509/5/6
f 2509/5/6 2507/5/6 2510/5/6
f 2508/4/6 2509/4/6 2512/4/6
f 2509/4/6 2510/4/6 2512/4/6
f 2512/4/6 2510/4/6 2513/4/6
f 2513/4/6 2510/4/6 2514/4/6
f 2514/4/6 2510/4/6 2515/4/6
f 2515/4/6 2510/4/6 2516/4/6
f 2511/4/6 2512/4/6 2518/4/6
f 2512/4/6 2513/4/6 2518/4/6
f 2518/4/6 2513/4/6 2519/4/6
f 2515/4/6 2516/4/6 2520/4/6
f 2516/4/6 2517/4/6 2520/4/6
f 2520/4/6 2517/4/6 2521/4/6
f 2511/4/6 2518/4/6 2524/4/6
f 2524/4/6 2518/4/6 2525/4/6
f 2525/4/6 2518/4/6 2526/4/6
f 2521/4/6 2517/4/6 2527/4/6
f 2527/4/6 2517/4/6 2528/4/6
f 2528/4/6 2517/4/6 2529/4/6
f 2522/7/6 2523/7/6 2531/7/6
f 2523/4/6 2524/4/6 2531/4/6
f 2524/4/6 2525/4/6 2531/4/6
f 2531/4/6 2525/4/6 2532/4/6
f 2529/4/6 2530/4/6 2533/4/6
f 2528/4/6 2529/4/6 2533/4/6
f 2533/4/6 2530/4/6 2534/4/6
f 2533/5/6 2534/5/6 2535/5/6
f 2535/5/6 2534/5/6 2536/5/6
f 2531/7/6 2532/7/6 2537/7/6
f 2522/7/6 2531/7/6 2537/7/6
f 2537/7/6 2532/7/6 2538/7/6
f 2537/5/6 2538/5/6 2539/5/6
f 2538/7/6 2532/7/6 2539/7/6
f 2539/7/6 2532/7/6 2540/7/6
f 2537/5/6 2539/5/6 2541/5/6
f 2539/5/6 2540/5/6 2541/5/6
f 2540/7/6 2532/7/6 2542/7/6
f 2541/5/6 2540/5/6 2542/5/6
f 2542/7/6 2532/7/6 2543/7/6
f 2535/4/6 2536/4/6 2544/4/6
f 2544/4/6 2536/4/6 2545/4/6
f 2546/7/6 2547/7/6 2550/7/6
f 2547/5/6 2548/5/6 2551/5/6
f 2549/7/6 2550/7/6 2554/7/6
f 2551/5/6 2552/5/6 2555/5/6
f 2553/7/6 2554/7/6 2557/7/6
f 2554/7/6 2550/7/6 2557/7/6
f 2555/5/6 2556/5/6 2558/5/6
f 2557/7/6 2550/7/6 2558/7/6
f 2550/7/6 2547/7/6 2558/7/6
f 2551/5/6 2555/5/6 2558/5/6
f 2547/5/6 2551/5/6 2558/5/6
f 2558/5/6 2556/5/6 2559/5/6
f 2553/7/6 2557/7/6 2560/7/6
f 2557/4/6 2558/4/6 2560/4/6
f 2558/4/6 2559/4/6 2560/4/6
f 2560/4/6 2559/4/6 2561/4/6
f 2561/4/6 2559/4/6 2562/4/6
f 2553/7/6 2560/7/6 2563/7/6
f 2560/7/6 2561/7/6 2563/7/6
f 2561/5/6 2562/5/6 2564/5/6
f 2563/7/6 2561/7/6 2564/7/6
f 2562/4/6 2559/4/6 2565/4/6
f 2564/5/6 2562/5/6 2565/5/6
f 2553/7/6 2563/7/6 2566/7/6
f 2563/4/6 2564/4/6 2567/4/6
f 2566/7/6 2563/7/6 2567/7/6
f 2564/4/6 2565/4/6 2567/4/6
f 2565/4/6 2559/4/6 2568/4/6
f 2567/4/6 2565/4/6 2568/4/6
